<?xml version="1.0" standalone="no"?>
<!DOCTYPE svg PUBLIC "-//W3C//DTD SVG 1.1//EN" "http://www.w3.org/Graphics/SVG/1.1/DTD/svg11.dtd" >
<svg>
<metadata>
Created by FontForge 20090914 at Wed Mar 13 15:56:46 2013
 By www-data
Copyright (c) 1990 Adobe Systems Incorporated.  All Rights Reserved.Helvetica is a trademark of Linotype AG and/or its subsidiaries.
</metadata>
<defs>
<font id="Helvetica57-Condensed" horiz-adv-x="444" >
  <font-face 
    font-family="Helvetica57-Condensed"
    font-weight="400"
    font-stretch="expanded"
    units-per-em="1000"
    panose-1="2 11 5 0 0 0 0 0 0 0"
    ascent="800"
    descent="-200"
    x-height="536"
    cap-height="714"
    bbox="-45.001 -212.009 1000 931.999"
    underline-thickness="50"
    underline-position="-50"
    unicode-range="U+0020-U+2122"
  />
<missing-glyph horiz-adv-x="502" 
d="M-1 0h500v500h-500v-500zM9 10v480h480v-480h-480z" />
    <glyph glyph-name=".notdef" horiz-adv-x="502" 
d="M-1 0h500v500h-500v-500zM9 10v480h480v-480h-480z" />
    <glyph glyph-name="space" unicode=" " horiz-adv-x="240" 
 />
    <glyph glyph-name="exclam" unicode="!" horiz-adv-x="258" 
d="M99 186h60l16 528h-92zM83 0h92v96h-92v-96z" />
    <glyph glyph-name="quotedbl" unicode="&#x22;" horiz-adv-x="407" 
d="M87 460h66v254h-66v-254zM254 460h66v254h-66v-254z" />
    <glyph glyph-name="numbersign" unicode="#" horiz-adv-x="480" 
d="M79 0h66l26 205h106l-26 -205h66l26 205h91v66h-83l19 154h87v66h-78l25 203h-66l-25 -203h-106l25 203h-66l-25 -203h-96v-66h87l-19 -154h-90v-66h82zM198 425h106l-19 -154h-106z" />
    <glyph glyph-name="dollar" unicode="$" horiz-adv-x="480" 
d="M259 306c34.667 -12.667 61.332 -28.5 79.999 -47.5s28 -45.5 28 -79.5s-10.167 -62 -30.5 -84s-46.166 -34.333 -77.499 -37v248zM216.998 405c-30.667 12 -54.167 27.168 -70.5 45.501s-24.5 43.166 -24.5 74.499c0 66 31.667 103 95 111v-231zM216.998 708.001
c-38 -2 -69.502 -9.83691 -94.502 -23.5039s-44.167 -30.167 -57.5 -49.5s-22.5 -39.166 -27.5 -59.499s-7.5 -40.166 -7.5 -59.499c0 -32 5.16699 -59.167 15.5 -81.5s24 -40.5 41 -54.5s35.333 -25 55 -33s44.167 -16.667 73.5 -26l2 -1v-262
c-24.667 2.66699 -44.5 8.83398 -59.5 18.501s-25.833 21.834 -32.5 36.501s-11 30 -13 46s-3 35.667 -3 59h-88c0 -75.333 14.667 -132.166 44 -170.499s80 -58.833 152 -61.5v-94h42v94c26 1.33301 50.667 6.16602 74 14.499s44.5 20.5 63.5 36.5s34.167 37.167 45.5 63.5
s17 57.166 17 92.499c0 31.333 -5 58 -15 80s-23.167 39.667 -39.5 53s-33.666 23.833 -51.999 31.5s-42.166 16.5 -71.499 26.5c-10 3.33301 -17.333 5.66602 -22 6.99902v245c32.667 -3.33301 56.167 -15.666 70.5 -36.999s21.5 -49.666 21.5 -84.999h88
c-0.666992 62 -15.667 109.167 -45 141.5s-74.333 49.833 -135 52.5v58h-42v-58z" />
    <glyph glyph-name="percent" unicode="%" horiz-adv-x="759" 
d="M177 378c-25.333 0 -41.5 10.833 -48.5 32.5s-10.5 56.834 -10.5 105.501s3.5 83.834 10.5 105.501s23.167 32.5 48.5 32.5s41.5 -10.833 48.5 -32.5s10.5 -56.834 10.5 -105.501s-3.5 -83.834 -10.5 -105.501s-23.167 -32.5 -48.5 -32.5zM186 -14h70l310 722h-70z
M582 40c-25.333 0 -41.5 10.833 -48.5 32.5s-10.5 56.834 -10.5 105.501s3.5 83.834 10.5 105.501s23.167 32.5 48.5 32.5s41.5 -10.833 48.5 -32.5s10.5 -56.834 10.5 -105.501s-3.5 -83.834 -10.5 -105.501s-23.167 -32.5 -48.5 -32.5zM177 324
c28.667 0 51.834 4.99805 69.501 14.998s30.834 23.833 39.501 41.5s14.5 37.334 17.5 59.001s4.5 47.167 4.5 76.5s-1.5 54.833 -4.5 76.5s-8.83301 41.334 -17.5 59.001s-21.834 31.5 -39.501 41.5s-40.834 15 -69.501 15s-51.834 -5 -69.501 -15
s-30.834 -23.833 -39.501 -41.5s-14.5 -37.334 -17.5 -59.001s-4.5 -47.167 -4.5 -76.5s1.5 -54.833 4.5 -76.5s8.83301 -41.167 17.5 -58.5s21.834 -31.166 39.501 -41.499s40.834 -15.5 69.501 -15.5zM582 -14.002c28.667 0 51.834 4.99805 69.501 14.998
s30.834 23.833 39.501 41.5s14.5 37.334 17.5 59.001s4.5 47.167 4.5 76.5s-1.5 54.833 -4.5 76.5s-8.83301 41.334 -17.5 59.001s-21.834 31.5 -39.501 41.5s-40.834 15 -69.501 15s-51.834 -5 -69.501 -15s-30.834 -23.833 -39.501 -41.5s-14.5 -37.334 -17.5 -59.001
s-4.5 -47.167 -4.5 -76.5s1.5 -54.833 4.5 -76.5s8.83301 -41.167 17.5 -58.5s21.834 -31.166 39.501 -41.499s40.834 -15.5 69.501 -15.5z" />
    <glyph glyph-name="ampersand" unicode="&#x26;" horiz-adv-x="556" 
d="M238 453l-16.999 23.999c-13.333 20 -23.833 38.167 -31.5 54.5s-11.5 31.833 -11.5 46.5c0 20.667 6.5 37.5 19.5 50.5s30.167 19.5 51.5 19.5s38.666 -6.5 51.999 -19.5s20 -29.833 20 -50.5c0 -20 -4.83301 -37.167 -14.5 -51.5s-24.5 -31.166 -44.5 -50.499l-5 -5z
M372.001 126.999c-19.333 -22 -39.001 -38.999 -59.001 -50.999s-43 -18 -69 -18c-36.667 0 -67.667 11.833 -93 35.5s-38 56.167 -38 97.5c0 35.333 9.33301 66.666 28 93.999s43.334 50.333 74.001 69zM275 400l25.998 22.0039c31.333 26 55.5 50.667 72.5 74
s25.5 50.666 25.5 81.999c0 46.667 -13.333 81 -40 103s-63.667 33 -111 33c-41.333 0 -76.333 -13 -105 -39s-43 -59.667 -43 -101c0 -22.667 4.33301 -43.334 13 -62.001s21.667 -41.334 39 -68.001l22 -36l-52 -39c-30 -23.333 -53.667 -51 -71 -83s-26 -66 -26 -102
c0 -19.333 3.16699 -40 9.5 -62s17.333 -43.333 33 -64s37.667 -37.834 66 -51.501s62.833 -20.5 103.5 -20.5c36 0 66.833 6.5 92.5 19.5s53.5 33.5 83.5 61.5l48 -67h95l-92 129c6.66699 8.66699 13.334 21.667 20.001 39s13 36.833 19 58.5s10.667 42.334 14 62.001
s5 35.834 5 48.501h-78c-2.66699 -30.667 -6.16699 -56.834 -10.5 -78.501s-10.166 -41.834 -17.499 -60.501z" />
    <glyph glyph-name="quotesingle" unicode="'" horiz-adv-x="240" 
d="M87 460h66v254h-66v-254z" />
    <glyph glyph-name="parenleft" unicode="(" horiz-adv-x="241" 
d="M189 714c-47.333 -64.667 -83.5 -135.665 -108.5 -212.998s-37.5 -156 -37.5 -236c0 -79.333 12.667 -158 38 -236s61.333 -149 108 -213h48c-37.333 72 -65 144.667 -83 218s-27 150.333 -27 231c0 83.333 8.66699 163.166 26 239.499s45.333 146.166 84 209.499h-48z
" />
    <glyph glyph-name="parenright" unicode=")" horiz-adv-x="241" 
d="M52 -184c47.333 64.667 83.5 135.665 108.5 212.998s37.5 156 37.5 236c0 79.333 -12.667 158 -38 236s-61.333 149 -108 213h-48c37.333 -72 65 -144.667 83 -218s27 -150.333 27 -231c0 -83.333 -8.66699 -163.166 -26 -239.499s-45.333 -146.166 -84 -209.499h48z" />
    <glyph glyph-name="asterisk" unicode="*" horiz-adv-x="352" 
d="M146 595l-107 41l-22 -58l113 -34l-76 -94l50 -37l72 102l72 -102l50 37l-76 94l113 34l-22 58l-107 -41v119h-60v-119z" />
    <glyph glyph-name="plus" unicode="+" horiz-adv-x="600" 
d="M267 0h66v220h220v66h-220v220h-66v-220h-220v-66h220v-220z" />
    <glyph glyph-name="comma" unicode="," horiz-adv-x="240" 
d="M74 0l43.999 0.000976562v-24c0 -20.667 -3 -36.667 -9 -48s-17.667 -21 -35 -29v-47c20.667 5.33301 37.334 13.5 50.001 24.5s22 23.667 28 38s9.83301 29.666 11.5 45.999s2.5 35.833 2.5 58.5v87h-92v-106z" />
    <glyph glyph-name="hyphen" unicode="-" horiz-adv-x="352" 
d="M54 245h244v78h-244v-78z" />
    <glyph glyph-name="period" unicode="." horiz-adv-x="240" 
d="M74 0h92v106h-92v-106z" />
    <glyph glyph-name="slash" unicode="/" horiz-adv-x="278" 
d="M-10 -14h66l232 742h-66z" />
    <glyph glyph-name="zero" unicode="0" horiz-adv-x="480" 
d="M240 -14c45.333 0 81.833 10.834 109.5 32.501s48.167 50.167 61.5 85.5s21.833 72.333 25.5 111s5.5 81.667 5.5 129c0 54 -1.83301 100.833 -5.5 140.5s-12.167 76.667 -25.5 111s-33.833 61.666 -61.5 81.999s-64.167 30.5 -109.5 30.5s-81.833 -10.833 -109.5 -32.5
s-48.167 -50.334 -61.5 -86.001s-21.833 -73.167 -25.5 -112.5s-5.5 -83.666 -5.5 -132.999c0 -52 1.83301 -97.5 5.5 -136.5s12.167 -75.5 25.5 -109.5s33.833 -61.167 61.5 -81.5s64.167 -30.5 109.5 -30.5zM126 344.001c0 47.333 1 87.5 3 120.5s6.66699 63 14 90
s18.833 48.333 34.5 64s36.5 23.5 62.5 23.5s46.833 -7.83301 62.5 -23.5s27.167 -37 34.5 -64s12 -57 14 -90s3 -73.167 3 -120.5c0 -45.333 -1 -84 -3 -116s-6.66699 -61.5 -14 -88.5s-18.833 -48.333 -34.5 -64s-36.5 -23.5 -62.5 -23.5s-46.667 7.83301 -62 23.5
s-26.833 37 -34.5 64s-12.5 56.5 -14.5 88.5s-3 70.667 -3 116z" />
    <glyph glyph-name="one" unicode="1" horiz-adv-x="480" 
d="M67 532l151.002 -0.000976562v-532h84v708h-60c-0.666992 -24 -5.83398 -43.5 -15.501 -58.5s-22.334 -26.333 -38.001 -34s-33 -13.167 -52 -16.5s-42.167 -5.66602 -69.5 -6.99902v-60z" />
    <glyph glyph-name="two" unicode="2" horiz-adv-x="480" 
d="M438 78l-304.001 0.000976562c10 45.333 35.667 85.666 77 120.999l100 87c43.333 37.333 74.833 72.833 94.5 106.5s29.5 75.834 29.5 126.501c0 19.333 -2.5 39.333 -7.5 60s-14.333 40.834 -28 60.501s-33.167 36 -58.5 49s-57.333 19.5 -96 19.5
c-69.333 0 -120.166 -19.833 -152.499 -59.5s-48.5 -94.834 -48.5 -165.501h88c0 15.333 1 30.833 3 46.5s6.5 31.667 13.5 48s18.333 30.166 34 41.499s36.167 17 61.5 17c35.333 0 61.333 -12.5 78 -37.5s25 -54.833 25 -89.5c0 -36 -7.66699 -66.333 -23 -91
s-39 -51 -71 -79l-58 -49c-46 -40 -83 -83.167 -111 -129.5s-42 -99.833 -42 -160.5h396v78z" />
    <glyph glyph-name="three" unicode="3" horiz-adv-x="480" 
d="M180 333l45 -0.00195312c42.667 0 74.667 -11.833 96 -35.5s32 -56.834 32 -99.501c0 -28.667 -3.16699 -52.667 -9.5 -72s-15 -34.333 -26 -45s-23 -18.167 -36 -22.5s-26.833 -6.5 -41.5 -6.5c-37.333 0 -65.5 14 -84.5 42s-28.5 60.667 -28.5 98h-88v-9
c0 -13.333 2 -30.166 6 -50.499s12.667 -41.833 26 -64.5s33.833 -42 61.5 -58s63.5 -24 107.5 -24c66 0 116 19.833 150 59.5s51 92.834 51 159.501c0 47.333 -11.333 84.666 -34 111.999s-55 45 -97 53v2c36 8.66699 63.333 26.834 82 54.501s28 60.167 28 97.5
c0 22 -2.83301 43.5 -8.5 64.5s-15.167 40.667 -28.5 59s-32 33 -56 44s-53.667 16.5 -89 16.5c-63.333 0 -110.5 -18.167 -141.5 -54.5s-46.5 -86.166 -46.5 -149.499h88c0 16.667 1.16699 32.5 3.5 47.5s6.83301 29.333 13.5 43s17 25 31 34s32 13.5 54 13.5
c32 0 55.333 -10.833 70 -32.5s22 -50.167 22 -85.5c0 -37.333 -9 -67.5 -27 -90.5s-45 -34.5 -81 -34.5h-44v-66z" />
    <glyph glyph-name="four" unicode="4" horiz-adv-x="480" 
d="M284 570h2v-327h-180zM30 250v-79h256v-171h84v171h80v72h-80v465h-84z" />
    <glyph glyph-name="five" unicode="5" horiz-adv-x="480" 
d="M58 331l76.0029 -4c0 4.66699 2.5 10.834 7.5 18.501s12 15.5 21 23.5s19.667 14.5 32 19.5s25.5 7.5 39.5 7.5c21.333 0 39.666 -4.5 54.999 -13.5s27.666 -21 36.999 -36s16 -32 20 -51s6 -38.833 6 -59.5c0 -21.333 -1.5 -42.333 -4.5 -63s-8.66699 -40.167 -17 -58.5
s-20.333 -33.333 -36 -45s-35.167 -17.5 -58.5 -17.5c-22 0 -40.333 4.66699 -55 14s-25.667 21 -33 35s-12.5 28.167 -15.5 42.5s-4.5 27.166 -4.5 38.499h-88c0 -18 2.66699 -37.667 8 -59s14.833 -42.5 28.5 -63.5s33.5 -38.5 59.5 -52.5s58.667 -21 98 -21
c36 0 67.167 6.33301 93.5 19s47.666 30 63.999 52s28.5 47.667 36.5 77s12 61 12 95c0 73.333 -16.167 130.5 -48.5 171.5s-75.5 61.5 -129.5 61.5c-24.667 0 -48 -4.5 -70 -13.5s-40 -22.167 -54 -39.5l-2 2l28 205h249v78h-316z" />
    <glyph glyph-name="six" unicode="6" horiz-adv-x="480" 
d="M429 538c0 12.667 -1.99805 28 -5.99805 46s-12 36.5 -24 55.5s-30.333 35.167 -55 48.5s-56 20 -94 20c-48 0 -86.833 -11.667 -116.5 -35s-51.5 -54 -65.5 -92s-23 -77.833 -27 -119.5s-6 -88.167 -6 -139.5c0 -46 2.16699 -87.333 6.5 -124s13.333 -71.167 27 -103.5
s35 -58.5 64 -78.5s66.5 -30 112.5 -30c64 0 113.333 22.5 148 67.5s52 103.167 52 174.5c0 68.667 -15.833 123.167 -47.5 163.5s-77.5 60.5 -137.5 60.5c-34 0 -62.5 -8.5 -85.5 -25.5s-39.5 -34.833 -49.5 -53.5h-2v56c0 16 1.33301 34.833 4 56.5s8 44.667 16 69
s20.667 45 38 62s39.666 25.5 66.999 25.5c29.333 0 52.166 -9.66699 68.499 -29s24.5 -44.333 24.5 -75h88zM133.002 216c0 21.333 1.66797 41.333 5.00098 60s9 35.834 17 51.501s19.333 28.334 34 38.001s33.334 14.5 56.001 14.5s41.334 -4.83301 56.001 -14.5
s26 -22.334 34 -38.001s13.667 -32.834 17 -51.501s5 -38.667 5 -60c0 -20 -1.83301 -39.5 -5.5 -58.5s-9.66699 -36.5 -18 -52.5s-19.833 -28.833 -34.5 -38.5s-32.667 -14.5 -54 -14.5c-20.667 0 -38.334 4.83301 -53.001 14.5s-26.334 22.5 -35.001 38.5
s-14.834 33.5 -18.501 52.5s-5.5 38.5 -5.5 58.5z" />
    <glyph glyph-name="seven" unicode="7" horiz-adv-x="480" 
d="M38 616l324 -0.000976562c-69.333 -90.667 -125.333 -188.667 -168 -294c-44 -104.667 -72.667 -212 -86 -322h98c6 67.333 17.333 132 34 194s37.667 123.333 63 184c20 48.667 42.5 93.834 67.5 135.501s48.833 77.5 71.5 107.5v73h-404v-78z" />
    <glyph glyph-name="eight" unicode="8" horiz-adv-x="480" 
d="M37 195c0 -25.333 3.33105 -50.166 9.99805 -74.499s17.834 -46.666 33.501 -66.999s36.667 -36.666 63 -48.999s58.5 -18.5 96.5 -18.5s70.167 6.16699 96.5 18.5s47.333 28.666 63 48.999s26.834 42.666 33.501 66.999s10 49.166 10 74.499
c0 94 -41.667 154.667 -125 182c35.333 14.667 61.333 34 78 58s25 55 25 93c0 56.667 -16 100.834 -48 132.501s-76.333 47.5 -133 47.5c-56 0 -100.167 -15.833 -132.5 -47.5s-48.5 -75.834 -48.5 -132.501c0 -38 8.33301 -69 25 -93s42.667 -43.333 78 -58
c-83.333 -27.333 -125 -88 -125 -182zM239.998 642c30.667 0 53.834 -10.5 69.501 -31.5s23.5 -49.167 23.5 -84.5c0 -34.667 -7.83301 -62.667 -23.5 -84s-38.834 -32 -69.501 -32c-31.333 0 -54.666 10.667 -69.999 32s-23 49.333 -23 84c0 35.333 7.66699 63.5 23 84.5
s38.666 31.5 69.999 31.5zM124.998 198c0 44 9.5 79.333 28.5 106s47.833 40 86.5 40c39.333 0 68.333 -13.333 87 -40s28 -62 28 -106s-9.33301 -79.333 -28 -106s-47.667 -40 -87 -40c-38.667 0 -67.5 13.333 -86.5 40s-28.5 62 -28.5 106z" />
    <glyph glyph-name="nine" unicode="9" horiz-adv-x="480" 
d="M51 156c0 -12.667 2 -28 6 -46s12 -36.5 24 -55.5s30.333 -35.167 55 -48.5s56 -20 94 -20c48.667 0 87.667 11.667 117 35s51 54 65 92s23 77.833 27 119.5s6 88.167 6 139.5c0 46 -2.16699 87.167 -6.5 123.5s-13.333 70.833 -27 103.5s-34.834 59 -63.501 79
s-66.334 30 -113.001 30c-64 0 -113.333 -22.5 -148 -67.5s-52 -103.167 -52 -174.5c0 -68.667 15.833 -123.167 47.5 -163.5s77.5 -60.5 137.5 -60.5c34 0 62.5 8.5 85.5 25.5s39.5 34.833 49.5 53.5h2v-56c0 -15.333 -1.33301 -34 -4 -56s-8 -45 -16 -69
s-20.667 -44.667 -38 -62s-39.666 -26 -66.999 -26c-29.333 0 -52.166 9.83301 -68.499 29.5s-24.5 44.5 -24.5 74.5h-88zM347 478c0 -21.333 -1.50488 -41.333 -4.50488 -60s-8.66699 -35.834 -17 -51.501s-19.833 -28.334 -34.5 -38.001s-33.334 -14.5 -56.001 -14.5
c-22 0 -40.5 4.83301 -55.5 14.5s-26.5 22.334 -34.5 38.001s-13.667 32.834 -17 51.501s-5 38.667 -5 60c0 20.667 1.83301 40.5 5.5 59.5s9.83398 36.333 18.501 52s20.334 28.334 35.001 38.001s32.334 14.5 53.001 14.5s38.334 -4.83301 53.001 -14.5
s26.334 -22.334 35.001 -38.001s14.834 -33 18.501 -52s5.5 -38.833 5.5 -59.5z" />
    <glyph glyph-name="colon" unicode=":" horiz-adv-x="240" 
d="M74 400h92v106h-92v-106zM74 0h92v106h-92v-106z" />
    <glyph glyph-name="semicolon" unicode=";" horiz-adv-x="240" 
d="M74 0l43.999 0.000976562v-24c0 -20.667 -3 -36.667 -9 -48s-17.667 -21 -35 -29v-47c20.667 5.33301 37.334 13.5 50.001 24.5s22 23.667 28 38s9.83301 29.666 11.5 45.999s2.5 35.833 2.5 58.5v87h-92v-106zM73.999 400.001h92v106h-92v-106z" />
    <glyph glyph-name="less" unicode="&#x3c;" horiz-adv-x="600" 
d="M47 223l506 -231v66l-428 195l428 195v66l-506 -231v-60z" />
    <glyph glyph-name="equal" unicode="=" horiz-adv-x="600" 
d="M47 322h506v66h-506v-66zM47 118h506v66h-506v-66z" />
    <glyph glyph-name="greater" unicode="&#x3e;" horiz-adv-x="600" 
d="M47 -8l506 231v60l-506 231v-66l428 -195l-428 -195v-66z" />
    <glyph glyph-name="question" unicode="?" 
d="M119 504c0 16 1.16504 32.001 3.49805 48.001s7 31.333 14 46s17.667 27 32 37s32.833 15 55.5 15c31.333 0 55.333 -10.667 72 -32s25 -47.666 25 -78.999c0 -22.667 -2.16699 -41.667 -6.5 -57s-12.166 -30.333 -23.499 -45
c-5.33301 -6.66699 -15.333 -18.334 -30 -35.001l-43.5 -52.5c-11.667 -14.333 -20.834 -27.833 -27.501 -40.5c-8 -16 -13.167 -33.5 -15.5 -52.5s-3.5 -42.5 -3.5 -70.5h78v19c0 17.333 2.5 34.666 7.5 51.999s13.167 33.333 24.5 48l14 16l26 30
c3.33301 3.33301 9.83301 10.333 19.5 21s15.834 17.667 18.501 21c16 19.333 28.333 41.333 37 66s13 49.667 13 75c0 55.333 -16.667 100.5 -50 135.5s-79.333 52.5 -138 52.5c-61.333 0 -107.666 -20.5 -138.999 -61.5s-47 -93.167 -47 -156.5h84zM164.998 0.000976562
h92v96h-92v-96z" />
    <glyph glyph-name="at" unicode="@" horiz-adv-x="800" 
d="M240 293c0 23.333 4.33398 47.833 13.001 73.5s20.5 49.167 35.5 70.5s32.833 38.666 53.5 51.999s42.667 20 66 20c24 0 43.5 -10.5 58.5 -31.5s22.5 -43.833 22.5 -68.5c0 -20 -3.83301 -42.167 -11.5 -66.5s-18.334 -47.666 -32.001 -69.999
s-30.167 -40.5 -49.5 -54.5s-40 -21 -62 -21c-26.667 0 -49 9 -67 27s-27 41 -27 69zM524.001 487h-1.99609c-10 28.667 -24.833 49.5 -44.5 62.5s-42.834 19.5 -69.501 19.5c-34 0 -65.5 -7.83301 -94.5 -23.5s-54 -37.167 -75 -64.5s-37 -57.833 -48 -91.5
s-16.5 -67.834 -16.5 -102.501c0 -43.333 14.167 -79.166 42.5 -107.499s61.5 -42.5 99.5 -42.5c26.667 0 49.667 5.16699 69 15.5s38 24.833 56 43.5h2c4.66699 -39.333 28 -59 70 -59c30 0 60.167 6.66699 90.5 20s58.166 32.5 83.499 57.5s45.666 55 60.999 90
s23 73.167 23 114.5c0 44.667 -9 85.834 -27 123.501s-43.667 70.5 -77 98.5s-72.833 49.5 -118.5 64.5s-95.167 22.5 -148.5 22.5c-50.667 0 -98.5 -9.5 -143.5 -28.5s-84.667 -45.667 -119 -80s-61 -74 -80 -119s-28.5 -92.833 -28.5 -143.5s9.5 -98.5 28.5 -143.5
s45.667 -84.667 80 -119s74 -61 119 -80s92.833 -28.5 143.5 -28.5c76.667 0 143.5 14.667 200.5 44s101.5 71.666 133.5 126.999h-63c-26.667 -36.667 -63 -64.334 -109 -83.001s-100 -28 -162 -28c-42.667 0 -82.5 7.83301 -119.5 23.5s-69.5 37.5 -97.5 65.5
s-49.667 61 -65 99s-23 79 -23 123c0 43.333 7.66699 83.833 23 121.5s37 70.834 65 99.501s60.667 50.834 98 66.501s77 23.5 119 23.5c42.667 0 82.5 -6 119.5 -18s69.5 -29.333 97.5 -52s49.667 -49.667 65 -81s23 -65.333 23 -102c0 -27.333 -4.33301 -54 -13 -80
s-20.834 -49.5 -36.501 -70.5s-33.667 -37.5 -54 -49.5s-41.5 -18 -63.5 -18c-19.333 0 -29 8.66699 -29 26c0 9.33301 2.66699 23.666 8 42.999l1 2l84 282h-56z" />
    <glyph glyph-name="A" unicode="A" horiz-adv-x="500" 
d="M-8 0h92l53 196h228l51 -196h92l-192 714h-118zM254 613h2l91 -345h-192z" />
    <glyph glyph-name="B" unicode="B" horiz-adv-x="519" 
d="M146 340h105c42 0 75.833 -11 101.5 -33s38.5 -56.333 38.5 -103c0 -38 -10 -69.5 -30 -94.5s-51.667 -37.5 -95 -37.5h-120v268zM58 0l194 0.00195312c76.667 0 134.334 16.333 173.001 49s58 84.334 58 155.001c0 45.333 -10.5 83.5 -31.5 114.5
s-52.833 51.5 -95.5 61.5v2c32 9.33301 57.333 28.166 76 56.499s28 59.166 28 92.499s-5 61.833 -15 85.5s-23.5 42.667 -40.5 57s-36.333 24.666 -58 30.999s-44.834 9.5 -69.501 9.5h-219v-714zM146 642.002h99c42 0 73 -10 93 -30s30 -49 30 -87
c0 -26 -4.16699 -47.167 -12.5 -63.5s-19 -28.5 -32 -36.5s-26 -13.167 -39 -15.5s-25.5 -3.5 -37.5 -3.5h-101v236z" />
    <glyph glyph-name="C" unicode="C" horiz-adv-x="519" 
d="M403 245c-0.666992 -25.333 -2.83398 -48.6719 -6.50098 -70.0049s-9.66699 -40.833 -18 -58.5s-20.833 -31.834 -37.5 -42.501s-37.667 -16 -63 -16c-29.333 0 -53.333 7.5 -72 22.5s-32.667 35.833 -42 62.5s-15.666 57.334 -18.999 92.001s-5 75.334 -5 122.001
s1.66699 87.334 5 122.001s9.66602 65.334 18.999 92.001s23.333 47.5 42 62.5s42.667 22.5 72 22.5c42 0 72 -13.667 90 -41s27.667 -63.666 29 -108.999h92c-2 72.667 -19.833 127.834 -53.5 165.501s-86.167 56.5 -157.5 56.5c-46.667 0 -85.5 -10.333 -116.5 -31
s-54.667 -48.5 -71 -83.5s-27.5 -73.667 -33.5 -116s-9 -89.166 -9 -140.499c0 -52 2.83301 -99.167 8.5 -141.5s16.334 -80.833 32.001 -115.5s39.167 -62.334 70.5 -83.001s71 -31 119 -31c37.333 0 69.666 6.83301 96.999 20.5s49.333 32.5 66 56.5
s29.334 51.333 38.001 82s14 64 16 100h-92z" />
    <glyph glyph-name="D" unicode="D" horiz-adv-x="556" 
d="M155 642l92 0.000976562c38 0 68.667 -8 92 -24s40.5 -37.333 51.5 -64s18 -55.667 21 -87s4.5 -68.333 4.5 -111c0 -38.667 -2 -73.834 -6 -105.501s-11.667 -61 -23 -88s-28.5 -48.833 -51.5 -65.5s-52.5 -25 -88.5 -25h-92v570zM67 0.000976562l199.999 0.000976562
c47.333 0 86.833 9.66699 118.5 29s56.334 45.666 74.001 78.999s30.167 70.833 37.5 112.5s11 87.167 11 136.5c0 56 -3 104.667 -9 146s-17.5 77.833 -34.5 109.5s-42.333 56.5 -76 74.5s-77.167 27 -130.5 27h-191v-714z" />
    <glyph glyph-name="E" unicode="E" horiz-adv-x="463" 
d="M58 0h381v78h-293v256h265v78h-265v224h281v78h-369v-714z" />
    <glyph glyph-name="F" unicode="F" 
d="M58 0h88v334h265v78h-265v224h281v78h-369v-714z" />
    <glyph glyph-name="G" unicode="G" horiz-adv-x="537" 
d="M489 516c-0.666992 17.333 -2.83398 36.4951 -6.50098 57.4951s-12.167 43.5 -25.5 67.5s-34.666 44.5 -63.999 61.5s-67.666 25.5 -114.999 25.5c-46.667 0 -85.5 -10.333 -116.5 -31s-54.667 -48.5 -71 -83.5s-27.5 -73.667 -33.5 -116s-9 -89.166 -9 -140.499
c0 -53.333 3 -101.5 9 -144.5s16.833 -81.667 32.5 -116s38 -61.333 67 -81s65.833 -29.5 110.5 -29.5c37.333 0 69.833 10.5 97.5 31.5s46.5 47.5 56.5 79.5h2v-97h66v371h-221v-72h141c0 -30.667 -1.33301 -59 -4 -85s-8.33398 -50.833 -17.001 -74.5
s-22 -43.167 -40 -58.5s-41.333 -23 -70 -23c-29.333 0 -53.333 7.5 -72 22.5s-32.667 35.833 -42 62.5s-15.666 57.334 -18.999 92.001s-5 75.334 -5 122.001s1.66699 87.334 5 122.001s9.66602 65.334 18.999 92.001s23.333 47.5 42 62.5s42.667 22.5 72 22.5
c40.667 0 70.167 -12.833 88.5 -38.5s28.5 -59.5 30.5 -101.5h92z" />
    <glyph glyph-name="H" unicode="H" horiz-adv-x="537" 
d="M479 714h-88v-292h-245v292h-88v-714h88v344h245v-344h88v714z" />
    <glyph glyph-name="I" unicode="I" horiz-adv-x="204" 
d="M58 0h88v714h-88v-714z" />
    <glyph glyph-name="J" unicode="J" horiz-adv-x="426" 
d="M368 714h-88v-506c0 -54 -6 -92.5 -18 -115.5s-36.667 -34.5 -74 -34.5c-28 0 -48.667 8.66699 -62 26s-20 41.333 -20 72v52h-84v-59c0 -46.667 13.833 -85.5 41.5 -116.5s69.5 -46.5 125.5 -46.5c35.333 0 64.833 5.33301 88.5 16s42 25.667 55 45s22.167 42 27.5 68
s8 56 8 90v509z" />
    <glyph glyph-name="K" unicode="K" horiz-adv-x="500" 
d="M58 0h88v243l74 101l193 -344h98l-234 416l216 298h-98l-247 -346h-2v346h-88v-714z" />
    <glyph glyph-name="L" unicode="L" 
d="M58 0h378v78h-290v636h-88v-714z" />
    <glyph glyph-name="M" unicode="M" horiz-adv-x="704" 
d="M60 0h88v624h2l158 -624h88l158 624h2v-624h88v714h-148l-143 -566h-2l-143 566h-148v-714z" />
    <glyph glyph-name="N" unicode="N" horiz-adv-x="556" 
d="M58 0h88v578h2l229 -578h121v714h-88v-596h-2l-236 596h-114v-714z" />
    <glyph glyph-name="O" unicode="O" horiz-adv-x="556" 
d="M278 728c-46.667 0 -85.5 -10.333 -116.5 -31s-54.667 -48.5 -71 -83.5s-27.5 -73.667 -33.5 -116s-9 -89.166 -9 -140.499s3 -98.333 9 -141s17.167 -81.334 33.5 -116.001s40 -62.334 71 -83.001s69.833 -31 116.5 -31s85.5 10.333 116.5 31s54.667 48.5 71 83.5
s27.5 73.667 33.5 116s9 89.166 9 140.499s-3 98.333 -9 141s-17.167 81.334 -33.5 116.001s-40 62.334 -71 83.001s-69.833 31 -116.5 31zM278 656c29.333 0 53.333 -7.5 72 -22.5s32.667 -35.833 42 -62.5s15.666 -57.334 18.999 -92.001s5 -75.334 5 -122.001
s-1.66699 -87.334 -5 -122.001s-9.66602 -65.334 -18.999 -92.001s-23.333 -47.5 -42 -62.5s-42.667 -22.5 -72 -22.5s-53.333 7.5 -72 22.5s-32.667 35.833 -42 62.5s-15.666 57.334 -18.999 92.001s-5 75.334 -5 122.001s1.66699 87.334 5 122.001
s9.66602 65.334 18.999 92.001s23.333 47.5 42 62.5s42.667 22.5 72 22.5z" />
    <glyph glyph-name="P" unicode="P" horiz-adv-x="481" 
d="M58 0h88v302h109c62 0 111.833 18.167 149.5 54.5s56.5 87.166 56.5 152.499c0 48 -8 86.333 -24 115s-35.667 49.334 -59 62.001s-46 20.5 -68 23.5s-45.333 4.5 -70 4.5h-182v-714zM146 642l99 0.000976562c42 0 73.167 -11.333 93.5 -34s30.5 -54.334 30.5 -95.001
c0 -45.333 -11.167 -79.833 -33.5 -103.5s-50.5 -35.5 -84.5 -35.5h-105v268z" />
    <glyph glyph-name="Q" unicode="Q" horiz-adv-x="556" 
d="M473 -43l49 51.999l-72 66c22 33.333 37.167 74 45.5 122s12.5 101.333 12.5 160c0 51.333 -3 98.333 -9 141s-17.167 81.334 -33.5 116.001s-40 62.334 -71 83.001s-69.833 31 -116.5 31s-85.5 -10.333 -116.5 -31s-54.667 -48.5 -71 -83.5s-27.5 -73.667 -33.5 -116
s-9 -89.166 -9 -140.499s3 -98.333 9 -141s17.167 -81.334 33.5 -116.001s40 -62.334 71 -83.001s69.833 -31 116.5 -31c50 0 91 12 123 36zM343 74.999c-17.333 -11.333 -38.999 -17.002 -64.999 -17.002c-29.333 0 -53.333 7.5 -72 22.5s-32.667 35.833 -42 62.5
s-15.666 57.334 -18.999 92.001s-5 75.334 -5 122.001s1.66699 87.334 5 122.001s9.66602 65.334 18.999 92.001s23.333 47.5 42 62.5s42.667 22.5 72 22.5s53.333 -7.5 72 -22.5s32.667 -35.833 42 -62.5s15.666 -57.334 18.999 -92.001s5 -75.334 5 -122.001
c0 -51.333 -2 -95.5 -6 -132.5s-11 -68.167 -21 -93.5l-66 60l-49 -54z" />
    <glyph glyph-name="R" unicode="R" horiz-adv-x="519" 
d="M58 0h88v318h119c14 0 26.5 -1 37.5 -3s21.333 -6.33301 31 -13s17.834 -17.167 24.501 -31.5s11 -33.166 13 -56.499l6 -111c1.33301 -22 4 -43 8 -63s9.33301 -33.333 16 -40h106c-11.333 7.33301 -20 18.5 -26 33.5s-10 41.167 -12 78.5l-6 122
c-2 32 -11.833 59 -29.5 81s-41.5 34.667 -71.5 38v2c38.667 9.33301 66.667 30.666 84 63.999s26 72 26 116c0 56 -16.333 99.833 -49 131.5s-77.334 47.5 -134.001 47.5h-231v-714zM146 642l105 -0.000976562c40.667 0 72.334 -10.167 95.001 -30.5s34 -48.166 34 -83.499
c0 -32 -4.83301 -57.833 -14.5 -77.5s-21.834 -33.667 -36.501 -42s-29.5 -13.5 -44.5 -15.5s-32.167 -3 -51.5 -3h-87v252z" />
    <glyph glyph-name="S" unicode="S" horiz-adv-x="500" 
d="M449 529c-0.666992 66 -17.333 115.67 -50 149.003s-82.667 50 -150 50c-42.667 0 -78 -6.66699 -106 -20s-49.5 -30.333 -64.5 -51s-25.167 -41.834 -30.5 -63.501s-8 -42.5 -8 -62.5c0 -33.333 5.16699 -61.333 15.5 -84s24 -41.167 41 -55.5
s35.167 -25.666 54.5 -33.999s44 -17.5 74 -27.5c25.333 -8.66699 46.166 -16.334 62.499 -23.001s31.333 -15.334 45 -26.001s24.5 -23.834 32.5 -39.501s12 -34.834 12 -57.501c0 -37.333 -11.833 -67.666 -35.5 -90.999s-53.167 -35 -88.5 -35
c-30.667 0 -55.167 4.66699 -73.5 14s-31.833 21.666 -40.5 36.999s-14.167 32 -16.5 50s-3.5 39.667 -3.5 65h-88c0 -80 16 -139.667 48 -179s88 -59 168 -59c27.333 0 54 3.5 80 10.5s49.667 18.667 71 35s38.5 38.333 51.5 66s19.5 61.167 19.5 100.5
c0 33.333 -5.16699 61.333 -15.5 84s-24 41 -41 55s-35.167 25 -54.5 33s-44 17 -74 27c-25.333 8 -46.166 15.333 -62.499 22s-31.333 15 -45 25s-24.5 22.833 -32.5 38.5s-12 34.834 -12 57.501c0 37.333 10.333 66 31 86s49.667 30 87 30c40 0 68.5 -11.167 85.5 -33.5
s25.5 -53.5 25.5 -93.5h88z" />
    <glyph glyph-name="T" unicode="T" horiz-adv-x="463" 
d="M275 636h180v78h-447v-78h179v-636h88v636z" />
    <glyph glyph-name="U" unicode="U" horiz-adv-x="519" 
d="M50 212c0 -74.667 17.166 -131 51.499 -169s86.833 -57 157.5 -57c68.667 0 120.834 20.167 156.501 60.5s53.5 95.5 53.5 165.5v502h-88v-502c0 -52.667 -9 -91.5 -27 -116.5s-49.667 -37.5 -95 -37.5c-42.667 0 -73.5 12.333 -92.5 37s-28.5 63.667 -28.5 117v502h-88
v-502z" />
    <glyph glyph-name="V" unicode="V" horiz-adv-x="462" 
d="M172 0h112l180 714h-92l-140 -613h-2l-140 613h-92z" />
    <glyph glyph-name="W" unicode="W" horiz-adv-x="722" 
d="M150 0h107l103 578h2l98 -578h107l147 714h-88l-109 -584h-2l-101 584h-106l-101 -584h-2l-109 584h-88z" />
    <glyph glyph-name="X" unicode="X" horiz-adv-x="481" 
d="M192 363l-190 -363h92l145 286l142 -286h98l-190 363l178 351h-92l-131 -267l-130 267h-98z" />
    <glyph glyph-name="Y" unicode="Y" horiz-adv-x="462" 
d="M187 280v-280h88v280l189 434h-92l-141 -334l-136 334h-97z" />
    <glyph glyph-name="Z" unicode="Z" horiz-adv-x="463" 
d="M23 0h417v78h-325l321 555v81h-395v-78h303l-321 -562v-74z" />
    <glyph glyph-name="bracketleft" unicode="[" horiz-adv-x="259" 
d="M78 -184h179v66h-101v766h101v66h-179v-898z" />
    <glyph glyph-name="backslash" unicode="\" horiz-adv-x="278" 
d="M222 -14h66l-232 742h-66z" />
    <glyph glyph-name="bracketright" unicode="]" horiz-adv-x="259" 
d="M181 714h-179v-66h101v-766h-101v-66h179v898z" />
    <glyph glyph-name="asciicircum" unicode="^" horiz-adv-x="600" 
d="M47 261h66l187 361l187 -361h66l-229 433h-48z" />
    <glyph glyph-name="underscore" unicode="_" horiz-adv-x="500" 
d="M0 -125h500v50h-500v-50z" />
    <glyph glyph-name="grave" unicode="`" horiz-adv-x="204" 
d="M-16 752l108 -142h60l-70 142h-98z" />
    <glyph glyph-name="a" unicode="a" 
d="M126 374l-0.000976562 4.99902c0 9.33301 0.666992 19 2 29s4.83301 21 10.5 33s15 22.167 28 30.5s30.167 12.5 51.5 12.5c57.333 0 86 -26.333 86 -79c0 -25.333 -3.16699 -43 -9.5 -53s-23.5 -19.333 -51.5 -28l-113 -34c-34 -10 -59.333 -27.667 -76 -53
s-25 -57 -25 -95c0 -49.333 12.167 -87.666 36.5 -114.999s60.833 -41 109.5 -41c25.333 0 49.833 7 73.5 21s42.167 32.667 55.5 56h2c0.666992 -16 3.5 -28.833 8.5 -38.5s11 -16.667 18 -21s14.333 -7 22 -8s16.834 -1.5 27.501 -1.5c8 0 16.333 0.5 25 1.5
s16.334 2.16699 23.001 3.5h1v60c-4.66699 -3.33301 -11.334 -5 -20.001 -5c-11.333 0 -18.5 3.5 -21.5 10.5s-4.5 17.833 -4.5 32.5v299c0 20.667 -1.16699 38.667 -3.5 54s-8.5 30.833 -18.5 46.5s-26.333 28.5 -49 38.5s-53.334 15 -92.001 15
c-63.333 0 -109.166 -14 -137.499 -42s-42.5 -72.667 -42.5 -134h84zM300.999 153.999c0 -27.333 -11.001 -51.1709 -33.001 -71.5039s-47 -30.5 -75 -30.5c-26.667 0 -46 8 -58 24s-18 38.667 -18 68c0 22.667 3.33301 40.334 10 53.001s17 23.334 31 32.001
c10.667 6 30.334 13.667 59.001 23c22 6.66699 39.5 12.834 52.5 18.501s23.5 12.834 31.5 21.501v-138z" />
    <glyph glyph-name="b" unicode="b" horiz-adv-x="463" 
d="M134 268c0 28.667 1.5 55.332 4.5 79.999s8.5 46.667 16.5 66s19.167 34.833 33.5 46.5s32.166 17.5 53.499 17.5c36.667 0 62.167 -17.667 76.5 -53s21.5 -87.666 21.5 -156.999c0 -67.333 -7.16699 -119.166 -21.5 -155.499s-39.833 -54.5 -76.5 -54.5
c-21.333 0 -39.166 5.5 -53.499 16.5s-25.5 26.167 -33.5 45.5s-13.5 41.166 -16.5 65.499s-4.5 51.833 -4.5 82.5zM55 -0.00195312l80.001 0.00292969v66h2c6 -21.333 19.833 -40 41.5 -56s46.5 -24 74.5 -24c30 0 56.167 7.33301 78.5 22s40.666 35 54.999 61
s24.833 56 31.5 90s10 70.333 10 109c0 33.333 -2 65.666 -6 96.999s-11.667 61.166 -23 89.499s-28 51.333 -50 69s-50 26.5 -84 26.5c-27.333 0 -52.5 -6.83301 -75.5 -20.5s-39.167 -31.834 -48.5 -54.501h-2v239h-84v-714z" />
    <glyph glyph-name="c" unicode="c" horiz-adv-x="426" 
d="M394 373c0 18.667 -2.33691 37.8369 -7.00391 57.5039s-13.167 38.667 -25.5 57s-30 33.333 -53 45s-51.5 17.5 -85.5 17.5c-39.333 0 -71.833 -8.33301 -97.5 -25s-45.167 -38.834 -58.5 -66.501s-22.5 -57.834 -27.5 -90.501s-7.5 -68.334 -7.5 -107.001
c0 -93.333 14.833 -162.5 44.5 -207.5s76.834 -67.5 141.501 -67.5c32 0 59.333 6.16699 82 18.5s40.834 28.333 54.501 48s23.667 41 30 64s9.5 46.167 9.5 69.5h-84c0 -16 -1.33301 -31.667 -4 -47s-7.16699 -29.666 -13.5 -42.999s-15.333 -24 -27 -32
s-26.167 -12 -43.5 -12c-23.333 0 -42.166 7 -56.499 21s-24.666 32 -30.999 54s-10.333 43.5 -12 64.5s-2.5 44.5 -2.5 70.5c0 46.667 2.83301 85 8.5 115s13.5 52.667 23.5 68s21 25.666 33 30.999s25.333 8 40 8c29.333 0 50.833 -10.833 64.5 -32.5
s20.5 -47.834 20.5 -78.501h84z" />
    <glyph glyph-name="d" unicode="d" horiz-adv-x="463" 
d="M123 268c0 69.333 7.16895 121.669 21.502 157.002s39.833 53 76.5 53c21.333 0 39.166 -5.83301 53.499 -17.5s25.5 -27.167 33.5 -46.5s13.5 -41.333 16.5 -66s4.5 -51.334 4.5 -80.001c0 -33.333 -1.33301 -62.5 -4 -87.5s-7.83398 -46.667 -15.501 -65
s-18.667 -32.5 -33 -42.5s-32.833 -15 -55.5 -15c-36.667 0 -62.167 17.667 -76.5 53s-21.5 87.666 -21.5 156.999zM408.002 714.003l-84.001 -0.00195312v-239h-2c-9.33301 22.667 -25.166 40.834 -47.499 54.501s-45.833 20.5 -70.5 20.5
c-35.333 0 -64.5 -8.83301 -87.5 -26.5s-40.333 -40.5 -52 -68.5s-19.5 -57.833 -23.5 -89.5s-6 -64.167 -6 -97.5c0 -89.333 14 -158.666 42 -207.999s72.333 -74 133 -74c28 0 52.833 8 74.5 24s35.5 34.667 41.5 56h2v-66h80v714z" />
    <glyph glyph-name="e" unicode="e" 
d="M128 324l0.000976562 19.999c0 11.333 1.16699 24.5 3.5 39.5s6.83301 30.167 13.5 45.5s16.667 28.333 30 39s30.333 16 51 16c17.333 0 32.166 -3.83301 44.499 -11.5s22 -17.667 29 -30s12 -26.166 15 -41.499s4.5 -31.333 4.5 -48v-29h-191zM407.001 257.999
l-0.00488281 34.0068c0 35.333 -1.83301 67.166 -5.5 95.499s-11.667 55 -24 80s-30.666 45 -54.999 60s-55.833 22.5 -94.5 22.5c-39.333 0 -71.833 -8.33301 -97.5 -25s-45.167 -38.834 -58.5 -66.501s-22.5 -57.834 -27.5 -90.501s-7.5 -68.334 -7.5 -107.001
c0 -93.333 14.833 -162.5 44.5 -207.5s76.834 -67.5 141.501 -67.5c34.667 0 63.834 6.66699 87.501 20s42.167 30.166 55.5 50.499s22.833 41.166 28.5 62.499s8.5 40.333 8.5 57h-84c0 -12.667 -1.16699 -25.834 -3.5 -39.501s-6.66602 -26.834 -12.999 -39.501
s-15.666 -23.334 -27.999 -32.001s-27.833 -13 -46.5 -13c-24 0 -43.167 6.33301 -57.5 19s-24.833 29.334 -31.5 50.001s-10.667 41.334 -12 62.001s-2 45.667 -2 75h282z" />
    <glyph glyph-name="f" unicode="f" horiz-adv-x="259" 
d="M80 0l84 -0.000976562v470h92v66h-92v63c0 34 18 51 54 51h39v72h-61c-40 0 -69.333 -10.167 -88 -30.5s-28 -51.166 -28 -92.499v-63h-78v-66h78v-470z" />
    <glyph glyph-name="g" unicode="g" horiz-adv-x="463" 
d="M221 478c21.333 0 39.167 -5.83008 53.5 -17.4971s25.5 -27.167 33.5 -46.5s13.5 -41.333 16.5 -66s4.5 -51.334 4.5 -80.001c0 -30 -1.5 -56.5 -4.5 -79.5s-8.5 -43.333 -16.5 -61s-19.167 -31.334 -33.5 -41.001s-32.5 -14.5 -54.5 -14.5
c-20 0 -36.5 5.83301 -49.5 17.5s-23 27 -30 46s-11.667 39.5 -14 61.5s-3.5 45.667 -3.5 71c0 69.333 7.16699 121.666 21.5 156.999s39.833 53 76.5 53zM408.001 536.003l-79.9961 -0.000976562v-68h-2c-6 22 -19.833 41.167 -41.5 57.5s-46.5 24.5 -74.5 24.5
c-32.667 0 -60.334 -7.5 -83.001 -22.5s-40.834 -35.667 -54.501 -62s-23.334 -56.166 -29.001 -89.499s-8.5 -69.333 -8.5 -108c0 -25.333 1.66699 -52 5 -80s10.5 -56.5 21.5 -85.5s28 -53.333 51 -73s52.5 -29.5 88.5 -29.5c27.333 0 52.166 6.5 74.499 19.5
s37.833 30.5 46.5 52.5h2v-70c0 -16 -0.833008 -30.333 -2.5 -43s-5.83398 -25 -12.501 -37s-17.167 -21.667 -31.5 -29s-33.5 -11 -57.5 -11s-43.833 5.5 -59.5 16.5s-24.5 28.167 -26.5 51.5h-84c3.33301 -31.333 12.333 -56.333 27 -75s31.334 -32.167 50.001 -40.5
s36.167 -13.5 52.5 -15.5s31.833 -3 46.5 -3c57.333 0 102 17.167 134 51.5s48 89.833 48 166.5v502z" />
    <glyph glyph-name="h" unicode="h" horiz-adv-x="463" 
d="M55 0l83.999 -0.000976562v370c0 36 11 63 33 81s46.333 27 73 27c18 0 32.5 -3.5 43.5 -10.5s19 -15.833 24 -26.5s8.16699 -21.667 9.5 -33s2 -24 2 -38v-370h84v380c0 22.667 -1 42.667 -3 60s-7.16699 34.5 -15.5 51.5s-22.166 31 -41.499 42s-45.333 16.5 -78 16.5
c-24.667 0 -49.667 -7.16699 -75 -21.5s-43.333 -32.166 -54 -53.499h-2v239h-84v-714z" />
    <glyph glyph-name="i" unicode="i" horiz-adv-x="204" 
d="M60 0h84v536h-84v-536zM60 618h84v96h-84v-96z" />
    <glyph glyph-name="j" unicode="j" horiz-adv-x="204" 
d="M144 536l-84 -0.000976562v-558c0 -32 -2.83301 -55 -8.5 -69s-20.167 -21 -43.5 -21c-4.66699 0 -11.667 0.666992 -21 2l-10 1v-72l13 -1c11.333 -1.33301 20 -2 26 -2c44.667 0 77.167 10.833 97.5 32.5s30.5 54.834 30.5 99.501v588zM144 713.999h-84v-96h84v96z" />
    <glyph glyph-name="k" unicode="k" 
d="M264 334l163 202h-98l-188 -247h-2v425h-84v-714h84v181l69 84l149 -265h98z" />
    <glyph glyph-name="l" unicode="l" horiz-adv-x="204" 
d="M60 0h84v714h-84v-714z" />
    <glyph glyph-name="m" unicode="m" horiz-adv-x="722" 
d="M63 0l84.001 0.00195312v370c0 20 3.16699 37 9.5 51s14.5 25.167 24.5 33.5s20.833 14.333 32.5 18s22.834 5.5 33.501 5.5c16 0 29 -3.5 39 -10.5s17.333 -15.833 22 -26.5s7.66699 -21.834 9 -33.501s2 -24.167 2 -37.5v-370h84v370c0 20 3.16699 37 9.5 51
s14.5 25.167 24.5 33.5s20.833 14.333 32.5 18s22.834 5.5 33.501 5.5c16 0 29 -3.5 39 -10.5s17.333 -15.833 22 -26.5s7.66699 -21.834 9 -33.501s2 -24.167 2 -37.5v-370h84v380c0 22.667 -1 42.667 -3 60s-7.33301 34.5 -16 51.5s-22.834 31 -42.501 42
s-46.167 16.5 -79.5 16.5c-26.667 0 -51.334 -8 -74.001 -24s-40.334 -36.333 -53.001 -61c-8.66699 30 -22.334 51.667 -41.001 65s-43.667 20 -75 20c-27.333 0 -53.166 -6.83301 -77.499 -20.5s-41.833 -32.5 -52.5 -56.5h-2v63h-80v-536z" />
    <glyph glyph-name="n" unicode="n" horiz-adv-x="463" 
d="M55 0h84v370c0 36 11 63 33 81s46.333 27 73 27c18 0 32.5 -3.5 43.5 -10.5s19 -15.833 24 -26.5s8.16699 -21.667 9.5 -33s2 -24 2 -38v-370h84v380c0 22.667 -1 42.667 -3 60s-7.33301 34.5 -16 51.5s-22.834 31 -42.501 42s-46.167 16.5 -79.5 16.5
c-27.333 0 -53.166 -6.83301 -77.499 -20.5s-41.833 -32.5 -52.5 -56.5h-2v63h-80v-536z" />
    <glyph glyph-name="o" unicode="o" 
d="M29 268c0 -40.667 3 -77.667 9 -111s16.167 -62.833 30.5 -88.5s34.166 -45.834 59.499 -60.501s56.666 -22 93.999 -22s68.5 7.33301 93.5 22s44.833 34.834 59.5 60.501s25 55.167 31 88.5s9 70.333 9 111s-3 77.667 -9 111s-16.167 62.833 -30.5 88.5
s-34.166 45.834 -59.499 60.501s-56.666 22 -93.999 22s-68.5 -7.33301 -93.5 -22s-44.833 -34.834 -59.5 -60.501s-25 -55.167 -31 -88.5s-9 -70.333 -9 -111zM220 52c-20.667 0 -37.835 5.66992 -51.502 17.0029s-24.167 26.666 -31.5 45.999s-12.5 41.833 -15.5 67.5
s-4.5 54.167 -4.5 85.5c0 32 1.5 60.667 4.5 86s8.16699 47.666 15.5 66.999s17.833 34.666 31.5 45.999s30.834 17 51.501 17c22 0 40 -5.5 54 -16.5s24.833 -26.333 32.5 -46s13 -42.167 16 -67.5s4.5 -54 4.5 -86s-1.5 -60.667 -4.5 -86s-8.33301 -47.833 -16 -67.5
s-18.667 -35 -33 -46s-32.166 -16.5 -53.499 -16.5z" />
    <glyph glyph-name="p" unicode="p" horiz-adv-x="463" 
d="M134 268c0 33.333 1.33105 62.499 3.99805 87.499s7.83398 46.667 15.501 65s18.667 32.5 33 42.5s32.833 15 55.5 15c36.667 0 62.167 -17.167 76.5 -51.5s21.5 -83.833 21.5 -148.5c0 -74 -7.16699 -129.167 -21.5 -165.5s-39.833 -54.5 -76.5 -54.5
c-21.333 0 -39.166 5.83301 -53.499 17.5s-25.5 27.167 -33.5 46.5s-13.5 41.333 -16.5 66s-4.5 51.334 -4.5 80.001zM54.998 -176.001l84 0.000976562v237h2c9.33301 -22.667 24.333 -40.834 45 -54.501s43 -20.5 67 -20.5c33.333 0 61.333 9 84 27s40.667 41.5 54 70.5
s22.833 60.167 28.5 93.5s8.5 67 8.5 101c0 84.667 -14 151.167 -42 199.5s-72.333 72.5 -133 72.5c-28 0 -52.833 -8 -74.5 -24s-35.5 -34.667 -41.5 -56h-2v66h-80v-712z" />
    <glyph glyph-name="q" unicode="q" horiz-adv-x="463" 
d="M329 268c0 -28.667 -1.50195 -55.166 -4.50195 -79.499s-8.5 -46.333 -16.5 -66s-19.167 -35.334 -33.5 -47.001s-32.166 -17.5 -53.499 -17.5c-36.667 0 -62.167 18.167 -76.5 54.5s-21.5 91.5 -21.5 165.5c0 64.667 7.16699 114.167 21.5 148.5s39.833 51.5 76.5 51.5
c22.667 0 41.167 -5 55.5 -15s25.333 -24.167 33 -42.5s12.834 -40 15.501 -65s4 -54.167 4 -87.5zM323.998 -175.999l84 -0.000976562v712h-80v-66h-2c-6 21.333 -19.833 40 -41.5 56s-46.5 24 -74.5 24c-60.667 0 -105 -24.167 -133 -72.5s-42 -114.833 -42 -199.5
c0 -40 2.83301 -77 8.5 -111s15 -64.667 28 -92s31 -49 54 -65s51.167 -24 84.5 -24c24 0 46.333 6.83301 67 20.5s35.667 31.834 45 54.501h2v-237z" />
    <glyph glyph-name="r" unicode="r" horiz-adv-x="296" 
d="M55 0h84v339c0 20.667 3.5 39.167 10.5 55.5s16.167 29.833 27.5 40.5s23.333 18.5 36 23.5s24.667 7.5 36 7.5c14 0 27 -1 39 -3c2.66699 -0.666992 4.66699 -1 6 -1v82c-8 4 -20.333 6 -37 6c-27.333 0 -50 -8.33301 -68 -25s-34 -39.667 -48 -69h-2v80h-84v-536z" />
    <glyph glyph-name="s" unicode="s" horiz-adv-x="407" 
d="M369 379c0 21.333 -1.50098 41.0059 -4.50098 59.0059s-9.83301 35.667 -20.5 53s-27.167 31.5 -49.5 42.5s-51.833 16.5 -88.5 16.5c-49.333 0 -90.166 -12.667 -122.499 -38s-48.5 -62 -48.5 -110c0 -26 3.5 -47.5 10.5 -64.5s16.167 -30.833 27.5 -41.5
s23.666 -18.834 36.999 -24.501s30.333 -12.167 51 -19.5l6 -2c2.66699 -0.666992 8.33398 -2.33398 17.001 -5.00098c38.667 -12.667 65 -24.334 79 -35.001c11.333 -8 20 -17.5 26 -28.5s9 -24.5 9 -40.5c0 -18 -3.16699 -32.833 -9.5 -44.5
s-14.166 -20.834 -23.499 -27.501s-18.833 -11.167 -28.5 -13.5s-18.834 -3.5 -27.501 -3.5c-37.333 0 -63.333 11.167 -78 33.5s-22 52.5 -22 90.5h-84c0 -20.667 1.5 -40.667 4.5 -60s10.167 -39 21.5 -59s30 -36.833 56 -50.5s60 -20.5 102 -20.5
c52 0 93.833 14.333 125.5 43s47.5 70.334 47.5 125.001c0 25.333 -3.5 46.666 -10.5 63.999s-16.5 31.166 -28.5 41.499s-25 18.666 -39 24.999s-31.667 13.166 -53 20.499c-5.33301 2 -13.333 4.66699 -24 8c-37.333 11.333 -64.666 22.833 -81.999 34.5
s-26 29.834 -26 54.501c0 17.333 3 31.666 9 42.999s13.667 19.833 23 25.5s18.666 9.33398 27.999 11.001s18.333 2.5 27 2.5c29.333 0 49.833 -8.5 61.5 -25.5s17.5 -43.5 17.5 -79.5h84z" />
    <glyph glyph-name="t" unicode="t" horiz-adv-x="259" 
d="M80 536h-78v-66h78v-370c0 -36.667 7.66699 -63.5 23 -80.5s43.666 -25.5 84.999 -25.5c23.333 0 46 2 68 6v69c-0.666992 0 -2.66699 -0.333008 -6 -1c-11.333 -1.33301 -21.666 -2 -30.999 -2c-21.333 0 -35.833 4.5 -43.5 13.5s-11.5 24.5 -11.5 46.5v344h93v66h-93
v156h-84v-156z" />
    <glyph glyph-name="u" unicode="u" horiz-adv-x="463" 
d="M408 536l-84 -0.000976562v-370c0 -35.333 -11 -62.166 -33 -80.499s-46.333 -27.5 -73 -27.5c-18 0 -32.5 3.5 -43.5 10.5s-19 15.833 -24 26.5s-8.16699 21.667 -9.5 33s-2 24 -2 38v370h-84v-380c0 -22.667 1 -42.667 3 -60s7.33301 -34.5 16 -51.5
s22.834 -31 42.501 -42s46.167 -16.5 79.5 -16.5c27.333 0 53.166 7 77.499 21s41.833 32.667 52.5 56h2v-63h80v536z" />
    <glyph glyph-name="v" unicode="v" horiz-adv-x="406" 
d="M155 0h96l145 536h-92l-100 -430h-2l-100 430h-92z" />
    <glyph glyph-name="w" unicode="w" horiz-adv-x="648" 
d="M135 0h98l90 438h2l94 -438h92l127 536h-88l-83 -438h-2l-89 438h-99l-91 -438h-2l-86 438h-88z" />
    <glyph glyph-name="x" unicode="x" horiz-adv-x="406" 
d="M153 279l-147 -279h92l103 212l107 -212h92l-145 279l140 257h-92l-98 -191l-97 191h-92z" />
    <glyph glyph-name="y" unicode="y" horiz-adv-x="406" 
d="M168 -11l-16 -47c-5.33301 -16.667 -13.166 -29.5 -23.499 -38.5s-24.5 -13.5 -42.5 -13.5c-20.667 0 -37 1 -49 3v-66c1.33301 0 4.33301 -0.333008 9 -1c17.333 -1.33301 34.666 -2 51.999 -2c24 0 44.333 3.66699 61 11s30 17.333 40 30s18 26.667 24 42
s12 34.333 18 57l155 572h-92l-94 -430h-2l-106 430h-92z" />
    <glyph glyph-name="z" unicode="z" horiz-adv-x="389" 
d="M39 464h231l-243 -398v-66h333v72h-238l240 394v70h-323v-72z" />
    <glyph glyph-name="braceleft" unicode="{" horiz-adv-x="259" 
d="M2 235c22.667 0 40.9961 -9.83691 54.9961 -29.5039s21 -46.834 21 -81.501v-178c0 -46 10 -79.167 30 -99.5s46 -30.5 78 -30.5h71v66h-51c-21.333 0 -35.666 9 -42.999 27c-2.66699 6.66699 -4.5 14.334 -5.5 23.001s-1.5 19.334 -1.5 32.001v172
c0 22.667 -3.16699 42.167 -9.5 58.5s-14.5 29.333 -24.5 39s-19.667 16.834 -29 21.501s-17.666 7.66699 -24.999 9v2c6.66699 0.666992 14.834 3.5 24.501 8.5s19.334 12.333 29.001 22s17.834 22.667 24.501 39s10 35.833 10 58.5v172c0 12.667 0.333008 23.334 1 32.001
s2.66699 16.334 6 23.001c7.33301 18 21.666 27 42.999 27h51v66h-71c-32 0 -58 -10.167 -78 -30.5s-30 -53.5 -30 -99.5v-178c0 -34 -7 -61 -21 -81s-32.333 -30 -55 -30v-60z" />
    <glyph glyph-name="bar" unicode="|" horiz-adv-x="222" 
d="M78 -14h66v742h-66v-742z" />
    <glyph glyph-name="braceright" unicode="}" horiz-adv-x="259" 
d="M257 295c-22.667 0 -40.9971 10.0039 -54.9971 30.0039s-21 47 -21 81v178c0 46 -10 79.167 -30 99.5s-46 30.5 -78 30.5h-71v-66h51c22 0 36.333 -9 43 -27c3.33301 -6.66699 5.33301 -14.334 6 -23.001s1 -19.334 1 -32.001v-172c0 -22.667 3.33301 -42.167 10 -58.5
s14.834 -29.333 24.501 -39s19.167 -16.834 28.5 -21.501s17.666 -7.66699 24.999 -9v-2c-6.66699 -0.666992 -14.834 -3.5 -24.501 -8.5s-19.334 -12.333 -29.001 -22s-17.834 -22.667 -24.501 -39s-10 -35.833 -10 -58.5v-172c0 -12.667 -0.333008 -23.334 -1 -32.001
s-2.66699 -16.334 -6 -23.001c-6.66699 -18 -21 -27 -43 -27h-51v-66h71c32 0 58 10.167 78 30.5s30 53.5 30 99.5v178c0 34.667 7 61.834 21 81.501s32.333 29.5 55 29.5v60z" />
    <glyph glyph-name="asciitilde" unicode="~" horiz-adv-x="600" 
d="M98 185c13.333 19.333 28.167 36.332 44.5 50.999s34.5 22 54.5 22c12.667 0 25.167 -2.83301 37.5 -8.5s27.833 -13.834 46.5 -24.501l23 -14c22.667 -12.667 40.667 -20.667 54 -24s30 -5 50 -5c28.667 0 53.667 8.66699 75 26s41.666 40 60.999 68l-42 45
c-13.333 -19.333 -28.166 -36.333 -44.499 -51s-34.5 -22 -54.5 -22c-12.667 0 -25.167 2.83301 -37.5 8.5s-27.833 13.834 -46.5 24.501c-10 6.66699 -17.667 11.334 -23 14.001c-22.667 12.667 -40.667 20.667 -54 24s-30 5 -50 5c-28.667 0 -53.5 -8.5 -74.5 -25.5
s-41.5 -39.5 -61.5 -67.5z" />
    <glyph glyph-name="exclamdown" unicode="&#xa1;" horiz-adv-x="258" 
d="M159 352h-60l-16 -528h92zM175 538h-92v-96h92v96z" />
    <glyph glyph-name="cent" unicode="&#xa2;" horiz-adv-x="480" 
d="M227 52c-18.667 4 -33.5 13.667 -44.5 29s-19 33.5 -24 54.5s-8.16699 41.333 -9.5 61s-2 41.5 -2 65.5c0 39.333 2 73 6 101s9.66699 50.333 17 67s15.833 29.167 25.5 37.5s20.167 13.833 31.5 16.5v-432zM227 -99l42 -0.00292969v85
c27.333 2.66699 50.833 10.5 70.5 23.5s35.5 29.167 47.5 48.5s20.667 40 26 62s8 44 8 66h-84c0 -33.333 -5 -62.5 -15 -87.5s-27.667 -40.5 -53 -46.5v432c23.333 -4 40.5 -16.5 51.5 -37.5s16.5 -45.5 16.5 -73.5h84c0 18 -2.16699 36.5 -6.5 55.5
s-11.833 37.5 -22.5 55.5s-26.167 33 -46.5 45s-45.833 19 -76.5 21v70h-42v-70c-34.667 -3.33301 -63.167 -13.833 -85.5 -31.5s-39.5 -40.167 -51.5 -67.5s-20.167 -56.666 -24.5 -87.999s-6.5 -65.333 -6.5 -102c0 -89.333 13.5 -156.666 40.5 -201.999
s69.5 -69.666 127.5 -72.999v-85z" />
    <glyph glyph-name="sterling" unicode="&#xa3;" horiz-adv-x="480" 
d="M447 505c0 67.333 -17.8359 118 -53.5029 152s-83.834 51 -144.501 51c-58 0 -106 -16 -144 -48s-57 -76 -57 -132c0 -18 3 -36.667 9 -56s14 -39 24 -59l16 -31h-70v-60h95c14 -20.667 21 -46.334 21 -77.001c0 -37.333 -10.667 -69.5 -32 -96.5s-52 -56.833 -92 -89.5
l38 -65l47 22c16 7.33301 32.333 11 49 11c12.667 0 24.834 -1.66699 36.501 -5s25.834 -8 42.501 -14c18.667 -7.33301 34.667 -12.833 48 -16.5s27.666 -5.5 42.999 -5.5c24 0 47.5 4.5 70.5 13.5s45.5 21.167 67.5 36.5l-37 67c-28 -16 -48.833 -26.5 -62.5 -31.5
s-28.5 -7.5 -44.5 -7.5c-12.667 0 -23.834 1.33301 -33.501 4s-20.167 6.33398 -31.5 11.001c-0.666992 0.666992 -1.33398 1 -2.00098 1c-11.333 4.66699 -21.166 8 -29.499 10s-18.166 3 -29.499 3c-12.667 0 -25.667 -2.5 -39 -7.5s-28.666 -11.833 -45.999 -20.5l-2 2
c40.667 34 72 64.833 94 92.5s33 59.167 33 94.5c0 22.667 -5.66699 45.334 -17 68.001h142v60h-164c-17.333 34.667 -31 64.167 -41 88.5s-15 46.5 -15 66.5c0 12.667 2 25 6 37s10.333 23.167 19 33.5s20.334 18.666 35.001 24.999s32.334 9.5 53.001 9.5
c40 0 69 -12.667 87 -38s27 -58.333 27 -99h84z" />
    <glyph glyph-name="currency" unicode="&#xa4;" horiz-adv-x="480" 
d="M92 347c0 43.333 14.333 79.833 43 109.5s63.667 44.5 105 44.5s76.333 -14.833 105 -44.5s43 -66.167 43 -109.5s-14.333 -79.833 -43 -109.5s-63.667 -44.5 -105 -44.5s-76.333 14.833 -105 44.5s-43 66.167 -43 109.5zM18 167l42 -42l47 47c40 -30 84.333 -45 133 -45
c50 0 94 15.333 132 46l48 -48l42 42l-48 48c30.667 38 46 82 46 132s-15 94 -45 132l47 47l-43 43l-47 -47c-38.667 30 -82.667 45 -132 45c-50 0 -94 -15 -132 -45l-47 47l-43 -43l47 -47c-30 -39.333 -45 -83.333 -45 -132s15 -93 45 -133z" />
    <glyph glyph-name="yen" unicode="&#xa5;" horiz-adv-x="480" 
d="M200 0h84v153h147v60h-147v60l10 22h137v60h-110l150 339h-88l-141 -324l-136 324h-97l154 -339h-110v-60h137l10 -22v-60h-147v-60h147v-153z" />
    <glyph glyph-name="brokenbar" unicode="&#xa6;" horiz-adv-x="222" 
d="M78 -14h66v294h-66v-294zM78 434h66v294h-66v-294z" />
    <glyph glyph-name="section" unicode="&#xa7;" horiz-adv-x="482" 
d="M413 578l-0.00292969 1c-1.33301 16 -4 31.5 -8 46.5s-11.833 30.5 -23.5 46.5s-29.334 29.333 -53.001 40s-54.167 16 -91.5 16c-46.667 0 -87.167 -12.833 -121.5 -38.5s-51.5 -61.5 -51.5 -107.5c0 -23.333 5.83301 -46 17.5 -68s27.167 -39.333 46.5 -52
c-33.333 -21.333 -58 -42 -74 -62s-24 -46.667 -24 -80c0 -29.333 10 -56.166 30 -80.499s45.667 -46.166 77 -65.499l113 -70c25.333 -16 45.5 -32.333 60.5 -49s22.5 -36 22.5 -58c0 -8 -1.16699 -16.833 -3.5 -26.5s-6.66602 -18.834 -12.999 -27.501
s-15.166 -16 -26.499 -22s-25.666 -9 -42.999 -9c-32 0 -56.5 10 -73.5 30s-25.5 46 -25.5 78h-84c0 -19.333 2.83301 -38.833 8.5 -58.5s15.334 -38.334 29.001 -56.001s32.5 -32 56.5 -43s53.667 -16.5 89 -16.5c48 0 89 13.833 123 41.5s51 65.5 51 113.5
c0 26 -4.83301 50.167 -14.5 72.5s-24.167 39.5 -43.5 51.5c26.667 18 48.167 39.333 64.5 64s24.5 52.334 24.5 83.001c0 36 -10 65.5 -30 88.5s-50 46.833 -90 71.5l-100 60c-25.333 16 -45 31 -59 45s-21 30.667 -21 50s7.33301 36.666 22 51.999s35.667 23 63 23
c24.667 0 45.5 -7.5 62.5 -22.5s25.5 -35.5 25.5 -61.5h88zM183.997 245c-22 13.333 -39.167 26.667 -51.5 40s-18.5 28.666 -18.5 45.999c0 20.667 5.83301 37.834 17.5 51.501s27.167 27.834 46.5 42.501c0.666992 0.666992 1.66699 1.33398 3 2.00098l110 -68
c23.333 -14 42 -29.333 56 -46s21 -35.334 21 -56.001c0 -23.333 -6 -42.833 -18 -58.5s-25.333 -27.834 -40 -36.501l-60 41z" />
    <glyph glyph-name="dieresis" unicode="&#xa8;" horiz-adv-x="204" 
d="M-18 634h78v101h-78v-101zM144 634h78v101h-78v-101z" />
    <glyph glyph-name="copyright" unicode="&#xa9;" horiz-adv-x="800" 
d="M543 279c-5.33301 -27.333 -20.5 -50 -45.5 -68s-55.5 -27 -91.5 -27c-46 0 -83 16.333 -111 49s-42 73 -42 121s14 88.333 42 121s65 49 111 49c36 0 66.5 -9 91.5 -27s40.167 -40.667 45.5 -68h60c-6.66699 50 -28.167 88.333 -64.5 115s-80.5 40 -132.5 40
c-67.333 0 -120.666 -21.167 -159.999 -63.5s-59 -97.833 -59 -166.5s19.667 -124.167 59 -166.5s92.666 -63.5 159.999 -63.5c52 0 96.167 13.5 132.5 40.5s57.833 65.167 64.5 114.5h-60zM29 357c0 -50.667 9.5 -98.5 28.5 -143.5s45.667 -84.667 80 -119s74 -61 119 -80
s92.833 -28.5 143.5 -28.5s98.5 9.5 143.5 28.5s84.667 45.667 119 80s61 74 80 119s28.5 92.833 28.5 143.5s-9.5 98.5 -28.5 143.5s-45.667 84.667 -80 119s-74 61 -119 80s-92.833 28.5 -143.5 28.5s-98.5 -9.5 -143.5 -28.5s-84.667 -45.667 -119 -80s-61 -74 -80 -119
s-28.5 -92.833 -28.5 -143.5zM400 46c-41.333 0 -80.499 8 -117.499 24s-69.667 38.333 -98 67s-50.333 62 -66 100s-23.5 78 -23.5 120c0 42.667 7.83301 82.834 23.5 120.501s37.5 70.834 65.5 99.501s60.667 51 98 67s76.666 24 117.999 24s80.666 -8 117.999 -24
s70 -38.333 98 -67s49.833 -61.834 65.5 -99.501s23.5 -77.834 23.5 -120.501c0 -42 -7.83301 -82 -23.5 -120s-37.5 -71.333 -65.5 -100s-60.667 -51 -98 -67s-76.666 -24 -117.999 -24z" />
    <glyph glyph-name="ordfeminine" unicode="&#xaa;" horiz-adv-x="289" 
d="M251 612c0 12.667 -0.666992 23.8311 -2 33.498s-5.33301 19.334 -12 29.001s-17.5 17.667 -32.5 24s-34.833 9.5 -59.5 9.5c-46 0 -78.667 -8.5 -98 -25.5s-29 -45.167 -29 -84.5h60v4c0 5.33301 0.5 10.666 1.5 15.999s3.33301 11.333 7 18s9.5 12.334 17.5 17.001
s19 7 33 7c36 0 54 -14.333 54 -43c0 -13.333 -2 -22.833 -6 -28.5s-14.667 -11.167 -32 -16.5l-73 -20c-48 -13.333 -72 -44 -72 -92c0 -28 8.33301 -50.5 25 -67.5s40 -25.5 70 -25.5c19.333 0 36.833 4.16699 52.5 12.5s27.5 19.5 35.5 33.5h2
c0.666992 -16 5.66699 -27.667 15 -35s21 -11 35 -11c17.333 0 30 1 38 3v42c-4 -2 -8.33301 -3 -13 -3c-7.33301 0 -12 2.33301 -14 7s-3 11.334 -3 20.001v176zM191 469.997c0 -13.333 -7.33496 -25.832 -22.002 -37.499s-31 -17.5 -49 -17.5
c-16 0 -27.667 4.66699 -35 14s-11 21 -11 35c0 12 1.83301 21.167 5.5 27.5s9.83398 12.166 18.501 17.499c7.33301 4.66699 21.333 10 42 16c14 4 24.833 7.5 32.5 10.5s13.834 6.83301 18.501 11.5v-77z" />
    <glyph glyph-name="guillemotleft" unicode="&#xab;" horiz-adv-x="389" 
d="M198 245l142 -143v88l-94 94l94 94v88l-142 -143v-78zM49 245l142 -143v88l-94 94l94 94v88l-142 -143v-78z" />
    <glyph glyph-name="logicalnot" unicode="&#xac;" horiz-adv-x="600" 
d="M487 106h66v282h-506v-66h440v-216z" />
    <glyph glyph-name="minus" unicode="&#xad;" horiz-adv-x="600" 
d="M47 220h506v66h-506v-66z" />
    <glyph glyph-name="minus" unicode="&#x2212;" horiz-adv-x="600" 
d="M47 220h506v66h-506v-66z" />
    <glyph glyph-name="registered" unicode="&#xae;" horiz-adv-x="800" 
d="M252 138l66.001 -0.000976562v182h71l120 -182h66l-124 187c35.333 4 63.666 15.833 84.999 35.5s32 47.834 32 84.501c0 84.667 -49.333 127 -148 127h-168v-434zM318.001 379.999l-0.000976562 131.997h90c28.667 0 51.5 -4.16699 68.5 -12.5s25.5 -25.5 25.5 -51.5
c0 -15.333 -2.83301 -27.666 -8.5 -36.999s-13.667 -16.166 -24 -20.499s-21.666 -7.16602 -33.999 -8.49902s-27.833 -2 -46.5 -2h-71zM29 356.996c0 -50.667 9.5 -98.5 28.5 -143.5s45.667 -84.667 80 -119s74 -61 119 -80s92.833 -28.5 143.5 -28.5s98.5 9.5 143.5 28.5
s84.667 45.667 119 80s61 74 80 119s28.5 92.833 28.5 143.5s-9.5 98.5 -28.5 143.5s-45.667 84.667 -80 119s-74 61 -119 80s-92.833 28.5 -143.5 28.5s-98.5 -9.5 -143.5 -28.5s-84.667 -45.667 -119 -80s-61 -74 -80 -119s-28.5 -92.833 -28.5 -143.5zM400 45.9961
c-41.333 0 -80.499 8 -117.499 24s-69.667 38.333 -98 67s-50.333 62 -66 100s-23.5 78 -23.5 120c0 42.667 7.83301 82.834 23.5 120.501s37.5 70.834 65.5 99.501s60.667 51 98 67s76.666 24 117.999 24s80.666 -8 117.999 -24s70 -38.333 98 -67
s49.833 -61.834 65.5 -99.501s23.5 -77.834 23.5 -120.501c0 -42 -7.83301 -82 -23.5 -120s-37.5 -71.333 -65.5 -100s-60.667 -51 -98 -67s-76.666 -24 -117.999 -24z" />
    <glyph glyph-name="macron" unicode="&#xaf;" horiz-adv-x="204" 
d="M-30 655h264v54h-264v-54z" />
    <glyph glyph-name="degree" unicode="&#xb0;" horiz-adv-x="400" 
d="M51 559c0 -43.333 14 -79 42 -107s63.667 -42 107 -42s79 14 107 42s42 63.667 42 107s-14 79 -42 107s-63.667 42 -107 42s-79 -14 -107 -42s-42 -63.667 -42 -107zM105 559c0 26 9.33301 48.333 28 67s41 28 67 28s48.333 -9.33301 67 -28s28 -41 28 -67
s-9.33301 -48.333 -28 -67s-41 -28 -67 -28s-48.333 9.33301 -67 28s-28 41 -28 67z" />
    <glyph glyph-name="plusminus" unicode="&#xb1;" horiz-adv-x="600" 
d="M47 295h220v-145h66v145h220v66h-220v145h-66v-145h-220v-66zM47 0h506v66h-506v-66z" />
    <glyph glyph-name="twosuperior" unicode="&#xb2;" horiz-adv-x="312" 
d="M282 280l0.000976562 59.999h-180c8 23.333 23.667 44.333 47 63l62 50c28.667 22.667 49.334 44 62.001 64s19 45.667 19 77c0 36.667 -12.167 64.834 -36.5 84.501s-56.5 29.5 -96.5 29.5c-49.333 0 -84.833 -12.167 -106.5 -36.5s-32.5 -57.5 -32.5 -99.5h72
c0 8.66699 0.666992 17 2 25s4.16602 16 8.49902 24s10.666 14.5 18.999 19.5s19.166 7.5 32.499 7.5c22.667 0 39.334 -5.33301 50.001 -16s16 -25.334 16 -44.001c0 -22 -5 -40.5 -15 -55.5s-25.667 -30.833 -47 -47.5l-37 -30c-30.667 -25.333 -55 -51.666 -73 -78.999
s-27 -59.333 -27 -96h261z" />
    <glyph glyph-name="threesuperior" unicode="&#xb3;" horiz-adv-x="312" 
d="M116 474l27.999 0.00390625c26.667 0 46.667 -6.5 60 -19.5s20 -31.167 20 -54.5c0 -25.333 -6.83301 -43.833 -20.5 -55.5s-28.834 -17.5 -45.501 -17.5c-23.333 0 -40.833 7 -52.5 21s-17.5 30 -17.5 48h-72v-5c0 -8 1.66699 -18 5 -30s9.83301 -24.833 19.5 -38.5
s24.334 -25.334 44.001 -35.001s44.834 -14.5 75.501 -14.5c45.333 0 79.333 11.667 102 35s34 55.333 34 96c0 28.667 -8.5 51.167 -25.5 67.5s-40.5 26.833 -70.5 31.5v2c26.667 5.33301 47.334 16.5 62.001 33.5s22 36.5 22 58.5c0 13.333 -1.83301 26.333 -5.5 39
s-10.167 24.5 -19.5 35.5s-22.166 19.833 -38.499 26.5s-36.833 10 -61.5 10c-47.333 0 -81.833 -10.833 -103.5 -32.5s-32.5 -51.834 -32.5 -90.501h72c0 7.33301 0.666992 14.666 2 21.999s4.16602 14.666 8.49902 21.999s10.666 13.333 18.999 18s19.166 7 32.499 7
c18 0 31.667 -5.5 41 -16.5s14 -24.5 14 -40.5c0 -20 -6.16699 -36.5 -18.5 -49.5s-30.166 -19.5 -53.499 -19.5h-24v-54z" />
    <glyph glyph-name="acute" unicode="&#xb4;" horiz-adv-x="204" 
d="M52 610h60l108 142h-98z" />
    <glyph glyph-name="mu" unicode="&#xb5;" horiz-adv-x="463" 
d="M408 536l-83.999 -0.000976562v-370c0 -35.333 -11 -62.166 -33 -80.499s-46.333 -27.5 -73 -27.5c-18 0 -32.5 3.5 -43.5 10.5s-19 15.833 -24 26.5s-8.16699 21.667 -9.5 33s-2 24 -2 38v370h-84v-712h84v176c12 -9.33301 31 -14 57 -14c27.333 0 53.166 7 77.499 21
s41.833 32.667 52.5 56h2v-63h80v536z" />
    <glyph glyph-name="paragraph" unicode="&#xb6;" horiz-adv-x="556" 
d="M411 -140l65.999 -0.00195312v854h-205c-71.333 0 -128.5 -18.333 -171.5 -55s-64.5 -87 -64.5 -151c0 -26 5.16699 -50.167 15.5 -72.5s24.833 -42.166 43.5 -59.499s40.834 -30.666 66.501 -39.999s53.5 -14 83.5 -14v-462h66v800h100v-800z" />
    <glyph glyph-name="periodcentered" unicode="&#xb7;" horiz-adv-x="240" 
d="M64 327c0 -15.333 5.5 -28.5 16.5 -39.5s24.167 -16.5 39.5 -16.5s28.5 5.5 39.5 16.5s16.5 24.167 16.5 39.5s-5.5 28.5 -16.5 39.5s-24.167 16.5 -39.5 16.5s-28.5 -5.5 -39.5 -16.5s-16.5 -24.167 -16.5 -39.5z" />
    <glyph glyph-name="periodcentered" unicode="&#x2219;" horiz-adv-x="240" 
d="M64 327c0 -15.333 5.5 -28.5 16.5 -39.5s24.167 -16.5 39.5 -16.5s28.5 5.5 39.5 16.5s16.5 24.167 16.5 39.5s-5.5 28.5 -16.5 39.5s-24.167 16.5 -39.5 16.5s-28.5 -5.5 -39.5 -16.5s-16.5 -24.167 -16.5 -39.5z" />
    <glyph glyph-name="cedilla" unicode="&#xb8;" horiz-adv-x="204" 
d="M-1 -192c10.667 -6 25 -10.833 43 -14.5s36.667 -5.5 56 -5.5c28.667 0 53.667 8.16699 75 24.5s32 36.833 32 61.5c0 25.333 -8.33301 44.333 -25 57s-35 19 -55 19c-3.33301 0 -8.33301 -0.666992 -15 -2s-11.667 -2.66602 -15 -3.99902l-2 2l41 60h-42l-59 -87l15 -18
c6 4.66699 18.667 7 38 7c12.667 0 23.667 -3.5 33 -10.5s14 -15.833 14 -26.5c0 -12 -4.33301 -21.833 -13 -29.5s-22.667 -11.5 -42 -11.5c-7.33301 0 -19 1.66699 -35 5s-25.667 5.66602 -29 6.99902z" />
    <glyph glyph-name="onesuperior" unicode="&#xb9;" horiz-adv-x="312" 
d="M128 280h66v428h-49c-0.666992 -27.333 -11 -45.333 -31 -54s-47.333 -13 -82 -13v-48h96v-313z" />
    <glyph glyph-name="ordmasculine" unicode="&#xba;" horiz-adv-x="289" 
d="M143 708c-24.667 0 -45.334 -4.50098 -62.001 -13.501s-29.667 -21.333 -39 -37s-16 -33.5 -20 -53.5s-6 -41.667 -6 -65c0 -24 2 -46.167 6 -66.5s10.667 -38.5 20 -54.5s22.333 -28.5 39 -37.5s37.334 -13.5 62.001 -13.5c25.333 0 46.5 4.5 63.5 13.5
s30.333 21.5 40 37.5s16.5 34.167 20.5 54.5s6 42.5 6 66.5s-2 45.833 -6 65.5s-10.833 37.334 -20.5 53.001s-23 28 -40 37s-38.167 13.5 -63.5 13.5zM143 414.999c-22.667 0 -38.499 11.667 -47.499 35s-13.5 53 -13.5 89c0 34.667 4.66699 63.5 14 86.5s25 34.5 47 34.5
c12.667 0 23.167 -3.33301 31.5 -10s15.166 -16.334 20.499 -29.001c8 -19.333 12 -46.666 12 -81.999c0 -36 -4.66699 -65.667 -14 -89s-26 -35 -50 -35z" />
    <glyph glyph-name="guillemotright" unicode="&#xbb;" horiz-adv-x="389" 
d="M340 323l-142 143v-88l94 -94l-94 -94v-88l142 143v78zM191 323l-142 143v-88l94 -94l-94 -94v-88l142 143v78z" />
    <glyph glyph-name="onequarter" unicode="&#xbc;" horiz-adv-x="721" 
d="M454 153l110 185h2v-185h-112zM400 159v-60h166v-99h66v99h47v54h-47v275h-72zM93 -31h60l434 756h-60zM32 593h96v-313h66v428h-49c-0.666992 -27.333 -11 -45.333 -31 -54s-47.333 -13 -82 -13v-48z" />
    <glyph glyph-name="onehalf" unicode="&#xbd;" horiz-adv-x="721" 
d="M74 -31h60l434 756h-60zM30 593h96v-313h66v428h-49c-0.666992 -27.333 -11 -45.333 -31 -54s-47.333 -13 -82 -13v-48zM681 0l0.000976562 59.999h-180c8 23.333 23.667 44.333 47 63l62 50c28.667 22.667 49.334 44 62.001 64s19 45.667 19 77
c0 36.667 -12.167 64.834 -36.5 84.501s-56.5 29.5 -96.5 29.5c-49.333 0 -84.833 -12.167 -106.5 -36.5s-32.5 -57.5 -32.5 -99.5h72c0 8.66699 0.666992 17 2 25s4.16602 16 8.49902 24s10.666 14.5 18.999 19.5s19.166 7.5 32.499 7.5
c22.667 0 39.334 -5.33301 50.001 -16s16 -25.334 16 -44.001c0 -22 -5 -40.5 -15 -55.5s-25.667 -30.833 -47 -47.5l-37 -30c-30.667 -25.333 -55 -51.666 -73 -78.999s-27 -59.333 -27 -96h261z" />
    <glyph glyph-name="threequarters" unicode="&#xbe;" horiz-adv-x="721" 
d="M476 153l110 185h2v-185h-112zM422 159v-60h166v-99h66v99h47v54h-47v275h-72zM145 -31h60l434 756h-60zM120 474l27.999 0.00390625c26.667 0 46.667 -6.5 60 -19.5s20 -31.167 20 -54.5c0 -25.333 -6.83301 -43.833 -20.5 -55.5s-28.834 -17.5 -45.501 -17.5
c-23.333 0 -40.833 7 -52.5 21s-17.5 30 -17.5 48h-72v-5c0 -8 1.66699 -18 5 -30s9.83301 -24.833 19.5 -38.5s24.334 -25.334 44.001 -35.001s44.834 -14.5 75.501 -14.5c45.333 0 79.333 11.667 102 35s34 55.333 34 96c0 28.667 -8.5 51.167 -25.5 67.5
s-40.5 26.833 -70.5 31.5v2c26.667 5.33301 47.334 16.5 62.001 33.5s22 36.5 22 58.5c0 13.333 -1.83301 26.333 -5.5 39s-10.167 24.5 -19.5 35.5s-22.166 19.833 -38.499 26.5s-36.833 10 -61.5 10c-47.333 0 -81.833 -10.833 -103.5 -32.5s-32.5 -51.834 -32.5 -90.501
h72c0 7.33301 0.666992 14.666 2 21.999s4.16602 14.666 8.49902 21.999s10.666 13.333 18.999 18s19.166 7 32.499 7c18 0 31.667 -5.5 41 -16.5s14 -24.5 14 -40.5c0 -20 -6.16699 -36.5 -18.5 -49.5s-30.166 -19.5 -53.499 -19.5h-24v-54z" />
    <glyph glyph-name="questiondown" unicode="&#xbf;" 
d="M325 34c0 -16 -1.16797 -32.001 -3.50098 -48.001s-7 -31.333 -14 -46s-17.667 -27 -32 -37s-32.833 -15 -55.5 -15c-30.667 0 -54.5 10.667 -71.5 32s-25.5 47.666 -25.5 78.999c0 22.667 2.16699 41.667 6.5 57s12.166 30.333 23.499 45
c5.33301 6.66699 15.333 18.334 30 35.001l43.5 52.5c11.667 14.333 20.834 27.833 27.501 40.5c8.66699 16 14 33.5 16 52.5s3 42.5 3 70.5h-78v-19c0 -17.333 -2.5 -34.666 -7.5 -51.999s-13.167 -33.333 -24.5 -48l-13 -15.5c-6 -7 -15 -16.833 -27 -29.5
c-3.33301 -3.33301 -9.66602 -10.5 -18.999 -21.5s-15.666 -18.167 -18.999 -21.5c-16 -19.333 -28.333 -41.333 -37 -66s-13 -49.667 -13 -75c0 -55.333 16.667 -100.5 50 -135.5s79.333 -52.5 138 -52.5c61.333 0 107.666 20.5 138.999 61.5s47 93.167 47 156.5h-84z
M278.999 537.999h-92v-96h92v96z" />
    <glyph glyph-name="Agrave" unicode="&#xc0;" horiz-adv-x="500" 
d="M139 895l108 -142h60l-70 142h-98zM-8 0h92l53 196h228l51 -196h92l-192 714h-118zM254 613h2l91 -345h-192z" />
    <glyph glyph-name="Aacute" unicode="&#xc1;" horiz-adv-x="500" 
d="M207 753h60l108 142h-98zM-8 0h92l53 196h228l51 -196h92l-192 714h-118zM254 613h2l91 -345h-192z" />
    <glyph glyph-name="Acircumflex" unicode="&#xc2;" horiz-adv-x="500" 
d="M118 753h78l61 88l61 -88h78l-100 142h-77zM-8 0h92l53 196h228l51 -196h92l-192 714h-118zM254 613h2l91 -345h-192z" />
    <glyph glyph-name="Atilde" unicode="&#xc3;" horiz-adv-x="500" 
d="M350 883l-0.00292969 -1.99902c-3.33301 -13.333 -7.16602 -23.833 -11.499 -31.5s-12.166 -11.5 -23.499 -11.5c-7.33301 0 -21.333 4.66699 -42 14l-10 5c-25.333 12.667 -45.333 19 -60 19c-26 0 -48 -11 -66 -33s-27 -48 -27 -78h54
c2 11.333 6.16699 21.666 12.5 30.999s15.166 14 26.499 14c6 0 19 -4.66699 39 -14c16.667 -8 30.834 -14 42.501 -18s22.834 -6 33.501 -6c26.667 0 47.667 11.5 63 34.5s23 48.5 23 76.5h-54zM-8.00293 0.000976562h92l53 196h228l51 -196h92l-192 714h-118z
M253.997 613.001h2l91 -345h-192z" />
    <glyph glyph-name="Adieresis" unicode="&#xc4;" horiz-adv-x="500" 
d="M137 777h78v101h-78v-101zM299 777h78v101h-78v-101zM-8 0h92l53 196h228l51 -196h92l-192 714h-118zM254 613h2l91 -345h-192z" />
    <glyph glyph-name="Aring" unicode="&#xc5;" horiz-adv-x="500" 
d="M158 833c0 -27.333 9.66699 -50.666 29 -69.999s42.666 -29 69.999 -29s50.666 9.66699 69.999 29s29 42.666 29 69.999s-9.66699 50.666 -29 69.999s-42.666 29 -69.999 29s-50.666 -9.66699 -69.999 -29s-29 -42.666 -29 -69.999zM200 833
c0 15.333 5.66699 28.666 17 39.999s24.666 17 39.999 17s28.666 -5.66699 39.999 -17s17 -24.666 17 -39.999s-5.66699 -28.666 -17 -39.999s-24.666 -17 -39.999 -17s-28.666 5.66699 -39.999 17s-17 24.666 -17 39.999zM-8 0h92l53 196h228l51 -196h92l-192 714h-118z
M254 613h2l91 -345h-192z" />
    <glyph glyph-name="AE" unicode="&#xc6;" horiz-adv-x="722" 
d="M322 642h10v-374h-150zM-8 0h92l73 196h175v-196h366v78h-278v256h250v78h-250v224h266v78h-418z" />
    <glyph glyph-name="Ccedilla" unicode="&#xc7;" horiz-adv-x="519" 
d="M198 -81l15.001 -18.0078c6 4.66699 18.667 7 38 7c12.667 0 23.667 -3.5 33 -10.5s14 -15.833 14 -26.5c0 -12 -4.33301 -21.833 -13 -29.5s-22.667 -11.5 -42 -11.5c-7.33301 0 -19 1.66699 -35 5s-25.667 5.66602 -29 6.99902l-15 -34c10.667 -6 25 -10.833 43 -14.5
s36.667 -5.5 56 -5.5c28.667 0 53.667 8.16699 75 24.5s32 36.833 32 61.5c0 25.333 -8.33301 44.333 -25 57s-35 19 -55 19c-3.33301 0 -8.33301 -0.666992 -15 -2s-11.667 -2.66602 -15 -3.99902l-2 2l27 40c36 0.666992 67 8 93 22s47.333 33 64 57
s29.167 51.333 37.5 82s13.5 63.334 15.5 98.001h-92c-0.666992 -25.333 -2.83398 -48.666 -6.50098 -69.999s-9.66699 -40.833 -18 -58.5s-20.833 -31.834 -37.5 -42.501s-37.667 -16 -63 -16c-29.333 0 -53.333 7.5 -72 22.5s-32.667 35.833 -42 62.5
s-15.666 57.334 -18.999 92.001s-5 75.334 -5 122.001s1.66699 87.334 5 122.001s9.66602 65.334 18.999 92.001s23.333 47.5 42 62.5s42.667 22.5 72 22.5c42 0 72 -13.667 90 -41s27.667 -63.666 29 -108.999h92c-2 72.667 -19.833 127.834 -53.5 165.501
s-86.167 56.5 -157.5 56.5c-46.667 0 -85.5 -10.333 -116.5 -31s-54.667 -48.5 -71 -83.5s-27.5 -73.667 -33.5 -116s-9 -89.166 -9 -140.499c0 -48.667 2.33301 -92.834 7 -132.501s13.834 -76.5 27.501 -110.5s33.667 -62.167 60 -84.5s60.166 -36.166 101.499 -41.499z
" />
    <glyph glyph-name="Egrave" unicode="&#xc8;" horiz-adv-x="463" 
d="M126 895l108 -142h60l-70 142h-98zM58 0h381v78h-293v256h265v78h-265v224h281v78h-369v-714z" />
    <glyph glyph-name="Eacute" unicode="&#xc9;" horiz-adv-x="463" 
d="M194 753h60l108 142h-98zM58 0h381v78h-293v256h265v78h-265v224h281v78h-369v-714z" />
    <glyph glyph-name="Ecircumflex" unicode="&#xca;" horiz-adv-x="463" 
d="M105 753h78l61 88l61 -88h78l-100 142h-77zM58 0h381v78h-293v256h265v78h-265v224h281v78h-369v-714z" />
    <glyph glyph-name="Edieresis" unicode="&#xcb;" horiz-adv-x="463" 
d="M124 777h78v101h-78v-101zM286 777h78v101h-78v-101zM58 0h381v78h-293v256h265v78h-265v224h281v78h-369v-714z" />
    <glyph glyph-name="Igrave" unicode="&#xcc;" horiz-adv-x="204" 
d="M-16 895l108 -142h60l-70 142h-98zM58 0h88v714h-88v-714z" />
    <glyph glyph-name="Iacute" unicode="&#xcd;" horiz-adv-x="204" 
d="M52 753h60l108 142h-98zM58 0h88v714h-88v-714z" />
    <glyph glyph-name="Icircumflex" unicode="&#xce;" horiz-adv-x="204" 
d="M-37 753h78l61 88l61 -88h78l-100 142h-77zM58 0h88v714h-88v-714z" />
    <glyph glyph-name="Idieresis" unicode="&#xcf;" horiz-adv-x="204" 
d="M-18 777h78v101h-78v-101zM144 777h78v101h-78v-101zM58 0h88v714h-88v-714z" />
    <glyph glyph-name="Eth" unicode="&#xd0;" horiz-adv-x="556" 
d="M67 0l199.999 0.000976562c47.333 0 86.833 9.66699 118.5 29s56.334 45.666 74.001 78.999s30.167 70.833 37.5 112.5s11 87.167 11 136.5c0 56 -3 104.667 -9 146s-17.5 77.833 -34.5 109.5s-42.333 56.5 -76 74.5s-77.167 27 -130.5 27h-191v-308h-58v-66h58v-340z
M154.999 72.001v268.001h134v66h-134v236h92c38 0 68.667 -8 92 -24s40.5 -37.333 51.5 -64s18 -55.667 21 -87s4.5 -68.333 4.5 -111c0 -38.667 -2 -73.834 -6 -105.501s-11.667 -61 -23 -88s-28.5 -48.833 -51.5 -65.5s-52.5 -25 -88.5 -25h-92z" />
    <glyph glyph-name="Ntilde" unicode="&#xd1;" horiz-adv-x="556" 
d="M371 883l-0.00292969 -1.99902c-3.33301 -13.333 -7.16602 -23.833 -11.499 -31.5s-12.166 -11.5 -23.499 -11.5c-7.33301 0 -21.333 4.66699 -42 14l-10 5c-25.333 12.667 -45.333 19 -60 19c-26 0 -48 -11 -66 -33s-27 -48 -27 -78h54
c2 11.333 6.16699 21.666 12.5 30.999s15.166 14 26.499 14c6 0 19 -4.66699 39 -14c16.667 -8 30.834 -14 42.501 -18s22.834 -6 33.501 -6c26.667 0 47.667 11.5 63 34.5s23 48.5 23 76.5h-54zM57.9971 0.000976562h88v578h2l229 -578h121v714h-88v-596h-2l-236 596h-114
v-714z" />
    <glyph glyph-name="Ograve" unicode="&#xd2;" horiz-adv-x="556" 
d="M160 895l108 -142h60l-70 142h-98zM278 728c-46.667 0 -85.5 -10.333 -116.5 -31s-54.667 -48.5 -71 -83.5s-27.5 -73.667 -33.5 -116s-9 -89.166 -9 -140.499s3 -98.333 9 -141s17.167 -81.334 33.5 -116.001s40 -62.334 71 -83.001s69.833 -31 116.5 -31
s85.5 10.333 116.5 31s54.667 48.5 71 83.5s27.5 73.667 33.5 116s9 89.166 9 140.499s-3 98.333 -9 141s-17.167 81.334 -33.5 116.001s-40 62.334 -71 83.001s-69.833 31 -116.5 31zM278 656c29.333 0 53.333 -7.5 72 -22.5s32.667 -35.833 42 -62.5
s15.666 -57.334 18.999 -92.001s5 -75.334 5 -122.001s-1.66699 -87.334 -5 -122.001s-9.66602 -65.334 -18.999 -92.001s-23.333 -47.5 -42 -62.5s-42.667 -22.5 -72 -22.5s-53.333 7.5 -72 22.5s-32.667 35.833 -42 62.5s-15.666 57.334 -18.999 92.001
s-5 75.334 -5 122.001s1.66699 87.334 5 122.001s9.66602 65.334 18.999 92.001s23.333 47.5 42 62.5s42.667 22.5 72 22.5z" />
    <glyph glyph-name="Oacute" unicode="&#xd3;" horiz-adv-x="556" 
d="M228 753h60l108 142h-98zM278 728c-46.667 0 -85.5 -10.333 -116.5 -31s-54.667 -48.5 -71 -83.5s-27.5 -73.667 -33.5 -116s-9 -89.166 -9 -140.499s3 -98.333 9 -141s17.167 -81.334 33.5 -116.001s40 -62.334 71 -83.001s69.833 -31 116.5 -31s85.5 10.333 116.5 31
s54.667 48.5 71 83.5s27.5 73.667 33.5 116s9 89.166 9 140.499s-3 98.333 -9 141s-17.167 81.334 -33.5 116.001s-40 62.334 -71 83.001s-69.833 31 -116.5 31zM278 656c29.333 0 53.333 -7.5 72 -22.5s32.667 -35.833 42 -62.5s15.666 -57.334 18.999 -92.001
s5 -75.334 5 -122.001s-1.66699 -87.334 -5 -122.001s-9.66602 -65.334 -18.999 -92.001s-23.333 -47.5 -42 -62.5s-42.667 -22.5 -72 -22.5s-53.333 7.5 -72 22.5s-32.667 35.833 -42 62.5s-15.666 57.334 -18.999 92.001s-5 75.334 -5 122.001s1.66699 87.334 5 122.001
s9.66602 65.334 18.999 92.001s23.333 47.5 42 62.5s42.667 22.5 72 22.5z" />
    <glyph glyph-name="Ocircumflex" unicode="&#xd4;" horiz-adv-x="556" 
d="M139 753h78l61 88l61 -88h78l-100 142h-77zM278 728c-46.667 0 -85.5 -10.333 -116.5 -31s-54.667 -48.5 -71 -83.5s-27.5 -73.667 -33.5 -116s-9 -89.166 -9 -140.499s3 -98.333 9 -141s17.167 -81.334 33.5 -116.001s40 -62.334 71 -83.001s69.833 -31 116.5 -31
s85.5 10.333 116.5 31s54.667 48.5 71 83.5s27.5 73.667 33.5 116s9 89.166 9 140.499s-3 98.333 -9 141s-17.167 81.334 -33.5 116.001s-40 62.334 -71 83.001s-69.833 31 -116.5 31zM278 656c29.333 0 53.333 -7.5 72 -22.5s32.667 -35.833 42 -62.5
s15.666 -57.334 18.999 -92.001s5 -75.334 5 -122.001s-1.66699 -87.334 -5 -122.001s-9.66602 -65.334 -18.999 -92.001s-23.333 -47.5 -42 -62.5s-42.667 -22.5 -72 -22.5s-53.333 7.5 -72 22.5s-32.667 35.833 -42 62.5s-15.666 57.334 -18.999 92.001
s-5 75.334 -5 122.001s1.66699 87.334 5 122.001s9.66602 65.334 18.999 92.001s23.333 47.5 42 62.5s42.667 22.5 72 22.5z" />
    <glyph glyph-name="Otilde" unicode="&#xd5;" horiz-adv-x="556" 
d="M371 883l-0.00292969 -1.99902c-3.33301 -13.333 -7.16602 -23.833 -11.499 -31.5s-12.166 -11.5 -23.499 -11.5c-7.33301 0 -21.333 4.66699 -42 14l-10 5c-25.333 12.667 -45.333 19 -60 19c-26 0 -48 -11 -66 -33s-27 -48 -27 -78h54
c2 11.333 6.16699 21.666 12.5 30.999s15.166 14 26.499 14c6 0 19 -4.66699 39 -14c16.667 -8 30.834 -14 42.501 -18s22.834 -6 33.501 -6c26.667 0 47.667 11.5 63 34.5s23 48.5 23 76.5h-54zM277.997 728.001c-46.667 0 -85.5 -10.333 -116.5 -31
s-54.667 -48.5 -71 -83.5s-27.5 -73.667 -33.5 -116s-9 -89.166 -9 -140.499s3 -98.333 9 -141s17.167 -81.334 33.5 -116.001s40 -62.334 71 -83.001s69.833 -31 116.5 -31s85.5 10.333 116.5 31s54.667 48.5 71 83.5s27.5 73.667 33.5 116s9 89.166 9 140.499
s-3 98.333 -9 141s-17.167 81.334 -33.5 116.001s-40 62.334 -71 83.001s-69.833 31 -116.5 31zM277.997 656.001c29.333 0 53.333 -7.5 72 -22.5s32.667 -35.833 42 -62.5s15.666 -57.334 18.999 -92.001s5 -75.334 5 -122.001s-1.66699 -87.334 -5 -122.001
s-9.66602 -65.334 -18.999 -92.001s-23.333 -47.5 -42 -62.5s-42.667 -22.5 -72 -22.5s-53.333 7.5 -72 22.5s-32.667 35.833 -42 62.5s-15.666 57.334 -18.999 92.001s-5 75.334 -5 122.001s1.66699 87.334 5 122.001s9.66602 65.334 18.999 92.001s23.333 47.5 42 62.5
s42.667 22.5 72 22.5z" />
    <glyph glyph-name="Odieresis" unicode="&#xd6;" horiz-adv-x="556" 
d="M158 777h78v101h-78v-101zM320 777h78v101h-78v-101zM278 728c-46.667 0 -85.5 -10.333 -116.5 -31s-54.667 -48.5 -71 -83.5s-27.5 -73.667 -33.5 -116s-9 -89.166 -9 -140.499s3 -98.333 9 -141s17.167 -81.334 33.5 -116.001s40 -62.334 71 -83.001
s69.833 -31 116.5 -31s85.5 10.333 116.5 31s54.667 48.5 71 83.5s27.5 73.667 33.5 116s9 89.166 9 140.499s-3 98.333 -9 141s-17.167 81.334 -33.5 116.001s-40 62.334 -71 83.001s-69.833 31 -116.5 31zM278 656c29.333 0 53.333 -7.5 72 -22.5s32.667 -35.833 42 -62.5
s15.666 -57.334 18.999 -92.001s5 -75.334 5 -122.001s-1.66699 -87.334 -5 -122.001s-9.66602 -65.334 -18.999 -92.001s-23.333 -47.5 -42 -62.5s-42.667 -22.5 -72 -22.5s-53.333 7.5 -72 22.5s-32.667 35.833 -42 62.5s-15.666 57.334 -18.999 92.001
s-5 75.334 -5 122.001s1.66699 87.334 5 122.001s9.66602 65.334 18.999 92.001s23.333 47.5 42 62.5s42.667 22.5 72 22.5z" />
    <glyph glyph-name="multiply" unicode="&#xd7;" horiz-adv-x="600" 
d="M480 30l43 42l-181 181l181 181l-43 42l-180 -180l-181 180l-42 -42l181 -181l-181 -181l42 -42l181 180z" />
    <glyph glyph-name="Oslash" unicode="&#xd8;" horiz-adv-x="556" 
d="M161 153c-8 25.333 -13.499 54.665 -16.499 87.998s-4.5 72 -4.5 116c0 46.667 1.66699 87.334 5 122.001s9.66602 65.334 18.999 92.001s23.333 47.5 42 62.5s42.667 22.5 72 22.5c33.333 0 60 -10 80 -30zM395.001 561.999c8 -24.667 13.499 -53.8301 16.499 -87.4971
s4.5 -72.834 4.5 -117.501c0 -46.667 -1.66699 -87.334 -5 -122.001s-9.66602 -65.334 -18.999 -92.001s-23.333 -47.5 -42 -62.5s-42.667 -22.5 -72 -22.5c-32.667 0 -59 10 -79 30zM88 -23.9971l54 -24.002l26 62c30 -18.667 66.667 -28 110 -28
c46.667 0 85.5 10.333 116.5 31s54.667 48.5 71 83.5s27.5 73.667 33.5 116s9 89.166 9 140.499c0 66 -5.33301 124.833 -16 176.5s-29.667 93.834 -57 126.501l32 77l-54 22l-24 -59c-30 18.667 -67 28 -111 28c-46.667 0 -85.5 -10.333 -116.5 -31
s-54.667 -48.5 -71 -83.5s-27.5 -73.667 -33.5 -116s-9 -89.166 -9 -140.499c0 -65.333 5.33301 -123.666 16 -174.999s29.667 -93.333 57 -126z" />
    <glyph glyph-name="Ugrave" unicode="&#xd9;" horiz-adv-x="519" 
d="M142 895l108 -142h60l-70 142h-98zM50 212c0 -74.667 17.166 -131 51.499 -169s86.833 -57 157.5 -57c68.667 0 120.834 20.167 156.501 60.5s53.5 95.5 53.5 165.5v502h-88v-502c0 -52.667 -9 -91.5 -27 -116.5s-49.667 -37.5 -95 -37.5
c-42.667 0 -73.5 12.333 -92.5 37s-28.5 63.667 -28.5 117v502h-88v-502z" />
    <glyph glyph-name="Uacute" unicode="&#xda;" horiz-adv-x="519" 
d="M210 753h60l108 142h-98zM50 212c0 -74.667 17.166 -131 51.499 -169s86.833 -57 157.5 -57c68.667 0 120.834 20.167 156.501 60.5s53.5 95.5 53.5 165.5v502h-88v-502c0 -52.667 -9 -91.5 -27 -116.5s-49.667 -37.5 -95 -37.5c-42.667 0 -73.5 12.333 -92.5 37
s-28.5 63.667 -28.5 117v502h-88v-502z" />
    <glyph glyph-name="Ucircumflex" unicode="&#xdb;" horiz-adv-x="519" 
d="M121 753h78l61 88l61 -88h78l-100 142h-77zM50 212c0 -74.667 17.166 -131 51.499 -169s86.833 -57 157.5 -57c68.667 0 120.834 20.167 156.501 60.5s53.5 95.5 53.5 165.5v502h-88v-502c0 -52.667 -9 -91.5 -27 -116.5s-49.667 -37.5 -95 -37.5
c-42.667 0 -73.5 12.333 -92.5 37s-28.5 63.667 -28.5 117v502h-88v-502z" />
    <glyph glyph-name="Udieresis" unicode="&#xdc;" horiz-adv-x="519" 
d="M140 777h78v101h-78v-101zM302 777h78v101h-78v-101zM50 212c0 -74.667 17.166 -131 51.499 -169s86.833 -57 157.5 -57c68.667 0 120.834 20.167 156.501 60.5s53.5 95.5 53.5 165.5v502h-88v-502c0 -52.667 -9 -91.5 -27 -116.5s-49.667 -37.5 -95 -37.5
c-42.667 0 -73.5 12.333 -92.5 37s-28.5 63.667 -28.5 117v502h-88v-502z" />
    <glyph glyph-name="Yacute" unicode="&#xdd;" horiz-adv-x="462" 
d="M181 753h60l108 142h-98zM187 280v-280h88v280l189 434h-92l-141 -334l-136 334h-97z" />
    <glyph glyph-name="Thorn" unicode="&#xde;" horiz-adv-x="481" 
d="M58 0h88v162h109c62 0 111.833 18.167 149.5 54.5s56.5 87.166 56.5 152.499c0 48 -8 86.333 -24 115s-35.667 49.334 -59 62.001s-46 20.5 -68 23.5s-45.333 4.5 -70 4.5h-94v140h-88v-714zM146 502l99 0.000976562c42 0 73.167 -11.333 93.5 -34
s30.5 -54.334 30.5 -95.001c0 -45.333 -11.167 -79.833 -33.5 -103.5s-50.5 -35.5 -84.5 -35.5h-105v268z" />
    <glyph glyph-name="germandbls" unicode="&#xdf;" horiz-adv-x="463" 
d="M48 0l83.9941 -0.00585938v525c0 19.333 0.833008 36.333 2.5 51s5.66699 28.167 12 40.5s15.833 22 28.5 29s29.334 10.5 50.001 10.5c16.667 0 30.834 -3.16699 42.501 -9.5s20.834 -15 27.501 -26s11.334 -22.833 14.001 -35.5s4 -26 4 -40
c0 -33.333 -9 -59.166 -27 -77.499s-40.333 -27.5 -67 -27.5h-20v-69c4.66699 0.666992 11 1.33398 19 2.00098s15 1 21 1c32.667 0 58.667 -13.667 78 -41s29 -63.666 29 -108.999c0 -16.667 -1.33301 -33.5 -4 -50.5s-7.5 -33.167 -14.5 -48.5s-16.5 -28 -28.5 -38
s-27 -15 -45 -15h-58v-72h59c30.667 0 57.334 6.33301 80.001 19s41.334 29.834 56.001 51.501s25.5 45.667 32.5 72s10.5 53.5 10.5 81.5c0 52.667 -12.5 96.834 -37.5 132.501s-60.167 53.5 -105.5 53.5v2c34 6 60.167 23.333 78.5 52s27.5 60.334 27.5 95.001
c0 54 -16 94.667 -48 122s-73.333 41 -124 41c-34 0 -62.5 -5 -85.5 -15s-41.167 -24.333 -54.5 -43s-22.833 -40.667 -28.5 -66s-8.5 -54.333 -8.5 -87v-511z" />
    <glyph glyph-name="agrave" unicode="&#xe0;" 
d="M104 752l108 -142h60l-70 142h-98zM126 374l-0.000976562 4.99902c0 9.33301 0.666992 19 2 29s4.83301 21 10.5 33s15 22.167 28 30.5s30.167 12.5 51.5 12.5c57.333 0 86 -26.333 86 -79c0 -25.333 -3.16699 -43 -9.5 -53s-23.5 -19.333 -51.5 -28l-113 -34
c-34 -10 -59.333 -27.667 -76 -53s-25 -57 -25 -95c0 -49.333 12.167 -87.666 36.5 -114.999s60.833 -41 109.5 -41c25.333 0 49.833 7 73.5 21s42.167 32.667 55.5 56h2c0.666992 -16 3.5 -28.833 8.5 -38.5s11 -16.667 18 -21s14.333 -7 22 -8s16.834 -1.5 27.501 -1.5
c8 0 16.333 0.5 25 1.5s16.334 2.16699 23.001 3.5h1v60c-4.66699 -3.33301 -11.334 -5 -20.001 -5c-11.333 0 -18.5 3.5 -21.5 10.5s-4.5 17.833 -4.5 32.5v299c0 20.667 -1.16699 38.667 -3.5 54s-8.5 30.833 -18.5 46.5s-26.333 28.5 -49 38.5s-53.334 15 -92.001 15
c-63.333 0 -109.166 -14 -137.499 -42s-42.5 -72.667 -42.5 -134h84zM300.999 153.999c0 -27.333 -11.001 -51.1709 -33.001 -71.5039s-47 -30.5 -75 -30.5c-26.667 0 -46 8 -58 24s-18 38.667 -18 68c0 22.667 3.33301 40.334 10 53.001s17 23.334 31 32.001
c10.667 6 30.334 13.667 59.001 23c22 6.66699 39.5 12.834 52.5 18.501s23.5 12.834 31.5 21.501v-138z" />
    <glyph glyph-name="aacute" unicode="&#xe1;" 
d="M172 610h60l108 142h-98zM126 374l-0.000976562 4.99902c0 9.33301 0.666992 19 2 29s4.83301 21 10.5 33s15 22.167 28 30.5s30.167 12.5 51.5 12.5c57.333 0 86 -26.333 86 -79c0 -25.333 -3.16699 -43 -9.5 -53s-23.5 -19.333 -51.5 -28l-113 -34
c-34 -10 -59.333 -27.667 -76 -53s-25 -57 -25 -95c0 -49.333 12.167 -87.666 36.5 -114.999s60.833 -41 109.5 -41c25.333 0 49.833 7 73.5 21s42.167 32.667 55.5 56h2c0.666992 -16 3.5 -28.833 8.5 -38.5s11 -16.667 18 -21s14.333 -7 22 -8s16.834 -1.5 27.501 -1.5
c8 0 16.333 0.5 25 1.5s16.334 2.16699 23.001 3.5h1v60c-4.66699 -3.33301 -11.334 -5 -20.001 -5c-11.333 0 -18.5 3.5 -21.5 10.5s-4.5 17.833 -4.5 32.5v299c0 20.667 -1.16699 38.667 -3.5 54s-8.5 30.833 -18.5 46.5s-26.333 28.5 -49 38.5s-53.334 15 -92.001 15
c-63.333 0 -109.166 -14 -137.499 -42s-42.5 -72.667 -42.5 -134h84zM300.999 153.999c0 -27.333 -11.001 -51.1709 -33.001 -71.5039s-47 -30.5 -75 -30.5c-26.667 0 -46 8 -58 24s-18 38.667 -18 68c0 22.667 3.33301 40.334 10 53.001s17 23.334 31 32.001
c10.667 6 30.334 13.667 59.001 23c22 6.66699 39.5 12.834 52.5 18.501s23.5 12.834 31.5 21.501v-138z" />
    <glyph glyph-name="acircumflex" unicode="&#xe2;" 
d="M83 610h78l61 88l61 -88h78l-100 142h-77zM126 374l-0.000976562 4.99902c0 9.33301 0.666992 19 2 29s4.83301 21 10.5 33s15 22.167 28 30.5s30.167 12.5 51.5 12.5c57.333 0 86 -26.333 86 -79c0 -25.333 -3.16699 -43 -9.5 -53s-23.5 -19.333 -51.5 -28l-113 -34
c-34 -10 -59.333 -27.667 -76 -53s-25 -57 -25 -95c0 -49.333 12.167 -87.666 36.5 -114.999s60.833 -41 109.5 -41c25.333 0 49.833 7 73.5 21s42.167 32.667 55.5 56h2c0.666992 -16 3.5 -28.833 8.5 -38.5s11 -16.667 18 -21s14.333 -7 22 -8s16.834 -1.5 27.501 -1.5
c8 0 16.333 0.5 25 1.5s16.334 2.16699 23.001 3.5h1v60c-4.66699 -3.33301 -11.334 -5 -20.001 -5c-11.333 0 -18.5 3.5 -21.5 10.5s-4.5 17.833 -4.5 32.5v299c0 20.667 -1.16699 38.667 -3.5 54s-8.5 30.833 -18.5 46.5s-26.333 28.5 -49 38.5s-53.334 15 -92.001 15
c-63.333 0 -109.166 -14 -137.499 -42s-42.5 -72.667 -42.5 -134h84zM300.999 153.999c0 -27.333 -11.001 -51.1709 -33.001 -71.5039s-47 -30.5 -75 -30.5c-26.667 0 -46 8 -58 24s-18 38.667 -18 68c0 22.667 3.33301 40.334 10 53.001s17 23.334 31 32.001
c10.667 6 30.334 13.667 59.001 23c22 6.66699 39.5 12.834 52.5 18.501s23.5 12.834 31.5 21.501v-138z" />
    <glyph glyph-name="atilde" unicode="&#xe3;" 
d="M315 740l-0.00292969 -1.99902c-3.33301 -13.333 -7.16602 -23.833 -11.499 -31.5s-12.166 -11.5 -23.499 -11.5c-7.33301 0 -21.333 4.66699 -42 14l-10 5c-25.333 12.667 -45.333 19 -60 19c-26 0 -48 -11 -66 -33s-27 -48 -27 -78h54
c2 11.333 6.16699 21.666 12.5 30.999s15.166 14 26.499 14c6 0 19 -4.66699 39 -14c16.667 -8 30.834 -14 42.501 -18s22.834 -6 33.501 -6c26.667 0 47.667 11.5 63 34.5s23 48.5 23 76.5h-54zM125.997 374.001l-0.000976562 4.99902c0 9.33301 0.666992 19 2 29
s4.83301 21 10.5 33s15 22.167 28 30.5s30.167 12.5 51.5 12.5c57.333 0 86 -26.333 86 -79c0 -25.333 -3.16699 -43 -9.5 -53s-23.5 -19.333 -51.5 -28l-113 -34c-34 -10 -59.333 -27.667 -76 -53s-25 -57 -25 -95c0 -49.333 12.167 -87.666 36.5 -114.999
s60.833 -41 109.5 -41c25.333 0 49.833 7 73.5 21s42.167 32.667 55.5 56h2c0.666992 -16 3.5 -28.833 8.5 -38.5s11 -16.667 18 -21s14.333 -7 22 -8s16.834 -1.5 27.501 -1.5c8 0 16.333 0.5 25 1.5s16.334 2.16699 23.001 3.5h1v60
c-4.66699 -3.33301 -11.334 -5 -20.001 -5c-11.333 0 -18.5 3.5 -21.5 10.5s-4.5 17.833 -4.5 32.5v299c0 20.667 -1.16699 38.667 -3.5 54s-8.5 30.833 -18.5 46.5s-26.333 28.5 -49 38.5s-53.334 15 -92.001 15c-63.333 0 -109.166 -14 -137.499 -42
s-42.5 -72.667 -42.5 -134h84zM300.996 154c0 -27.333 -11.001 -51.1709 -33.001 -71.5039s-47 -30.5 -75 -30.5c-26.667 0 -46 8 -58 24s-18 38.667 -18 68c0 22.667 3.33301 40.334 10 53.001s17 23.334 31 32.001c10.667 6 30.334 13.667 59.001 23
c22 6.66699 39.5 12.834 52.5 18.501s23.5 12.834 31.5 21.501v-138z" />
    <glyph glyph-name="adieresis" unicode="&#xe4;" 
d="M102 634h78v101h-78v-101zM264 634h78v101h-78v-101zM126 374l-0.000976562 4.99902c0 9.33301 0.666992 19 2 29s4.83301 21 10.5 33s15 22.167 28 30.5s30.167 12.5 51.5 12.5c57.333 0 86 -26.333 86 -79c0 -25.333 -3.16699 -43 -9.5 -53s-23.5 -19.333 -51.5 -28
l-113 -34c-34 -10 -59.333 -27.667 -76 -53s-25 -57 -25 -95c0 -49.333 12.167 -87.666 36.5 -114.999s60.833 -41 109.5 -41c25.333 0 49.833 7 73.5 21s42.167 32.667 55.5 56h2c0.666992 -16 3.5 -28.833 8.5 -38.5s11 -16.667 18 -21s14.333 -7 22 -8
s16.834 -1.5 27.501 -1.5c8 0 16.333 0.5 25 1.5s16.334 2.16699 23.001 3.5h1v60c-4.66699 -3.33301 -11.334 -5 -20.001 -5c-11.333 0 -18.5 3.5 -21.5 10.5s-4.5 17.833 -4.5 32.5v299c0 20.667 -1.16699 38.667 -3.5 54s-8.5 30.833 -18.5 46.5s-26.333 28.5 -49 38.5
s-53.334 15 -92.001 15c-63.333 0 -109.166 -14 -137.499 -42s-42.5 -72.667 -42.5 -134h84zM300.999 153.999c0 -27.333 -11.001 -51.1709 -33.001 -71.5039s-47 -30.5 -75 -30.5c-26.667 0 -46 8 -58 24s-18 38.667 -18 68c0 22.667 3.33301 40.334 10 53.001
s17 23.334 31 32.001c10.667 6 30.334 13.667 59.001 23c22 6.66699 39.5 12.834 52.5 18.501s23.5 12.834 31.5 21.501v-138z" />
    <glyph glyph-name="aring" unicode="&#xe5;" 
d="M123 690c0 -27.333 9.66699 -50.666 29 -69.999s42.666 -29 69.999 -29s50.666 9.66699 69.999 29s29 42.666 29 69.999s-9.66699 50.666 -29 69.999s-42.666 29 -69.999 29s-50.666 -9.66699 -69.999 -29s-29 -42.666 -29 -69.999zM165 690
c0 15.333 5.66699 28.666 17 39.999s24.666 17 39.999 17s28.666 -5.66699 39.999 -17s17 -24.666 17 -39.999s-5.66699 -28.666 -17 -39.999s-24.666 -17 -39.999 -17s-28.666 5.66699 -39.999 17s-17 24.666 -17 39.999zM126 374l-0.000976562 4.99902
c0 9.33301 0.666992 19 2 29s4.83301 21 10.5 33s15 22.167 28 30.5s30.167 12.5 51.5 12.5c57.333 0 86 -26.333 86 -79c0 -25.333 -3.16699 -43 -9.5 -53s-23.5 -19.333 -51.5 -28l-113 -34c-34 -10 -59.333 -27.667 -76 -53s-25 -57 -25 -95
c0 -49.333 12.167 -87.666 36.5 -114.999s60.833 -41 109.5 -41c25.333 0 49.833 7 73.5 21s42.167 32.667 55.5 56h2c0.666992 -16 3.5 -28.833 8.5 -38.5s11 -16.667 18 -21s14.333 -7 22 -8s16.834 -1.5 27.501 -1.5c8 0 16.333 0.5 25 1.5s16.334 2.16699 23.001 3.5h1
v60c-4.66699 -3.33301 -11.334 -5 -20.001 -5c-11.333 0 -18.5 3.5 -21.5 10.5s-4.5 17.833 -4.5 32.5v299c0 20.667 -1.16699 38.667 -3.5 54s-8.5 30.833 -18.5 46.5s-26.333 28.5 -49 38.5s-53.334 15 -92.001 15c-63.333 0 -109.166 -14 -137.499 -42
s-42.5 -72.667 -42.5 -134h84zM300.999 153.999c0 -27.333 -11.001 -51.1709 -33.001 -71.5039s-47 -30.5 -75 -30.5c-26.667 0 -46 8 -58 24s-18 38.667 -18 68c0 22.667 3.33301 40.334 10 53.001s17 23.334 31 32.001c10.667 6 30.334 13.667 59.001 23
c22 6.66699 39.5 12.834 52.5 18.501s23.5 12.834 31.5 21.501v-138z" />
    <glyph glyph-name="ae" unicode="&#xe6;" horiz-adv-x="667" 
d="M371 324l-0.000976562 20.002c0 10.667 1.16699 23.667 3.5 39s6.66602 30.666 12.999 45.999s15.833 28.333 28.5 39s28.667 16 48 16c16.667 0 30.834 -3.83301 42.501 -11.5s20.834 -17.834 27.501 -30.501s11.5 -26.5 14.5 -41.5s4.5 -30.833 4.5 -47.5v-29h-182z
M552.999 176.002c0 -12.667 -1.16895 -25.8271 -3.50195 -39.4941s-6.66602 -26.834 -12.999 -39.501s-15.666 -23.334 -27.999 -32.001s-27.833 -13 -46.5 -13c-22 0 -39.5 6.33301 -52.5 19s-22.5 29.167 -28.5 49.5s-9.66699 41 -11 62s-2 46.167 -2 75.5h273v34
c0 34 -1.83301 65.5 -5.5 94.5s-11.167 56 -22.5 81s-28.5 45 -51.5 60s-52.833 22.5 -89.5 22.5c-26.667 0 -52.167 -6.83301 -76.5 -20.5s-40.833 -31.5 -49.5 -53.5h-2c-6 22.667 -20.167 40.667 -42.5 54s-50.833 20 -85.5 20c-60.667 0 -105.167 -14.167 -133.5 -42.5
s-42.5 -72.833 -42.5 -133.5h84v5c0 9.33301 0.666992 19.166 2 29.499s4.66602 21.333 9.99902 33s14 21.667 26 30s28 12.5 48 12.5c27.333 0 47.5 -6.66699 60.5 -20s19.5 -33 19.5 -59c0 -24 -2.33301 -41.667 -7 -53s-14.667 -19.333 -30 -24l-125 -38
c-32.667 -10 -57.834 -27.833 -75.501 -53.5s-26.5 -57.167 -26.5 -94.5c0 -48 13.333 -86 40 -114s62.334 -42 107.001 -42c37.333 0 68 8.66699 92 26s43 41.333 57 72h2c0.666992 -6.66699 3.66699 -15.334 9 -26.001s13.333 -21.5 24 -32.5s25.334 -20.333 44.001 -28
s41 -11.5 67 -11.5c32 0 59 6.66699 81 20s39.5 30.166 52.5 50.499s22.167 41.166 27.5 62.499s8 40.333 8 57h-84zM289.997 174.009c0 -10 -0.999023 -21.332 -2.99902 -33.999s-6.33301 -25.834 -13 -39.501s-17 -25.167 -31 -34.5s-32 -14 -54 -14
c-24.667 0 -43.334 8.83301 -56.001 26.5s-19 39.834 -19 66.501c0 24.667 3.66699 43.667 11 57s18.333 22.666 33 27.999c3.33301 1.33301 12 4 26 8c28 8.66699 51.667 16.5 71 23.5s30.333 12.833 33 17.5h2v-11v-94z" />
    <glyph glyph-name="ccedilla" unicode="&#xe7;" horiz-adv-x="426" 
d="M151 -81l14.998 -17.9961c6 4.66699 18.667 7 38 7c12.667 0 23.667 -3.5 33 -10.5s14 -15.833 14 -26.5c0 -12 -4.33301 -21.833 -13 -29.5s-22.667 -11.5 -42 -11.5c-7.33301 0 -19 1.66699 -35 5s-25.667 5.66602 -29 6.99902l-15 -34c10.667 -6 25 -10.833 43 -14.5
s36.667 -5.5 56 -5.5c28.667 0 53.667 8.16699 75 24.5s32 36.833 32 61.5c0 25.333 -8.33301 44.333 -25 57s-35 19 -55 19c-3.33301 0 -8.33301 -0.666992 -15 -2s-11.667 -2.66602 -15 -3.99902l-2 2l29 41c28 2.66699 52 10.667 72 24s36 29.666 48 48.999
s20.667 39.833 26 61.5s8 43.167 8 64.5h-84c0 -16 -1.33301 -31.667 -4 -47s-7.16699 -29.666 -13.5 -42.999s-15.333 -24 -27 -32s-26.167 -12 -43.5 -12c-23.333 0 -42.166 7 -56.499 21s-24.666 32 -30.999 54s-10.333 43.5 -12 64.5s-2.5 44.5 -2.5 70.5
c0 46.667 2.83301 85 8.5 115s13.5 52.667 23.5 68s21 25.666 33 30.999s25.333 8 40 8c29.333 0 50.833 -10.833 64.5 -32.5s20.5 -47.834 20.5 -78.501h84c0 18.667 -2.33301 37.834 -7 57.501s-13.167 38.667 -25.5 57s-30 33.333 -53 45s-51.5 17.5 -85.5 17.5
c-39.333 0 -71.833 -8.33301 -97.5 -25s-45.167 -38.834 -58.5 -66.501s-22.5 -57.834 -27.5 -90.501s-7.5 -68.334 -7.5 -107.001c0 -88 13.167 -154.667 39.5 -200s68.5 -70.333 126.5 -75z" />
    <glyph glyph-name="egrave" unicode="&#xe8;" 
d="M104 752l108 -142h60l-70 142h-98zM128 324l0.000976562 19.999c0 11.333 1.16699 24.5 3.5 39.5s6.83301 30.167 13.5 45.5s16.667 28.333 30 39s30.333 16 51 16c17.333 0 32.166 -3.83301 44.499 -11.5s22 -17.667 29 -30s12 -26.166 15 -41.499s4.5 -31.333 4.5 -48
v-29h-191zM407.001 257.999l-0.00488281 34.0068c0 35.333 -1.83301 67.166 -5.5 95.499s-11.667 55 -24 80s-30.666 45 -54.999 60s-55.833 22.5 -94.5 22.5c-39.333 0 -71.833 -8.33301 -97.5 -25s-45.167 -38.834 -58.5 -66.501s-22.5 -57.834 -27.5 -90.501
s-7.5 -68.334 -7.5 -107.001c0 -93.333 14.833 -162.5 44.5 -207.5s76.834 -67.5 141.501 -67.5c34.667 0 63.834 6.66699 87.501 20s42.167 30.166 55.5 50.499s22.833 41.166 28.5 62.499s8.5 40.333 8.5 57h-84c0 -12.667 -1.16699 -25.834 -3.5 -39.501
s-6.66602 -26.834 -12.999 -39.501s-15.666 -23.334 -27.999 -32.001s-27.833 -13 -46.5 -13c-24 0 -43.167 6.33301 -57.5 19s-24.833 29.334 -31.5 50.001s-10.667 41.334 -12 62.001s-2 45.667 -2 75h282z" />
    <glyph glyph-name="eacute" unicode="&#xe9;" 
d="M172 610h60l108 142h-98zM128 324l0.000976562 19.999c0 11.333 1.16699 24.5 3.5 39.5s6.83301 30.167 13.5 45.5s16.667 28.333 30 39s30.333 16 51 16c17.333 0 32.166 -3.83301 44.499 -11.5s22 -17.667 29 -30s12 -26.166 15 -41.499s4.5 -31.333 4.5 -48v-29h-191z
M407.001 257.999l-0.00488281 34.0068c0 35.333 -1.83301 67.166 -5.5 95.499s-11.667 55 -24 80s-30.666 45 -54.999 60s-55.833 22.5 -94.5 22.5c-39.333 0 -71.833 -8.33301 -97.5 -25s-45.167 -38.834 -58.5 -66.501s-22.5 -57.834 -27.5 -90.501
s-7.5 -68.334 -7.5 -107.001c0 -93.333 14.833 -162.5 44.5 -207.5s76.834 -67.5 141.501 -67.5c34.667 0 63.834 6.66699 87.501 20s42.167 30.166 55.5 50.499s22.833 41.166 28.5 62.499s8.5 40.333 8.5 57h-84c0 -12.667 -1.16699 -25.834 -3.5 -39.501
s-6.66602 -26.834 -12.999 -39.501s-15.666 -23.334 -27.999 -32.001s-27.833 -13 -46.5 -13c-24 0 -43.167 6.33301 -57.5 19s-24.833 29.334 -31.5 50.001s-10.667 41.334 -12 62.001s-2 45.667 -2 75h282z" />
    <glyph glyph-name="ecircumflex" unicode="&#xea;" 
d="M83 610h78l61 88l61 -88h78l-100 142h-77zM128 324l0.000976562 19.999c0 11.333 1.16699 24.5 3.5 39.5s6.83301 30.167 13.5 45.5s16.667 28.333 30 39s30.333 16 51 16c17.333 0 32.166 -3.83301 44.499 -11.5s22 -17.667 29 -30s12 -26.166 15 -41.499
s4.5 -31.333 4.5 -48v-29h-191zM407.001 257.999l-0.00488281 34.0068c0 35.333 -1.83301 67.166 -5.5 95.499s-11.667 55 -24 80s-30.666 45 -54.999 60s-55.833 22.5 -94.5 22.5c-39.333 0 -71.833 -8.33301 -97.5 -25s-45.167 -38.834 -58.5 -66.501
s-22.5 -57.834 -27.5 -90.501s-7.5 -68.334 -7.5 -107.001c0 -93.333 14.833 -162.5 44.5 -207.5s76.834 -67.5 141.501 -67.5c34.667 0 63.834 6.66699 87.501 20s42.167 30.166 55.5 50.499s22.833 41.166 28.5 62.499s8.5 40.333 8.5 57h-84
c0 -12.667 -1.16699 -25.834 -3.5 -39.501s-6.66602 -26.834 -12.999 -39.501s-15.666 -23.334 -27.999 -32.001s-27.833 -13 -46.5 -13c-24 0 -43.167 6.33301 -57.5 19s-24.833 29.334 -31.5 50.001s-10.667 41.334 -12 62.001s-2 45.667 -2 75h282z" />
    <glyph glyph-name="edieresis" unicode="&#xeb;" 
d="M102 634h78v101h-78v-101zM264 634h78v101h-78v-101zM128 324l0.000976562 19.999c0 11.333 1.16699 24.5 3.5 39.5s6.83301 30.167 13.5 45.5s16.667 28.333 30 39s30.333 16 51 16c17.333 0 32.166 -3.83301 44.499 -11.5s22 -17.667 29 -30s12 -26.166 15 -41.499
s4.5 -31.333 4.5 -48v-29h-191zM407.001 257.999l-0.00488281 34.0068c0 35.333 -1.83301 67.166 -5.5 95.499s-11.667 55 -24 80s-30.666 45 -54.999 60s-55.833 22.5 -94.5 22.5c-39.333 0 -71.833 -8.33301 -97.5 -25s-45.167 -38.834 -58.5 -66.501
s-22.5 -57.834 -27.5 -90.501s-7.5 -68.334 -7.5 -107.001c0 -93.333 14.833 -162.5 44.5 -207.5s76.834 -67.5 141.501 -67.5c34.667 0 63.834 6.66699 87.501 20s42.167 30.166 55.5 50.499s22.833 41.166 28.5 62.499s8.5 40.333 8.5 57h-84
c0 -12.667 -1.16699 -25.834 -3.5 -39.501s-6.66602 -26.834 -12.999 -39.501s-15.666 -23.334 -27.999 -32.001s-27.833 -13 -46.5 -13c-24 0 -43.167 6.33301 -57.5 19s-24.833 29.334 -31.5 50.001s-10.667 41.334 -12 62.001s-2 45.667 -2 75h282z" />
    <glyph glyph-name="igrave" unicode="&#xec;" horiz-adv-x="204" 
d="M-16 752l108 -142h60l-70 142h-98zM60 0h84v536h-84v-536z" />
    <glyph glyph-name="iacute" unicode="&#xed;" horiz-adv-x="204" 
d="M52 610h60l108 142h-98zM60 0h84v536h-84v-536z" />
    <glyph glyph-name="icircumflex" unicode="&#xee;" horiz-adv-x="204" 
d="M-37 610h78l61 88l61 -88h78l-100 142h-77zM60 0h84v536h-84v-536z" />
    <glyph glyph-name="idieresis" unicode="&#xef;" horiz-adv-x="204" 
d="M-18 634h78v101h-78v-101zM144 634h78v101h-78v-101zM60 0h84v536h-84v-536z" />
    <glyph glyph-name="eth" unicode="&#xf0;" 
d="M220 470c21.333 0 39.166 -5.66602 53.499 -16.999s25.333 -26.666 33 -45.999s13 -40.666 16 -63.999s4.5 -48.333 4.5 -75c0 -32 -1.5 -60.667 -4.5 -86s-8.33301 -47.833 -16 -67.5s-18.667 -35 -33 -46s-32.166 -16.5 -53.499 -16.5
c-20.667 0 -37.834 5.66699 -51.501 17s-24.167 26.666 -31.5 45.999s-12.5 41.833 -15.5 67.5s-4.5 54.167 -4.5 85.5c0 26.667 1.5 51.667 4.5 75s8.33301 44.666 16 63.999s18.334 34.666 32.001 45.999s30.5 17 50.5 17zM120 595.001l73 41.001
c30.667 -33.333 60.667 -72.333 90 -117h-2c-18 11.333 -37.667 17 -59 17c-37.333 0 -68.666 -6.83301 -93.999 -20.5s-45.166 -32.667 -59.499 -57s-24.5 -52.333 -30.5 -84s-9 -67.167 -9 -106.5c0 -40.667 3 -77.667 9 -111s16.167 -62.833 30.5 -88.5
s34.166 -45.834 59.499 -60.501s56.666 -22 93.999 -22s68.5 7.33301 93.5 22s44.833 34.834 59.5 60.501s25 55.167 31 88.5s9 70.333 9 111c0 90 -13.333 166.167 -40 228.5s-67 120.5 -121 174.5l70 40l-38 42l-74 -42c-18.667 17.333 -42.667 37.666 -72 60.999l-64 -28
c31.333 -24.667 57 -47 77 -67l-71 -40z" />
    <glyph glyph-name="ntilde" unicode="&#xf1;" horiz-adv-x="463" 
d="M325 740l-0.00292969 -1.99902c-3.33301 -13.333 -7.16602 -23.833 -11.499 -31.5s-12.166 -11.5 -23.499 -11.5c-7.33301 0 -21.333 4.66699 -42 14l-10 5c-25.333 12.667 -45.333 19 -60 19c-26 0 -48 -11 -66 -33s-27 -48 -27 -78h54
c2 11.333 6.16699 21.666 12.5 30.999s15.166 14 26.499 14c6 0 19 -4.66699 39 -14c16.667 -8 30.834 -14 42.501 -18s22.834 -6 33.501 -6c26.667 0 47.667 11.5 63 34.5s23 48.5 23 76.5h-54zM54.9971 0.000976562h84v370c0 36 11 63 33 81s46.333 27 73 27
c18 0 32.5 -3.5 43.5 -10.5s19 -15.833 24 -26.5s8.16699 -21.667 9.5 -33s2 -24 2 -38v-370h84v380c0 22.667 -1 42.667 -3 60s-7.33301 34.5 -16 51.5s-22.834 31 -42.501 42s-46.167 16.5 -79.5 16.5c-27.333 0 -53.166 -6.83301 -77.499 -20.5
s-41.833 -32.5 -52.5 -56.5h-2v63h-80v-536z" />
    <glyph glyph-name="ograve" unicode="&#xf2;" 
d="M104 752l108 -142h60l-70 142h-98zM29 268c0 -40.667 3 -77.667 9 -111s16.167 -62.833 30.5 -88.5s34.166 -45.834 59.499 -60.501s56.666 -22 93.999 -22s68.5 7.33301 93.5 22s44.833 34.834 59.5 60.501s25 55.167 31 88.5s9 70.333 9 111s-3 77.667 -9 111
s-16.167 62.833 -30.5 88.5s-34.166 45.834 -59.499 60.501s-56.666 22 -93.999 22s-68.5 -7.33301 -93.5 -22s-44.833 -34.834 -59.5 -60.501s-25 -55.167 -31 -88.5s-9 -70.333 -9 -111zM220 52c-20.667 0 -37.835 5.66992 -51.502 17.0029s-24.167 26.666 -31.5 45.999
s-12.5 41.833 -15.5 67.5s-4.5 54.167 -4.5 85.5c0 32 1.5 60.667 4.5 86s8.16699 47.666 15.5 66.999s17.833 34.666 31.5 45.999s30.834 17 51.501 17c22 0 40 -5.5 54 -16.5s24.833 -26.333 32.5 -46s13 -42.167 16 -67.5s4.5 -54 4.5 -86s-1.5 -60.667 -4.5 -86
s-8.33301 -47.833 -16 -67.5s-18.667 -35 -33 -46s-32.166 -16.5 -53.499 -16.5z" />
    <glyph glyph-name="oacute" unicode="&#xf3;" 
d="M172 610h60l108 142h-98zM29 268c0 -40.667 3 -77.667 9 -111s16.167 -62.833 30.5 -88.5s34.166 -45.834 59.499 -60.501s56.666 -22 93.999 -22s68.5 7.33301 93.5 22s44.833 34.834 59.5 60.501s25 55.167 31 88.5s9 70.333 9 111s-3 77.667 -9 111
s-16.167 62.833 -30.5 88.5s-34.166 45.834 -59.499 60.501s-56.666 22 -93.999 22s-68.5 -7.33301 -93.5 -22s-44.833 -34.834 -59.5 -60.501s-25 -55.167 -31 -88.5s-9 -70.333 -9 -111zM220 52c-20.667 0 -37.835 5.66992 -51.502 17.0029s-24.167 26.666 -31.5 45.999
s-12.5 41.833 -15.5 67.5s-4.5 54.167 -4.5 85.5c0 32 1.5 60.667 4.5 86s8.16699 47.666 15.5 66.999s17.833 34.666 31.5 45.999s30.834 17 51.501 17c22 0 40 -5.5 54 -16.5s24.833 -26.333 32.5 -46s13 -42.167 16 -67.5s4.5 -54 4.5 -86s-1.5 -60.667 -4.5 -86
s-8.33301 -47.833 -16 -67.5s-18.667 -35 -33 -46s-32.166 -16.5 -53.499 -16.5z" />
    <glyph glyph-name="ocircumflex" unicode="&#xf4;" 
d="M83 610h78l61 88l61 -88h78l-100 142h-77zM29 268c0 -40.667 3 -77.667 9 -111s16.167 -62.833 30.5 -88.5s34.166 -45.834 59.499 -60.501s56.666 -22 93.999 -22s68.5 7.33301 93.5 22s44.833 34.834 59.5 60.501s25 55.167 31 88.5s9 70.333 9 111s-3 77.667 -9 111
s-16.167 62.833 -30.5 88.5s-34.166 45.834 -59.499 60.501s-56.666 22 -93.999 22s-68.5 -7.33301 -93.5 -22s-44.833 -34.834 -59.5 -60.501s-25 -55.167 -31 -88.5s-9 -70.333 -9 -111zM220 52c-20.667 0 -37.835 5.66992 -51.502 17.0029s-24.167 26.666 -31.5 45.999
s-12.5 41.833 -15.5 67.5s-4.5 54.167 -4.5 85.5c0 32 1.5 60.667 4.5 86s8.16699 47.666 15.5 66.999s17.833 34.666 31.5 45.999s30.834 17 51.501 17c22 0 40 -5.5 54 -16.5s24.833 -26.333 32.5 -46s13 -42.167 16 -67.5s4.5 -54 4.5 -86s-1.5 -60.667 -4.5 -86
s-8.33301 -47.833 -16 -67.5s-18.667 -35 -33 -46s-32.166 -16.5 -53.499 -16.5z" />
    <glyph glyph-name="otilde" unicode="&#xf5;" 
d="M315 740l-0.00292969 -1.99902c-3.33301 -13.333 -7.16602 -23.833 -11.499 -31.5s-12.166 -11.5 -23.499 -11.5c-7.33301 0 -21.333 4.66699 -42 14l-10 5c-25.333 12.667 -45.333 19 -60 19c-26 0 -48 -11 -66 -33s-27 -48 -27 -78h54
c2 11.333 6.16699 21.666 12.5 30.999s15.166 14 26.499 14c6 0 19 -4.66699 39 -14c16.667 -8 30.834 -14 42.501 -18s22.834 -6 33.501 -6c26.667 0 47.667 11.5 63 34.5s23 48.5 23 76.5h-54zM28.9971 268.001c0 -40.667 3 -77.667 9 -111s16.167 -62.833 30.5 -88.5
s34.166 -45.834 59.499 -60.501s56.666 -22 93.999 -22s68.5 7.33301 93.5 22s44.833 34.834 59.5 60.501s25 55.167 31 88.5s9 70.333 9 111s-3 77.667 -9 111s-16.167 62.833 -30.5 88.5s-34.166 45.834 -59.499 60.501s-56.666 22 -93.999 22s-68.5 -7.33301 -93.5 -22
s-44.833 -34.834 -59.5 -60.501s-25 -55.167 -31 -88.5s-9 -70.333 -9 -111zM219.997 52.001c-20.667 0 -37.835 5.66992 -51.502 17.0029s-24.167 26.666 -31.5 45.999s-12.5 41.833 -15.5 67.5s-4.5 54.167 -4.5 85.5c0 32 1.5 60.667 4.5 86s8.16699 47.666 15.5 66.999
s17.833 34.666 31.5 45.999s30.834 17 51.501 17c22 0 40 -5.5 54 -16.5s24.833 -26.333 32.5 -46s13 -42.167 16 -67.5s4.5 -54 4.5 -86s-1.5 -60.667 -4.5 -86s-8.33301 -47.833 -16 -67.5s-18.667 -35 -33 -46s-32.166 -16.5 -53.499 -16.5z" />
    <glyph glyph-name="odieresis" unicode="&#xf6;" 
d="M102 634h78v101h-78v-101zM264 634h78v101h-78v-101zM29 268c0 -40.667 3 -77.667 9 -111s16.167 -62.833 30.5 -88.5s34.166 -45.834 59.499 -60.501s56.666 -22 93.999 -22s68.5 7.33301 93.5 22s44.833 34.834 59.5 60.501s25 55.167 31 88.5s9 70.333 9 111
s-3 77.667 -9 111s-16.167 62.833 -30.5 88.5s-34.166 45.834 -59.499 60.501s-56.666 22 -93.999 22s-68.5 -7.33301 -93.5 -22s-44.833 -34.834 -59.5 -60.501s-25 -55.167 -31 -88.5s-9 -70.333 -9 -111zM220 52c-20.667 0 -37.835 5.66992 -51.502 17.0029
s-24.167 26.666 -31.5 45.999s-12.5 41.833 -15.5 67.5s-4.5 54.167 -4.5 85.5c0 32 1.5 60.667 4.5 86s8.16699 47.666 15.5 66.999s17.833 34.666 31.5 45.999s30.834 17 51.501 17c22 0 40 -5.5 54 -16.5s24.833 -26.333 32.5 -46s13 -42.167 16 -67.5s4.5 -54 4.5 -86
s-1.5 -60.667 -4.5 -86s-8.33301 -47.833 -16 -67.5s-18.667 -35 -33 -46s-32.166 -16.5 -53.499 -16.5z" />
    <glyph glyph-name="divide" unicode="&#xf7;" horiz-adv-x="600" 
d="M47 220h506v66h-506v-66zM244 464c0 -15.333 5.5 -28.5 16.5 -39.5s24.167 -16.5 39.5 -16.5s28.5 5.5 39.5 16.5s16.5 24.167 16.5 39.5s-5.5 28.5 -16.5 39.5s-24.167 16.5 -39.5 16.5s-28.5 -5.5 -39.5 -16.5s-16.5 -24.167 -16.5 -39.5zM244 42
c0 -15.333 5.5 -28.5 16.5 -39.5s24.167 -16.5 39.5 -16.5s28.5 5.5 39.5 16.5s16.5 24.167 16.5 39.5s-5.5 28.5 -16.5 39.5s-24.167 16.5 -39.5 16.5s-28.5 -5.5 -39.5 -16.5s-16.5 -24.167 -16.5 -39.5z" />
    <glyph glyph-name="oslash" unicode="&#xf8;" 
d="M310 407c6 -18 10.332 -38.667 12.999 -62s4 -49 4 -77c0 -32 -1.5 -60.667 -4.5 -86s-8.33301 -47.833 -16 -67.5s-18.667 -35 -33 -46s-32.166 -16.5 -53.499 -16.5s-39 6.33301 -53 19zM133.999 126c-6 19.333 -10.334 40.835 -13.001 64.502s-4 49.5 -4 77.5
c0 32 1.5 60.667 4.5 86s8.16699 47.666 15.5 66.999s17.833 34.666 31.5 45.999s30.834 17 51.501 17c22 0 41 -7 57 -21zM63.998 -39.998l47 -19l27 63c23.333 -12 51.333 -18 84 -18c37.333 0 68.5 7.33301 93.5 22s44.833 34.834 59.5 60.501s25 55.167 31 88.5
s9 70.333 9 111c0 52 -5 97.333 -15 136s-26.667 71 -50 97l30 71l-48 21l-26 -61c-22.667 12 -50.667 18 -84 18c-37.333 0 -68.5 -7.33301 -93.5 -22s-44.833 -34.834 -59.5 -60.501s-25 -55.167 -31 -88.5s-9 -70.333 -9 -111c0 -53.333 5.16699 -99.333 15.5 -138
s27.5 -70 51.5 -94z" />
    <glyph glyph-name="ugrave" unicode="&#xf9;" horiz-adv-x="463" 
d="M114 752l108 -142h60l-70 142h-98zM408 536l-84 -0.000976562v-370c0 -35.333 -11 -62.166 -33 -80.499s-46.333 -27.5 -73 -27.5c-18 0 -32.5 3.5 -43.5 10.5s-19 15.833 -24 26.5s-8.16699 21.667 -9.5 33s-2 24 -2 38v370h-84v-380c0 -22.667 1 -42.667 3 -60
s7.33301 -34.5 16 -51.5s22.834 -31 42.501 -42s46.167 -16.5 79.5 -16.5c27.333 0 53.166 7 77.499 21s41.833 32.667 52.5 56h2v-63h80v536z" />
    <glyph glyph-name="uacute" unicode="&#xfa;" horiz-adv-x="463" 
d="M182 610h60l108 142h-98zM408 536l-84 -0.000976562v-370c0 -35.333 -11 -62.166 -33 -80.499s-46.333 -27.5 -73 -27.5c-18 0 -32.5 3.5 -43.5 10.5s-19 15.833 -24 26.5s-8.16699 21.667 -9.5 33s-2 24 -2 38v370h-84v-380c0 -22.667 1 -42.667 3 -60
s7.33301 -34.5 16 -51.5s22.834 -31 42.501 -42s46.167 -16.5 79.5 -16.5c27.333 0 53.166 7 77.499 21s41.833 32.667 52.5 56h2v-63h80v536z" />
    <glyph glyph-name="ucircumflex" unicode="&#xfb;" horiz-adv-x="463" 
d="M93 610h78l61 88l61 -88h78l-100 142h-77zM408 536l-84 -0.000976562v-370c0 -35.333 -11 -62.166 -33 -80.499s-46.333 -27.5 -73 -27.5c-18 0 -32.5 3.5 -43.5 10.5s-19 15.833 -24 26.5s-8.16699 21.667 -9.5 33s-2 24 -2 38v370h-84v-380c0 -22.667 1 -42.667 3 -60
s7.33301 -34.5 16 -51.5s22.834 -31 42.501 -42s46.167 -16.5 79.5 -16.5c27.333 0 53.166 7 77.499 21s41.833 32.667 52.5 56h2v-63h80v536z" />
    <glyph glyph-name="udieresis" unicode="&#xfc;" horiz-adv-x="463" 
d="M112 634h78v101h-78v-101zM274 634h78v101h-78v-101zM408 536l-84 -0.000976562v-370c0 -35.333 -11 -62.166 -33 -80.499s-46.333 -27.5 -73 -27.5c-18 0 -32.5 3.5 -43.5 10.5s-19 15.833 -24 26.5s-8.16699 21.667 -9.5 33s-2 24 -2 38v370h-84v-380
c0 -22.667 1 -42.667 3 -60s7.33301 -34.5 16 -51.5s22.834 -31 42.501 -42s46.167 -16.5 79.5 -16.5c27.333 0 53.166 7 77.499 21s41.833 32.667 52.5 56h2v-63h80v536z" />
    <glyph glyph-name="yacute" unicode="&#xfd;" horiz-adv-x="406" 
d="M153 610h60l108 142h-98zM168 -11l-16 -47c-5.33301 -16.667 -13.166 -29.5 -23.499 -38.5s-24.5 -13.5 -42.5 -13.5c-20.667 0 -37 1 -49 3v-66c1.33301 0 4.33301 -0.333008 9 -1c17.333 -1.33301 34.666 -2 51.999 -2c24 0 44.333 3.66699 61 11s30 17.333 40 30
s18 26.667 24 42s12 34.333 18 57l155 572h-92l-94 -430h-2l-106 430h-92z" />
    <glyph glyph-name="thorn" unicode="&#xfe;" horiz-adv-x="463" 
d="M134 268c0 33.333 1.33105 62.499 3.99805 87.499s7.83398 46.667 15.501 65s18.667 32.5 33 42.5s32.833 15 55.5 15c36.667 0 62.167 -17.167 76.5 -51.5s21.5 -83.833 21.5 -148.5c0 -74 -7.16699 -129.167 -21.5 -165.5s-39.833 -54.5 -76.5 -54.5
c-21.333 0 -39.166 5.83301 -53.499 17.5s-25.5 27.167 -33.5 46.5s-13.5 41.333 -16.5 66s-4.5 51.334 -4.5 80.001zM54.998 -176.001l84 0.000976562v237h2c9.33301 -22.667 24.333 -40.834 45 -54.501s43 -20.5 67 -20.5c33.333 0 61.333 9 84 27s40.667 41.5 54 70.5
s22.833 60.167 28.5 93.5s8.5 67 8.5 101c0 84.667 -14 151.167 -42 199.5s-72.333 72.5 -133 72.5c-24 0 -47.167 -7 -69.5 -21s-36.5 -32 -42.5 -54h-2v239h-84v-890z" />
    <glyph glyph-name="ydieresis" unicode="&#xff;" horiz-adv-x="406" 
d="M83 634h78v101h-78v-101zM245 634h78v101h-78v-101zM168 -11l-16 -47c-5.33301 -16.667 -13.166 -29.5 -23.499 -38.5s-24.5 -13.5 -42.5 -13.5c-20.667 0 -37 1 -49 3v-66c1.33301 0 4.33301 -0.333008 9 -1c17.333 -1.33301 34.666 -2 51.999 -2
c24 0 44.333 3.66699 61 11s30 17.333 40 30s18 26.667 24 42s12 34.333 18 57l155 572h-92l-94 -430h-2l-106 430h-92z" />
    <glyph glyph-name="OE" unicode="&#x152;" horiz-adv-x="796" 
d="M500 334l244.001 -0.000976562v78h-244v224h260v78h-342v-55h-2c-10.667 22 -29.334 39 -56.001 51s-54 18 -82 18c-46.667 0 -85.5 -10.333 -116.5 -31s-54.667 -48.5 -71 -83.5s-27.5 -73.667 -33.5 -116s-9 -89.166 -9 -140.499c0 -54 3 -102.5 9 -145.5
s17.167 -81.5 33.5 -115.5s39.833 -60.833 70.5 -80.5s69.667 -29.5 117 -29.5c30.667 0 58.5 7 83.5 21s41.833 32.667 50.5 56h2v-63h358v78h-272v256zM412.001 231.999c0 -26 -1.83203 -49.1699 -5.49902 -69.5029s-10.167 -38.333 -19.5 -54s-23 -28 -41 -37
s-40.667 -13.5 -68 -13.5c-30 0 -54.667 7.5 -74 22.5s-33.833 35.833 -43.5 62.5s-16.167 57.334 -19.5 92.001s-5 75.334 -5 122.001s1.66699 87.334 5 122.001s9.83301 65.334 19.5 92.001s24.167 47.5 43.5 62.5s44 22.5 74 22.5c31.333 0 56.166 -5 74.499 -15
s31.833 -23.833 40.5 -41.5s14 -36.834 16 -57.501s3 -47 3 -79v-231z" />
    <glyph glyph-name="oe" unicode="&#x153;" horiz-adv-x="722" 
d="M683 292c0 34 -1.83398 65.5039 -5.50098 94.5039s-11.167 56 -22.5 81s-28.5 45 -51.5 60s-52.833 22.5 -89.5 22.5c-30 0 -57.667 -8.16699 -83 -24.5s-44.333 -38.5 -57 -66.5c-16.667 32 -36.334 55.167 -59.001 69.5s-52 21.5 -88 21.5s-66.167 -7.5 -90.5 -22.5
s-43.666 -35.667 -57.999 -62s-24.5 -56 -30.5 -89s-9 -69.167 -9 -108.5c0 -38.667 3 -74.667 9 -108s16 -63.166 30 -89.499s33.333 -47 58 -62s55 -22.5 91 -22.5c31.333 0 59.5 8.16699 84.5 24.5s43.833 38.833 56.5 67.5v0c2 -6.66699 5.33301 -14.5 10 -23.5
s12.167 -18.667 22.5 -29s24.666 -19.5 42.999 -27.5s40.5 -12 66.5 -12c32 0 59 6.66699 81 20s39.5 30.166 52.5 50.499s22.167 41.166 27.5 62.499s8 40.333 8 57h-84c0 -12.667 -1.16699 -25.834 -3.5 -39.501s-6.66602 -26.834 -12.999 -39.501
s-15.666 -23.334 -27.999 -32.001s-27.833 -13 -46.5 -13c-22 0 -39.5 6.33301 -52.5 19s-22.5 29.167 -28.5 49.5s-9.66699 41 -11 62s-2 46.167 -2 75.5h273v34zM331.999 268.004c0 -30 -1.50098 -57.667 -4.50098 -83s-8.33301 -48 -16 -68s-18.5 -35.833 -32.5 -47.5
s-31.333 -17.5 -52 -17.5c-20 0 -36.5 5.83301 -49.5 17.5s-23.167 27.5 -30.5 47.5s-12.5 42.667 -15.5 68s-4.5 53 -4.5 83c0 30.667 1.5 58.5 4.5 83.5s8.16699 47.5 15.5 67.5s17.5 35.833 30.5 47.5s29.5 17.5 49.5 17.5c21.333 0 38.833 -5.83301 52.5 -17.5
s24.334 -27.5 32.001 -47.5s13 -42.5 16 -67.5s4.5 -52.833 4.5 -83.5zM412.998 344.004c0 10.667 1.16602 23.6689 3.49902 39.002s6.66602 30.666 12.999 45.999s15.833 28.333 28.5 39s28.667 16 48 16c16.667 0 30.834 -3.83301 42.501 -11.5
s20.834 -17.834 27.501 -30.501s11.5 -26.5 14.5 -41.5s4.5 -30.833 4.5 -47.5v-29h-182v20z" />
    <glyph glyph-name="Scaron" unicode="&#x160;" horiz-adv-x="500" 
d="M389 895h-78l-61 -88l-61 88h-78l100 -142h77zM449 529c-0.666992 66 -17.333 115.67 -50 149.003s-82.667 50 -150 50c-42.667 0 -78 -6.66699 -106 -20s-49.5 -30.333 -64.5 -51s-25.167 -41.834 -30.5 -63.501s-8 -42.5 -8 -62.5c0 -33.333 5.16699 -61.333 15.5 -84
s24 -41.167 41 -55.5s35.167 -25.666 54.5 -33.999s44 -17.5 74 -27.5c25.333 -8.66699 46.166 -16.334 62.499 -23.001s31.333 -15.334 45 -26.001s24.5 -23.834 32.5 -39.501s12 -34.834 12 -57.501c0 -37.333 -11.833 -67.666 -35.5 -90.999s-53.167 -35 -88.5 -35
c-30.667 0 -55.167 4.66699 -73.5 14s-31.833 21.666 -40.5 36.999s-14.167 32 -16.5 50s-3.5 39.667 -3.5 65h-88c0 -80 16 -139.667 48 -179s88 -59 168 -59c27.333 0 54 3.5 80 10.5s49.667 18.667 71 35s38.5 38.333 51.5 66s19.5 61.167 19.5 100.5
c0 33.333 -5.16699 61.333 -15.5 84s-24 41 -41 55s-35.167 25 -54.5 33s-44 17 -74 27c-25.333 8 -46.166 15.333 -62.499 22s-31.333 15 -45 25s-24.5 22.833 -32.5 38.5s-12 34.834 -12 57.501c0 37.333 10.333 66 31 86s49.667 30 87 30c40 0 68.5 -11.167 85.5 -33.5
s25.5 -53.5 25.5 -93.5h88z" />
    <glyph glyph-name="scaron" unicode="&#x161;" horiz-adv-x="407" 
d="M343 752h-78l-61 -88l-61 88h-78l100 -142h77zM369 379c0 21.333 -1.50098 41.0059 -4.50098 59.0059s-9.83301 35.667 -20.5 53s-27.167 31.5 -49.5 42.5s-51.833 16.5 -88.5 16.5c-49.333 0 -90.166 -12.667 -122.499 -38s-48.5 -62 -48.5 -110
c0 -26 3.5 -47.5 10.5 -64.5s16.167 -30.833 27.5 -41.5s23.666 -18.834 36.999 -24.501s30.333 -12.167 51 -19.5l6 -2c2.66699 -0.666992 8.33398 -2.33398 17.001 -5.00098c38.667 -12.667 65 -24.334 79 -35.001c11.333 -8 20 -17.5 26 -28.5s9 -24.5 9 -40.5
c0 -18 -3.16699 -32.833 -9.5 -44.5s-14.166 -20.834 -23.499 -27.501s-18.833 -11.167 -28.5 -13.5s-18.834 -3.5 -27.501 -3.5c-37.333 0 -63.333 11.167 -78 33.5s-22 52.5 -22 90.5h-84c0 -20.667 1.5 -40.667 4.5 -60s10.167 -39 21.5 -59s30 -36.833 56 -50.5
s60 -20.5 102 -20.5c52 0 93.833 14.333 125.5 43s47.5 70.334 47.5 125.001c0 25.333 -3.5 46.666 -10.5 63.999s-16.5 31.166 -28.5 41.499s-25 18.666 -39 24.999s-31.667 13.166 -53 20.499c-5.33301 2 -13.333 4.66699 -24 8
c-37.333 11.333 -64.666 22.833 -81.999 34.5s-26 29.834 -26 54.501c0 17.333 3 31.666 9 42.999s13.667 19.833 23 25.5s18.666 9.33398 27.999 11.001s18.333 2.5 27 2.5c29.333 0 49.833 -8.5 61.5 -25.5s17.5 -43.5 17.5 -79.5h84z" />
    <glyph glyph-name="Ydieresis" unicode="&#x178;" horiz-adv-x="462" 
d="M111 777h78v101h-78v-101zM273 777h78v101h-78v-101zM187 280v-280h88v280l189 434h-92l-141 -334l-136 334h-97z" />
    <glyph glyph-name="florin" unicode="&#x192;" horiz-adv-x="480" 
d="M-17 -172c16 -2.66699 34.998 -3.99902 56.998 -3.99902c48.667 0 86.334 12 113.001 36s45 60.333 55 109l80 411h109l11 60h-109l15 78c9.33301 49.333 19.666 83.333 30.999 102s34 28 68 28c14 0 25.667 -1.33301 35 -4l14 66c-17.333 2.66699 -33.333 4 -48 4
c-46.667 0 -83.667 -9 -111 -27s-45.666 -48.333 -54.999 -91l-33 -156h-104l-11 -60h104l-79 -400c-6.66699 -34.667 -15.667 -58.334 -27 -71.001s-28.666 -19 -51.999 -19c-10.667 0 -20.5 0.333008 -29.5 1s-15.5 1.66699 -19.5 3z" />
    <glyph glyph-name="circumflex" unicode="&#x2c6;" horiz-adv-x="204" 
d="M-37 610h78l61 88l61 -88h78l-100 142h-77z" />
    <glyph glyph-name="tilde" unicode="&#x2dc;" horiz-adv-x="204" 
d="M195 740l-0.00292969 -1.99902c-3.33301 -13.333 -7.16602 -23.833 -11.499 -31.5s-12.166 -11.5 -23.499 -11.5c-7.33301 0 -21.333 4.66699 -42 14l-10 5c-25.333 12.667 -45.333 19 -60 19c-26 0 -48 -11 -66 -33s-27 -48 -27 -78h54
c2 11.333 6.16699 21.666 12.5 30.999s15.166 14 26.499 14c6 0 19 -4.66699 39 -14c16.667 -8 30.834 -14 42.501 -18s22.834 -6 33.501 -6c26.667 0 47.667 11.5 63 34.5s23 48.5 23 76.5h-54z" />
    <glyph glyph-name="endash" unicode="&#x2013;" horiz-adv-x="500" 
d="M0 248h500v72h-500v-72z" />
    <glyph glyph-name="emdash" unicode="&#x2014;" horiz-adv-x="1000" 
d="M0 248h1000v72h-1000v-72z" />
    <glyph glyph-name="quoteleft" unicode="&#x2018;" horiz-adv-x="240" 
d="M166 566l-43.999 -0.000976562v24c0 20.667 3 36.667 9 48s17.667 21 35 29v47c-20.667 -5.33301 -37.334 -13.5 -50.001 -24.5s-22 -23.667 -28 -38s-9.83301 -29.666 -11.5 -45.999s-2.5 -35.833 -2.5 -58.5v-87h92v106z" />
    <glyph glyph-name="quoteright" unicode="&#x2019;" horiz-adv-x="240" 
d="M74 608l43.999 0.000976562v-24c0 -20.667 -3 -36.667 -9 -48s-17.667 -21 -35 -29v-47c20.667 5.33301 37.334 13.5 50.001 24.5s22 23.667 28 38s9.83301 29.666 11.5 45.999s2.5 35.833 2.5 58.5v87h-92v-106z" />
    <glyph glyph-name="quotesinglbase" unicode="&#x201a;" horiz-adv-x="240" 
d="M74 0l43.999 0.000976562v-24c0 -20.667 -3 -36.667 -9 -48s-17.667 -21 -35 -29v-47c20.667 5.33301 37.334 13.5 50.001 24.5s22 23.667 28 38s9.83301 29.666 11.5 45.999s2.5 35.833 2.5 58.5v87h-92v-106z" />
    <glyph glyph-name="quotedblleft" unicode="&#x201c;" horiz-adv-x="407" 
d="M328 566l-43.999 -0.000976562v24c0 20.667 3 36.667 9 48s17.667 21 35 29v47c-20.667 -5.33301 -37.334 -13.5 -50.001 -24.5s-22 -23.667 -28 -38s-9.83301 -29.666 -11.5 -45.999s-2.5 -35.833 -2.5 -58.5v-87h92v106zM171.001 565.999l-43.999 -0.000976562v24
c0 20.667 3 36.667 9 48s17.667 21 35 29v47c-20.667 -5.33301 -37.334 -13.5 -50.001 -24.5s-22 -23.667 -28 -38s-9.83301 -29.666 -11.5 -45.999s-2.5 -35.833 -2.5 -58.5v-87h92v106z" />
    <glyph glyph-name="quotedblright" unicode="&#x201d;" horiz-adv-x="407" 
d="M328 714l-92.001 0.000976562v-106h44v-24c0 -20.667 -3 -36.667 -9 -48s-17.667 -21 -35 -29v-47c20.667 5.33301 37.334 13.5 50.001 24.5s22 23.667 28 38s9.83301 29.666 11.5 45.999s2.5 35.833 2.5 58.5v87zM170.999 714.001l-92.001 0.000976562v-106h44v-24
c0 -20.667 -3 -36.667 -9 -48s-17.667 -21 -35 -29v-47c20.667 5.33301 37.334 13.5 50.001 24.5s22 23.667 28 38s9.83301 29.666 11.5 45.999s2.5 35.833 2.5 58.5v87z" />
    <glyph glyph-name="quotedblbase" unicode="&#x201e;" horiz-adv-x="407" 
d="M328 106l-92.001 0.000976562v-106h44v-24c0 -20.667 -3 -36.667 -9 -48s-17.667 -21 -35 -29v-47c20.667 5.33301 37.334 13.5 50.001 24.5s22 23.667 28 38s9.83301 29.666 11.5 45.999s2.5 35.833 2.5 58.5v87zM170.999 106.001l-92.001 0.000976562v-106h44v-24
c0 -20.667 -3 -36.667 -9 -48s-17.667 -21 -35 -29v-47c20.667 5.33301 37.334 13.5 50.001 24.5s22 23.667 28 38s9.83301 29.666 11.5 45.999s2.5 35.833 2.5 58.5v87z" />
    <glyph glyph-name="dagger" unicode="&#x2020;" horiz-adv-x="482" 
d="M199 508h-172v-72h172v-576h84v576h172v72h-172v206h-84v-206z" />
    <glyph glyph-name="daggerdbl" unicode="&#x2021;" horiz-adv-x="482" 
d="M199 521h-172v-72h172v-317h-172v-72h172v-200h84v200h172v72h-172v317h172v72h-172v193h-84v-193z" />
    <glyph glyph-name="bullet" unicode="&#x2022;" horiz-adv-x="500" 
d="M72 357c0 -24 4.66699 -46.833 14 -68.5s22.166 -40.667 38.499 -57s35.333 -29.166 57 -38.499s44.5 -14 68.5 -14s46.833 4.66699 68.5 14s40.834 22.166 57.501 38.499s29.5 35.333 38.5 57s13.5 44.5 13.5 68.5s-4.5 46.833 -13.5 68.5s-21.833 40.834 -38.5 57.501
s-35.834 29.5 -57.501 38.5s-44.5 13.5 -68.5 13.5s-46.833 -4.5 -68.5 -13.5s-40.667 -21.833 -57 -38.5s-29.166 -35.834 -38.499 -57.501s-14 -44.5 -14 -68.5z" />
    <glyph glyph-name="ellipsis" unicode="&#x2026;" horiz-adv-x="1000" 
d="M121 0h92v106h-92v-106zM454 0h92v106h-92v-106zM787 0h92v106h-92v-106z" />
    <glyph glyph-name="perthousand" unicode="&#x2030;" horiz-adv-x="1037" 
d="M860 40c-25.333 0 -41.5 10.833 -48.5 32.5s-10.5 56.834 -10.5 105.501s3.5 83.834 10.5 105.501s23.167 32.5 48.5 32.5s41.5 -10.833 48.5 -32.5s10.5 -56.834 10.5 -105.501s-3.5 -83.834 -10.5 -105.501s-23.167 -32.5 -48.5 -32.5zM169 -14h70l310 722h-70z
M177 378c-25.333 0 -41.5 10.833 -48.5 32.5s-10.5 56.834 -10.5 105.501s3.5 83.834 10.5 105.501s23.167 32.5 48.5 32.5s41.5 -10.833 48.5 -32.5s10.5 -56.834 10.5 -105.501s-3.5 -83.834 -10.5 -105.501s-23.167 -32.5 -48.5 -32.5zM860 -14
c28.667 0 51.834 4.99805 69.501 14.998s30.834 23.833 39.501 41.5s14.5 37.334 17.5 59.001s4.5 47.167 4.5 76.5s-1.5 54.833 -4.5 76.5s-8.83301 41.334 -17.5 59.001s-21.834 31.5 -39.501 41.5s-40.834 15 -69.501 15s-51.834 -5 -69.501 -15
s-30.834 -23.833 -39.501 -41.5s-14.5 -37.334 -17.5 -59.001s-4.5 -47.167 -4.5 -76.5s1.5 -54.833 4.5 -76.5s8.83301 -41.167 17.5 -58.5s21.834 -31.166 39.501 -41.499s40.834 -15.5 69.501 -15.5zM177 323.998c28.667 0 51.834 4.99805 69.501 14.998
s30.834 23.833 39.501 41.5s14.5 37.334 17.5 59.001s4.5 47.167 4.5 76.5s-1.5 54.833 -4.5 76.5s-8.83301 41.334 -17.5 59.001s-21.834 31.5 -39.501 41.5s-40.834 15 -69.501 15s-51.834 -5 -69.501 -15s-30.834 -23.833 -39.501 -41.5s-14.5 -37.334 -17.5 -59.001
s-4.5 -47.167 -4.5 -76.5s1.5 -54.833 4.5 -76.5s8.83301 -41.167 17.5 -58.5s21.834 -31.166 39.501 -41.499s40.834 -15.5 69.501 -15.5zM551 39.9961c-25.333 0 -41.5 10.833 -48.5 32.5s-10.5 56.834 -10.5 105.501s3.5 83.834 10.5 105.501s23.167 32.5 48.5 32.5
s41.5 -10.833 48.5 -32.5s10.5 -56.834 10.5 -105.501s-3.5 -83.834 -10.5 -105.501s-23.167 -32.5 -48.5 -32.5zM551 -14.0039c28.667 0 51.834 4.99805 69.501 14.998s30.834 23.833 39.501 41.5s14.5 37.334 17.5 59.001s4.5 47.167 4.5 76.5s-1.5 54.833 -4.5 76.5
s-8.83301 41.334 -17.5 59.001s-21.834 31.5 -39.501 41.5s-40.834 15 -69.501 15s-51.834 -5 -69.501 -15s-30.834 -23.833 -39.501 -41.5s-14.5 -37.334 -17.5 -59.001s-4.5 -47.167 -4.5 -76.5s1.5 -54.833 4.5 -76.5s8.83301 -41.167 17.5 -58.5
s21.834 -31.166 39.501 -41.499s40.834 -15.5 69.501 -15.5z" />
    <glyph glyph-name="guilsinglleft" unicode="&#x2039;" horiz-adv-x="240" 
d="M49 245l142 -143v88l-94 94l94 94v88l-142 -143v-78z" />
    <glyph glyph-name="guilsinglright" unicode="&#x203a;" horiz-adv-x="240" 
d="M191 323l-142 143v-88l94 -94l-94 -94v-88l142 143v78z" />
    <glyph glyph-name="trademark" unicode="&#x2122;" horiz-adv-x="990" 
d="M185 302h66v352h130v60h-329v-60h133v-352zM848 302h66v412h-98l-127 -316l-130 316h-98v-412h66v340h2l139 -340h39l139 340h2v-340z" />
    </font>
</defs>
</svg>
