<?xml version="1.0" standalone="no"?>
<!DOCTYPE svg PUBLIC "-//W3C//DTD SVG 1.1//EN" "http://www.w3.org/Graphics/SVG/1.1/DTD/svg11.dtd" >
<svg>
<metadata>
Created by FontForge 20110222 at Tue Mar 12 07:24:10 2013
 By Orthosie Webmaster
Copyright (c) 1985, 1987, 1991, 1993, 1997 Adobe Systems Incorporated.  All Rights Reserved.Helvetica is a trademark of Linotype-Hell AG and/or its subsidiaries.
</metadata>
<defs>
<font id="HelveticaCondensedLightLight" horiz-adv-x="444" >
  <font-face 
    font-family="HelveticaCondensedLightLight"
    font-weight="300"
    font-stretch="expanded"
    units-per-em="1000"
    panose-1="2 11 4 0 0 0 0 0 0 0"
    ascent="800"
    descent="-200"
    x-height="552"
    cap-height="750"
    bbox="-57 -250 1000 986"
    underline-thickness="50"
    underline-position="-50"
    unicode-range="U+0020-2122"
  />
<missing-glyph horiz-adv-x="502" 
d="M-1 0h500v500h-500v-500zM9 10v480h480v-480h-480z" />
    <glyph glyph-name=".notdef" horiz-adv-x="502" 
d="M-1 0h500v500h-500v-500zM9 10v480h480v-480h-480z" />
    <glyph glyph-name=".null" horiz-adv-x="0" 
 />
    <glyph glyph-name="nonmarkingreturn" horiz-adv-x="333" 
 />
    <glyph glyph-name="space" unicode=" " horiz-adv-x="222" 
 />
    <glyph glyph-name="exclam" unicode="!" horiz-adv-x="222" 
d="M133 189q0 2 4 82q8 187 8 280v199h-64v-199q0 -93 8 -280q4 -80 4 -82h40zM146 13v88h-69v-88h69z" />
    <glyph glyph-name="quotedbl" unicode="&#x22;" horiz-adv-x="309" 
d="M73 524h52v226h-52v-226zM184 524h52v226h-52v-226z" />
    <glyph glyph-name="numbersign" unicode="#" 
d="M49 0h47l64 249h70l-64 -249h50l62 249h91l15 51h-94l34 131h92l15 51h-96l65 262h-47l-65 -262h-70l66 262h-48l-65 -262h-96l-15 -51h99l-34 -131h-97l-15 -51h100zM172 300l35 131h69l-34 -131h-70z" />
    <glyph glyph-name="dollar" unicode="$" 
d="M197 402q-49 18 -74 54t-25 76q0 54 24 87t75 41v-258zM244 315q54 -22 84.5 -55t30.5 -84q0 -56 -30 -96.5t-85 -42.5v278zM244 -14q82 9 129 59t47 132q0 45 -13.5 76t-42.5 58q-22 21 -55 39t-65 32v278q51 -11 74 -50t23 -87h58q0 33 -7 63t-24.5 56t-48 45.5
t-75.5 28.5v62h-47v-67q-52 -5 -85 -26.5t-49.5 -49.5t-22 -53.5t-5.5 -44.5q0 -76 42 -121.5t120 -79.5v-298q-60 6 -85.5 52t-25.5 121h-60v-9q-1 -7 -1 -10q0 -87 43 -143t129 -63v-82h47v82z" />
    <glyph glyph-name="percent" unicode="%" horiz-adv-x="778" 
d="M575 358q-40 0 -66 -14.5t-41 -40t-21 -57t-6 -69.5t5 -69t19 -56t41 -39.5t68 -14.5q63 0 97.5 43t34.5 136q0 36 -6 67.5t-20.5 57.5t-40.5 41t-64 15zM577 42q-41 0 -60.5 31t-19.5 104q0 22 2.5 43.5t10 43t23.5 36t42 14.5q25 0 40.5 -13t23 -33.5t9.5 -42t2 -48.5
q0 -62 -17 -98.5t-56 -36.5zM207 728q-40 0 -66 -14.5t-41 -40t-21 -57t-6 -69.5t5 -69t19 -55.5t41 -39t68 -14.5q64 0 98 42.5t34 135.5q0 36 -6 67.5t-20.5 57.5t-40.5 41t-64 15zM209 413q-41 0 -60.5 31t-19.5 104q0 21 2.5 43t10 43t23.5 35.5t42 14.5q25 0 40.5 -13
t23 -33t9.5 -41.5t2 -48.5q0 -62 -17 -98.5t-56 -36.5zM215 -15h44l304 756h-44z" />
    <glyph glyph-name="ampersand" unicode="&#x26;" horiz-adv-x="611" 
d="M416 119q-25 -42 -61 -60.5t-85 -18.5q-64 0 -103 40.5t-39 107.5q0 65 28 108.5t86 86.5zM260 470q-29 40 -47 80t-18 82q0 38 20 58t56 20q77 0 77 -83q0 -47 -24.5 -88.5t-63.5 -68.5zM215 431q-72 -52 -112 -106.5t-40 -130.5q0 -99 55 -155.5t150 -56.5
q57 0 100.5 19.5t79.5 63.5l2 2q0 1 1 2l51 -76h71l-83 133l4 8q10 19 18.5 45t14.5 55.5t9.5 58t3.5 50.5h-65q-2 -89 -24 -155l-1 -2q-2 -2 -2 -4h-2l-154 244q58 43 89.5 92t31.5 116q0 62 -39 98t-99 36q-63 0 -100.5 -36.5t-37.5 -101.5q0 -57 18 -97.5t60 -101.5z" />
    <glyph glyph-name="quotesingle" unicode="'" horiz-adv-x="198" 
d="M73 524h52v226h-52v-226z" />
    <glyph glyph-name="parenleft" unicode="(" horiz-adv-x="278" 
d="M197 768q-72 -99 -108.5 -221t-36.5 -249q0 -137 35.5 -256.5t109.5 -232.5h47q-67 107 -97 229t-30 261q0 132 30.5 250.5t96.5 218.5h-47z" />
    <glyph glyph-name="parenright" unicode=")" horiz-adv-x="278" 
d="M81 -191q74 101 109.5 224t35.5 258q0 126 -37.5 248.5t-107.5 228.5h-47q2 -2 2 -3q3 -5 5 -7q64 -112 92 -229t28 -252q0 -130 -31 -249.5t-96 -218.5h47z" />
    <glyph glyph-name="asterisk" unicode="*" horiz-adv-x="389" 
d="M156 593l-74 -104l35 -27l77 107l75 -107l36 24l-72 105l109 36l-13 45l-111 -42v114h-44v-114l-112 42l-14 -42z" />
    <glyph glyph-name="plus" unicode="+" 
d="M197 220v-220h51v220h176v51h-176v219h-51v-219h-176v-51h176z" />
    <glyph glyph-name="comma" unicode="," horiz-adv-x="222" 
d="M77 -136q34 9 48.5 30.5t18.5 66.5q2 24 2 71v56h-69v-88h30v-13q0 -38 -5.5 -58t-24.5 -28v-37z" />
    <glyph glyph-name="hyphen" unicode="-" horiz-adv-x="333" 
d="M294 269v58h-259v-58h259z" />
    <glyph glyph-name="period" unicode="." horiz-adv-x="222" 
d="M146 0v88h-69v-88h69z" />
    <glyph glyph-name="slash" unicode="/" horiz-adv-x="278" 
d="M-10 -94h54l245 844h-55z" />
    <glyph glyph-name="zero" unicode="0" 
d="M37 370q0 -88 6 -154t25 -118t55.5 -82t95.5 -30q61 0 99.5 30.5t57.5 82t25 113t6 141.5q0 82 -5.5 146.5t-23 120.5t-55 90t-98.5 34q-42 0 -74.5 -15t-58.5 -55t-40.5 -114.5t-14.5 -189.5zM102 353q0 97 6.5 161t20 103t35 56t52.5 17q43 0 69 -24t38 -67t15.5 -99.5
t3.5 -141.5q0 -111 -12.5 -178t-31.5 -96.5t-37.5 -36.5t-42.5 -7q-63 0 -89.5 70.5t-26.5 242.5z" />
    <glyph glyph-name="one" unicode="1" 
d="M60 560q30 0 72 3l12 1q9 1 15 1q40 3 60 7v-572h65v744h-53q-8 -78 -48 -106.5t-123 -30.5v-47z" />
    <glyph glyph-name="two" unicode="2" 
d="M99 61q1 38 14 65.5t27 41.5q15 15 53 51q47 44 79.5 77.5t61 72.5t45.5 83.5t17 92.5q0 91 -49 145t-128 54q-88 0 -133.5 -61t-45.5 -160h62q1 35 6.5 64t17.5 52.5t34 37.5t55 14h10q6 -1 10 -1q47 -3 71.5 -45.5t24.5 -93.5q0 -40 -8 -70.5t-23 -55t-35.5 -47.5
t-57.5 -59q-21 -22 -38 -39q-13 -13 -36 -35q-53 -52 -74.5 -88.5t-24.5 -104.5v-52h362v61h-297z" />
    <glyph glyph-name="three" unicode="3" 
d="M192 353q44 -2 73 -17.5t44.5 -39t21 -48.5t5.5 -50q0 -31 -6.5 -59t-21.5 -50.5t-39 -35.5t-57 -13q-34 0 -57.5 12t-37 33.5t-19.5 49t-7 59.5h-61q0 -69 21 -112.5t52 -64t59 -26t52 -5.5q22 0 50 5.5t60 26t54.5 64.5t22.5 114q0 31 -6 60t-20 55t-39.5 45.5
t-62.5 27.5v2q35 14 57.5 37t33.5 47.5t14.5 44.5t3.5 36q0 86 -45 139.5t-130 53.5q-41 0 -71.5 -16t-50.5 -44t-29.5 -64t-9.5 -76h59q2 29 7.5 54t17.5 46t32 33.5t50 12.5q55 0 80 -38t25 -96q0 -149 -149 -149h-20v-54h44z" />
    <glyph glyph-name="four" unicode="4" 
d="M28 260v-60h253v-200h65v200h66v54h-66v490h-61zM87 254l192 373h2v-373h-194z" />
    <glyph glyph-name="five" unicode="5" 
d="M27 178q3 -90 45.5 -141t131.5 -51q52 0 89.5 20.5t60.5 56.5t33.5 81.5t10.5 95.5q0 47 -9 89.5t-29.5 76.5t-55.5 54t-85 20q-28 0 -55.5 -9t-45.5 -29l-2 2l28 225h224v61h-278l-43 -376h55q14 33 41 52.5t62 19.5q37 0 62.5 -15t39.5 -40.5t20 -57.5t6 -71
q0 -40 -6 -75t-21 -64t-40.5 -46t-62.5 -17q-30 0 -51 11t-35 31q-22 35 -26 96h-64z" />
    <glyph glyph-name="six" unicode="6" 
d="M222 416q36 0 60 -16.5t37.5 -43.5t18.5 -58.5t5 -65.5q0 -32 -5.5 -64.5t-19.5 -61.5t-37.5 -47.5t-57.5 -18.5q-35 0 -59 19.5t-37.5 51t-19 66t-5.5 68.5q0 33 5.5 62.5t19 54t37 39.5t58.5 15zM226 -14q53 0 89.5 23.5t56.5 61t28 80.5t8 85q0 41 -8.5 81.5t-28.5 75
t-53.5 56t-81.5 21.5q-41 0 -73 -18t-59 -53h-2q2 52 7.5 93.5t14.5 81.5q11 46 38 81t68 35q51 0 75 -28.5t28 -81.5h60q0 74 -43 118.5t-114 45.5q-66 0 -106 -36.5t-59 -93.5t-24.5 -115t-8.5 -136q0 -25 -1 -39q0 -62 6 -117t25 -105.5t57.5 -83t100.5 -32.5z" />
    <glyph glyph-name="seven" unicode="7" 
d="M51 669h296q-52 -67 -94 -150t-72 -173t-47.5 -178t-21.5 -168h65q8 104 23.5 188.5t47.5 169.5q11 30 29.5 71.5t40.5 86t46.5 86t47.5 69.5v59h-361v-61z" />
    <glyph glyph-name="eight" unicode="8" 
d="M142 396q-61 -32 -83.5 -80t-22.5 -115q0 -96 48 -155.5t123 -59.5h8q32 0 60.5 5t59.5 25t52.5 66t21.5 122q-1 65 -24 114.5t-81 77.5v2q41 18 60.5 60t19.5 93q0 87 -39 140t-123 53q-78 0 -119.5 -53t-41.5 -134q0 -58 17.5 -99.5t63.5 -59.5v-2zM121 544v6
q1 19 3.5 39.5t12.5 44t30.5 40t53.5 16.5q29 0 48.5 -11t31 -30.5t16.5 -43.5t5 -52q0 -25 -5 -48.5t-16.5 -43.5t-30.5 -31.5t-46 -11.5q-52 0 -76.5 35t-24.5 91h-2zM101 207q0 77 32.5 117t86.5 40q67 0 95.5 -43t28.5 -114q0 -34 -6 -63.5t-20.5 -53t-40 -37
t-61.5 -13.5q-30 1 -52.5 15t-36.5 38t-20 53.5t-6 60.5z" />
    <glyph glyph-name="nine" unicode="9" 
d="M221 690q35 0 59 -20t37 -51t18 -66t5 -69q0 -33 -5 -62.5t-18.5 -54t-36.5 -39.5t-58 -15q-36 0 -59 16.5t-35.5 43.5t-17.5 58t-5 66q0 32 5 64.5t18 62t36 48t57 18.5zM221 744q-53 0 -89 -23.5t-56 -62t-28 -81t-8 -84.5q0 -41 8.5 -81.5t28 -75t53 -56t81.5 -21.5
q41 0 72 18t55 53h2q0 -53 -4 -95t-13 -80q-11 -45 -38 -80t-68 -35q-51 0 -75 28.5t-28 80.5h-60q0 -74 43 -118t112 -45q66 0 105.5 35.5t58 91t24 112.5t7.5 138q0 32 1 48q0 61 -5.5 115.5t-23.5 104.5t-56 81.5t-99 31.5z" />
    <glyph glyph-name="colon" unicode=":" horiz-adv-x="222" 
d="M146 433v88h-69v-88h69zM146 0v88h-69v-88h69z" />
    <glyph glyph-name="semicolon" unicode=";" horiz-adv-x="222" 
d="M77 -136q34 9 48.5 30.5t18.5 66.5q2 24 2 71v56h-69v-88h30v-13q0 -38 -5.5 -58t-24.5 -28v-37zM77 433h69v88h-69v-88z" />
    <glyph glyph-name="less" unicode="&#x3c;" 
d="M19 223l407 -235v56l-353 201v5l353 195v56l-407 -234v-44z" />
    <glyph glyph-name="equal" unicode="=" 
d="M424 360h-403v-51h403v51zM424 182h-403v-51h403v51z" />
    <glyph glyph-name="greater" unicode="&#x3e;" 
d="M426 267l-407 235v-56l353 -201v-5l-353 -195v-56l407 234v44z" />
    <glyph glyph-name="question" unicode="?" horiz-adv-x="389" 
d="M203 171q0 37 3.5 62.5t11.5 46t20.5 40t34.5 46.5q52 66 70 111t18 95q0 87 -49 132.5t-120 45.5q-50 0 -84 -18.5t-53 -49.5t-27 -68t-8 -78h62q0 36 4.5 64t16 49.5t34.5 33.5t60 12q49 0 75.5 -35t26.5 -92q0 -47 -18.5 -85t-56.5 -88q-42 -56 -60 -98t-18 -100
q0 -4 1 -12v-14h56zM211 0v88h-70v-88h70z" />
    <glyph glyph-name="at" unicode="@" horiz-adv-x="800" 
d="M431 564q44 0 69 -26t25 -65q0 -18 -6 -36l-53 -158q-12 -36 -47 -61.5t-86 -25.5q-43 0 -71.5 32.5t-28.5 87.5q0 36 15.5 80t43.5 83.5t64 64t75 24.5zM549 541q-15 33 -47 51t-70 18q-55 0 -101.5 -27.5t-79.5 -73.5t-50.5 -101t-17.5 -108q0 -66 36 -110t100 -44
q36 0 70.5 12t63.5 38q1 -29 24.5 -43.5t54.5 -14.5q54 0 100 31.5t82 81.5q24 34 42 87t18 102q0 145 -109 239q-51 44 -114 67t-130 23q-80 0 -152 -30t-126.5 -84t-85.5 -125t-31 -151q0 -81 30 -153.5t83.5 -127.5t126 -85.5t154.5 -30.5q104 0 196 52t141 142h-53
q-49 -67 -126 -106.5t-158 -39.5q-69 0 -131.5 26.5t-110.5 74t-75 109.5t-27 131q0 70 26 133.5t73 112.5t110 76.5t133 27.5q59 0 114.5 -19.5t98.5 -56t68 -88t25 -112.5q0 -42 -16.5 -91.5t-36.5 -77.5q-10 -14 -25 -30.5t-32.5 -31t-36 -23.5t-34.5 -9q-23 0 -32.5 10
t-9.5 27q0 11 3 23.5t9 29.5q1 3 1 4l105 314h-55z" />
    <glyph glyph-name="A" unicode="A" horiz-adv-x="500" 
d="M150 289l99 379h2l99 -379h-200zM213 750l-201 -750h63l61 231h228l59 -231h66l-201 750h-75z" />
    <glyph glyph-name="B" unicode="B" horiz-adv-x="500" 
d="M195 364q47 0 80.5 -4.5t59 -19t40 -44.5t14.5 -79q0 -91 -44 -125t-137 -34h-81v306h68zM127 422v270h61q44 0 74 -4t54.5 -16.5t38 -38t13.5 -68.5q0 -44 -12 -72.5t-34.5 -44t-53.5 -21t-74 -5.5h-67zM165 0q68 0 118.5 8t89 30.5t60 65.5t21.5 112t-30 115.5
t-93 63.5v2q53 19 77.5 64.5t24.5 105.5q0 43 -13.5 79.5t-43.5 62.5q-27 24 -64.5 32.5t-85.5 8.5h-164v-750h103z" />
    <glyph glyph-name="C" unicode="C" horiz-adv-x="556" 
d="M427 254q-1 -38 -8 -75t-22.5 -68.5t-42.5 -51t-67 -19.5q-55 0 -87.5 31t-48 81t-19.5 103.5t-4 125.5q0 65 4 117.5t18.5 101.5t46 79.5t83.5 30.5q36 0 62.5 -14t43 -39t25 -56.5t10.5 -66.5h65q-1 101 -54 167.5t-150 66.5q-71 0 -115.5 -34t-66.5 -89.5
t-29.5 -116.5t-7.5 -132q0 -85 4.5 -148.5t24.5 -125t66 -101t122 -39.5q53 0 93.5 22.5t66.5 61.5t39 87.5t13 100.5h-65z" />
    <glyph glyph-name="D" unicode="D" horiz-adv-x="556" 
d="M137 692h56q6 0 20 1h23q31 0 57 -4t45 -14q34 -18 54 -51t29.5 -74t11.5 -81.5t2 -92.5q0 -46 -3 -87.5t-13 -85t-32 -78.5t-57 -51q-22 -11 -49 -13.5t-66 -2.5h-78v634zM72 0h147q103 0 161.5 31t90.5 122q19 49 24 113t5 166q0 64 -18.5 134.5t-53.5 112.5
q-41 45 -92.5 58t-129.5 13h-134v-750z" />
    <glyph glyph-name="E" unicode="E" 
d="M412 0v58h-280v306h250v58h-250v270h275v58h-340v-750h345z" />
    <glyph glyph-name="F" unicode="F" 
d="M134 0v364h250v58h-250v270h280v58h-345v-750h65z" />
    <glyph glyph-name="G" unicode="G" horiz-adv-x="556" 
d="M418 314q-2 -57 -6.5 -98.5t-19.5 -82.5t-46 -67t-81 -26q-53 0 -85.5 35t-47 87.5t-18 103.5t-3.5 109q0 66 4 119.5t19.5 103t48.5 81t88 31.5q35 0 60 -13.5t41 -37t24.5 -52t13.5 -62.5h62q0 46 -14 86.5t-41 71t-64.5 48t-83.5 17.5q-75 0 -121 -34t-68 -89.5
t-28 -116t-6 -138.5q0 -80 5 -143t25 -124.5t65 -101t119 -39.5q108 0 163 95h2l6 -77h52v372h-226v-58h161z" />
    <glyph glyph-name="H" unicode="H" horiz-adv-x="556" 
d="M133 0v373h290v-373h65v750h-65v-319h-290v319h-65v-750h65z" />
    <glyph glyph-name="I" unicode="I" horiz-adv-x="222" 
d="M144 0v750h-65v-750h65z" />
    <glyph glyph-name="J" unicode="J" horiz-adv-x="389" 
d="M12 219v-52q1 -38 9 -71.5t26 -59t47 -40t69 -14.5q82 0 117.5 47t35.5 131v590h-65v-586q0 -28 -2.5 -48.5t-10.5 -37.5t-25 -27.5t-44 -10.5q-32 0 -51.5 14t-28 37.5t-10.5 49t-2 62.5v16h-65z" />
    <glyph glyph-name="K" unicode="K" horiz-adv-x="500" 
d="M132 0v284l84 110l205 -394h70l-233 447l222 303h-75l-271 -375h-2v375h-65v-750h65z" />
    <glyph glyph-name="L" unicode="L" 
d="M417 0v58h-278v692h-65v-750h343z" />
    <glyph glyph-name="M" unicode="M" horiz-adv-x="722" 
d="M138 685h2l188 -685h69l186 685h2v-685h65v750h-106l-182 -654h-2l-178 654h-109v-750h65v685z" />
    <glyph glyph-name="N" unicode="N" horiz-adv-x="556" 
d="M147 750h-81v-750h65v642h2l278 -642h79v750h-65v-644h-2z" />
    <glyph glyph-name="O" unicode="O" horiz-adv-x="556" 
d="M276 -18q75 0 121 34t67.5 88.5t28 116t6.5 138.5q0 85 -5 148t-25.5 124t-66.5 99t-124 38q-71 0 -115.5 -34t-67 -89.5t-30 -117t-7.5 -131.5q0 -85 5 -148t25 -125t66 -101.5t122 -39.5zM282 40q-55 0 -87.5 31t-48 81t-19.5 103.5t-4 125.5q0 61 3.5 110.5
t17.5 100.5t46 84.5t85 33.5q56 0 89 -33.5t48 -85t18.5 -102.5t3.5 -115q0 -67 -4 -120.5t-18.5 -102.5t-46 -80t-83.5 -31z" />
    <glyph glyph-name="P" unicode="P" horiz-adv-x="500" 
d="M141 0v339h99q14 0 33.5 2.5t42.5 8.5t45.5 16.5t39.5 24.5q61 50 61 163q0 111 -60 153.5t-193 42.5h-133v-750h65zM141 692h95q83 -2 122 -32.5t39 -111.5q0 -49 -14.5 -79t-40.5 -45.5t-60.5 -21t-84.5 -5.5h-56v295z" />
    <glyph glyph-name="Q" unicode="Q" horiz-adv-x="556" 
d="M359 66q-31 -26 -77 -26q-55 0 -87.5 31t-48 81t-19.5 103.5t-4 125.5q0 61 3.5 110.5t17.5 100.5t46 84.5t85 33.5q56 0 89 -33.5t48 -85t18.5 -102.5t3.5 -115q0 -93 -7 -156.5t-32 -107.5l-76 62l-36 -45zM445 69q34 53 44 124.5t10 165.5q0 85 -5 148t-25.5 124
t-66.5 99t-124 38q-71 0 -115.5 -34.5t-67 -89.5t-30 -117t-7.5 -132q0 -85 5 -148t25 -124.5t66 -101t122 -39.5q84 0 133 44l83 -68l35 44z" />
    <glyph glyph-name="R" unicode="R" horiz-adv-x="500" 
d="M195 353q38 0 65 -3t49.5 -13.5t36 -32.5t16.5 -58q1 -8 2 -44q3 -69 8.5 -119t19.5 -83h71v9q-11 6 -17.5 24t-10 42.5t-4 42.5t-1.5 55q-1 20 -1 24q-1 81 -20.5 124.5t-79.5 58.5v2q55 12 82.5 63t27.5 113q0 56 -16.5 93.5t-46.5 59t-72 30.5t-96 9h-145v-750h65v353
h67zM128 692h94q80 0 116 -30t36 -109q0 -46 -16 -75.5t-38.5 -43.5t-43 -18.5t-34.5 -4.5h-114v281z" />
    <glyph glyph-name="S" unicode="S" horiz-adv-x="500" 
d="M211 433q-51 22 -71 50t-20 82q0 64 33.5 104.5t95.5 40.5q60 0 94.5 -37.5t34.5 -103.5h63q0 91 -52.5 145t-138.5 54q-90 0 -142.5 -57t-52.5 -150q0 -43 12.5 -75.5t35 -56t53 -40t72.5 -33.5q6 -2 26 -10q36 -14 59 -24.5t42 -27t30 -41.5t11 -62q0 -69 -41 -110
t-110 -41q-72 0 -106.5 47.5t-34.5 124.5h-64q0 -105 53.5 -167.5t152.5 -62.5q98 0 156.5 57t58.5 154q0 49 -14 83t-38.5 56.5t-55 38t-83.5 38.5h-1z" />
    <glyph glyph-name="T" unicode="T" 
d="M190 692v-692h65v692h170v58h-405v-58h170z" />
    <glyph glyph-name="U" unicode="U" horiz-adv-x="556" 
d="M73 198q0 -106 49.5 -161t154.5 -55q59 0 99.5 17.5t63.5 49.5t33 77t10 102v522h-65v-538q0 -41 -6.5 -71.5t-22 -53t-43.5 -35t-71 -12.5q-80 0 -108.5 40t-28.5 126v544h-65v-552z" />
    <glyph glyph-name="V" unicode="V" horiz-adv-x="500" 
d="M215 0h73l199 750h-63l-172 -665h-2l-168 665h-68z" />
    <glyph glyph-name="W" unicode="W" horiz-adv-x="722" 
d="M397 750h-75l-123 -633h-2l-114 633h-66l145 -750h73l122 642h2l125 -642h73l148 750h-63l-120 -636h-2z" />
    <glyph glyph-name="X" unicode="X" horiz-adv-x="500" 
d="M211 387l-193 -387h70l161 326l162 -326h71l-194 387l186 363h-72l-153 -301l-149 301h-73z" />
    <glyph glyph-name="Y" unicode="Y" horiz-adv-x="500" 
d="M249 393l-158 357h-72l198 -431v-319h65v319l200 431h-68z" />
    <glyph glyph-name="Z" unicode="Z" 
d="M411 0v58h-309l309 636v56h-363v-58h293l-307 -632v-60h377z" />
    <glyph glyph-name="bracketleft" unicode="[" horiz-adv-x="278" 
d="M229 -58h-97v780h95v46h-153v-872h155v46z" />
    <glyph glyph-name="backslash" unicode="\" horiz-adv-x="222" 
d="M27 750h-55l245 -844h54z" />
    <glyph glyph-name="bracketright" unicode="]" horiz-adv-x="278" 
d="M204 -104v872h-153v-46h95v-780h-97v-46h155z" />
    <glyph glyph-name="asciicircum" unicode="^" 
d="M201 750l-135 -410h47l106 335h2l109 -335h47l-135 410h-41z" />
    <glyph glyph-name="underscore" unicode="_" horiz-adv-x="500" 
d="M0 -75v-50h500v50h-500z" />
    <glyph glyph-name="grave" unicode="`" horiz-adv-x="333" 
d="M229 606l-111 139h-78l138 -139h51z" />
    <glyph glyph-name="a" unicode="a" horiz-adv-x="389" 
d="M271 201q0 -37 -6 -68t-22 -55q-28 -41 -82 -41q-42 0 -59.5 25.5t-17.5 70.5q0 49 14 72t58 42q9 4 28 12q58 23 87 39v-97zM97 413q2 9 3 15q3 21 7 35t12.5 26t25 19t42.5 7q36 0 54.5 -14t24.5 -41q4 -24 4 -58q0 -21 -2 -34q-2 -16 -15 -22q-23 -11 -75 -31
q-53 -20 -76 -31q-42 -21 -59 -56t-17 -86q0 -35 5.5 -62.5t19.5 -49t39 -33t61 -11.5q37 0 69 15t53 44h1l2 -10q4 -18 9 -26t20 -14q16 -3 30 -3q19 0 34 6v42q-26 0 -33 7t-7 30v339q0 36 -5 61t-22 47q-18 23 -47 32.5t-67 9.5q-71 0 -109 -39t-38 -114h56z" />
    <glyph glyph-name="b" unicode="b" 
d="M229 37q-36 0 -58 23t-32.5 59.5t-13.5 77t-3 89.5q0 44 2.5 78.5t13 69.5t33.5 58t62 23t62 -25t33.5 -63t13 -74t2.5 -79q0 -42 -2.5 -78.5t-13.5 -73.5t-35 -61t-64 -24zM122 52h2q37 -66 119 -66q52 0 85 28t48.5 72t20.5 91t5 101q0 49 -5 96.5t-21 91.5t-47.5 72
t-80.5 28q-71 0 -124 -59h-2v243h-58v-750h58v52z" />
    <glyph glyph-name="c" unicode="c" horiz-adv-x="389" 
d="M300 183v-2q-3 -33 -7 -55t-13 -42.5t-27.5 -33.5t-46.5 -13q-38 0 -61.5 22t-34 57.5t-13 71t-2.5 81.5q0 54 3 93t12.5 74t31 56.5t57.5 22.5q46 0 70.5 -36.5t26.5 -89.5h57q0 74 -39.5 125.5t-110.5 51.5q-54 0 -88 -26.5t-50.5 -68.5t-22 -89.5t-5.5 -102.5
q0 -62 4.5 -108t20.5 -89t51 -69.5t92 -26.5q41 0 71 15.5t48 43t26 62.5t8 76h-58z" />
    <glyph glyph-name="d" unicode="d" 
d="M213 515q37 0 60 -21.5t34 -54.5t14 -67.5t3 -71.5q0 -58 -3 -101.5t-14 -80.5t-33 -59t-58 -22q-38 0 -61.5 23t-35 58.5t-14.5 72t-3 76.5q0 44 2.5 80.5t13 76t34 65.5t61.5 26zM324 507h-2q-22 28 -53 43.5t-64 15.5q-52 0 -85 -27.5t-49.5 -71t-21.5 -90.5t-5 -99
q0 -54 5 -101t20.5 -91t48 -72t85.5 -28q41 0 71.5 16.5t47.5 49.5h2v-52h58v750h-58v-243z" />
    <glyph glyph-name="e" unicode="e" horiz-adv-x="389" 
d="M352 335q0 43 -7 83.5t-25 74t-49 53.5t-77 20q-54 0 -86.5 -28t-48 -72t-20 -91t-4.5 -101q0 -57 4.5 -102.5t20 -88.5t49 -70t87.5 -27q41 0 70.5 15.5t48 42.5t27 62t8.5 74h-56q-2 -30 -6 -53.5t-14 -44t-29 -33t-48 -12.5q-35 0 -56 20t-31.5 54t-13.5 74t-3 94h259
v56zM93 330q0 31 3.5 61t14 58.5t30.5 47t52 18.5q33 0 54 -17.5t31 -46t13 -58t3 -63.5h-201z" />
    <glyph glyph-name="f" unicode="f" horiz-adv-x="222" 
d="M77 0h58v501h69v51h-69v63q0 52 11.5 68t59.5 16v51h-11l-10 1q-67 0 -87.5 -30.5t-20.5 -108.5v-60h-59v-51h59v-501z" />
    <glyph glyph-name="g" unicode="g" 
d="M209 515q38 0 62 -19.5t35 -54t14.5 -77t3.5 -102.5q0 -41 -2.5 -75t-12.5 -68.5t-32.5 -58t-59.5 -23.5q-39 0 -62.5 23.5t-34.5 60t-13.5 72t-2.5 77.5q0 39 2.5 75.5t12.5 76.5t32 66.5t58 26.5zM324 502h-2q-23 33 -51.5 48.5t-70.5 15.5q-53 0 -85 -29t-46.5 -74.5
t-18.5 -92t-4 -100.5q0 -56 4.5 -101.5t20 -87.5t48 -68.5t85.5 -26.5q35 0 65 12.5t51 40.5h4q0 -1 -1 -23q0 -36 -3 -60.5t-13 -46t-33 -34.5t-62 -13q-38 2 -65.5 20.5t-29.5 53.5h-59q3 -62 46 -93.5t107 -31.5q93 0 132 52t39 149v540h-58v-50z" />
    <glyph glyph-name="h" unicode="h" 
d="M121 0v433q18 37 48 59.5t69 22.5q28 0 45.5 -10t26 -27.5t11 -38.5t2.5 -50v-389h58v400q0 40 -4 68.5t-20 49.5q-16 25 -46 36.5t-70 11.5q-37 -2 -68.5 -18t-49.5 -45h-2v247h-58v-750h58z" />
    <glyph glyph-name="i" unicode="i" horiz-adv-x="222" 
d="M140 0v552h-58v-552h58zM145 655v95h-67v-95h67z" />
    <glyph glyph-name="j" unicode="j" horiz-adv-x="222" 
d="M21 -189q29 0 52.5 4.5t42.5 17.5q20 19 25 44t5 67v608h-58v-606q0 -33 -5.5 -51.5t-24.5 -25.5l-5 -1q-19 -3 -32 -3v-54zM83 750v-92h67v92h-67z" />
    <glyph glyph-name="k" unicode="k" horiz-adv-x="389" 
d="M120 0v202l61 85l133 -287h61l-153 346l150 206h-73l-177 -260h-2v458h-58v-750h58z" />
    <glyph glyph-name="l" unicode="l" horiz-adv-x="222" 
d="M140 0v750h-58v-750h58z" />
    <glyph glyph-name="m" unicode="m" horiz-adv-x="667" 
d="M116 421q0 18 10 35t26 30.5t35 21t36 7.5q27 0 43.5 -9t25 -25t11 -35.5t2.5 -46.5v-399h58v403q0 52 31 82.5t82 30.5q40 0 58 -26.5t18 -66.5v-423h58v416q0 71 -28.5 110.5t-98.5 39.5q-40 0 -74 -15.5t-56 -46.5h-2q-23 40 -49 51t-67 11q-36 0 -67.5 -16.5
t-49.5 -46.5h-2v49h-58v-552h58v421z" />
    <glyph glyph-name="n" unicode="n" 
d="M123 407q0 45 36 76.5t81 31.5q28 0 44.5 -8.5t24 -23.5t10 -35t2.5 -47v-401h58v438q0 58 -37 93t-92 35q-39 0 -71 -18t-54 -50h-2v54h-58v-552h58v407z" />
    <glyph glyph-name="o" unicode="o" 
d="M221 -14q57 0 92.5 26.5t53 69t23.5 91t6 105.5q0 54 -6 102t-23.5 91t-52.5 69t-90 26q-54 0 -89.5 -24.5t-54 -64.5t-25 -87.5t-6.5 -100.5q0 -65 4 -112t20.5 -91.5t52.5 -72t95 -27.5zM220 37q-38 0 -61.5 22t-34.5 58.5t-14 76.5t-3 94q0 38 3.5 74.5t14 71.5t33 58
t59.5 23q42 0 67 -23.5t36.5 -59.5t14.5 -73t3 -82t-2.5 -82t-13.5 -73.5t-36 -60.5t-66 -24z" />
    <glyph glyph-name="p" unicode="p" 
d="M116 279q0 52 3 91.5t14 72.5t34.5 52.5t62.5 19.5q37 0 59.5 -25.5t32.5 -64t12 -75t2 -79.5q0 -44 -2.5 -79t-12.5 -71.5t-32.5 -60t-60.5 -23.5t-61 21t-34 55.5t-14 73.5t-3 92zM118 45h2q39 -59 113 -59q57 0 90.5 28.5t48.5 74t18.5 91.5t3.5 110q0 54 -5.5 99.5
t-22.5 86t-50.5 65.5t-87.5 25q-34 0 -62 -17t-48 -47h-2v50h-58v-742h60v235z" />
    <glyph glyph-name="q" unicode="q" 
d="M212 37q-37 0 -59.5 24t-33 60.5t-13 73t-2.5 76.5q0 48 2.5 85.5t13 74.5t34 60.5t62.5 23.5q37 0 59.5 -21.5t32.5 -56.5t13 -73t3 -87q0 -51 -3 -90t-13.5 -73.5t-34 -55.5t-61.5 -21zM324 502h-2q-19 30 -47.5 47t-62.5 17q-56 0 -90 -26.5t-50.5 -70t-21 -90.5
t-4.5 -106t4 -104.5t19.5 -87.5t49 -68.5t88.5 -26.5q35 0 65 15t48 44h2v-234h60v741h-58v-50z" />
    <glyph glyph-name="r" unicode="r" horiz-adv-x="278" 
d="M124 552h-55v-552h58v362q0 67 32 105t98 38v61q-49 0 -79.5 -18t-51.5 -60h-2v64z" />
    <glyph glyph-name="s" unicode="s" horiz-adv-x="389" 
d="M44 407q1 -27 12 -47t28.5 -35.5t37.5 -26.5t49 -25q31 -15 50 -26t35 -25.5t26 -34.5t10 -46q0 -45 -25 -74.5t-70 -29.5q-51 0 -76.5 29.5t-29.5 83.5h-59q0 -80 40.5 -122t120.5 -42q73 0 115 39.5t42 112.5q0 42 -13.5 73.5t-38 54.5t-54 39.5t-75.5 37.5
q-31 12 -49 32.5t-18 51.5q0 41 21 64.5t61 23.5q44 0 68.5 -29t26.5 -75h57q0 72 -39.5 113.5t-110.5 41.5q-69 0 -106 -35.5t-37 -101.5q0 -1 1 -10v-12z" />
    <glyph glyph-name="t" unicode="t" horiz-adv-x="222" 
d="M201 43q-16 -4 -29 -4q-10 0 -19 3q-18 3 -23.5 17.5t-5.5 34.5v407h77v51h-77v162h-58v-162h-50v-51h50v-413q0 -42 11.5 -62.5t48.5 -33.5q9 -3 22 -3q17 0 49 5q2 1 4 1v48z" />
    <glyph glyph-name="u" unicode="u" 
d="M321 132q-14 -38 -43.5 -66t-62.5 -29h-7h-7q-44 0 -63.5 23.5t-19.5 73.5v418h-58v-408q0 -35 5 -63t18.5 -49.5t38 -33.5t60.5 -12q91 0 139 65h2v-51h56v552h-58v-420z" />
    <glyph glyph-name="v" unicode="v" horiz-adv-x="389" 
d="M79 552h-62l147 -552h63l146 552h-59l-117 -447h-2z" />
    <glyph glyph-name="w" unicode="w" horiz-adv-x="556" 
d="M310 552h-64l-85 -440h-2l-90 440h-58l117 -552h64l85 433h2l85 -433h61l120 552h-57l-89 -440h-2z" />
    <glyph glyph-name="x" unicode="x" horiz-adv-x="389" 
d="M311 0h65l-147 289l138 263h-67l-107 -213l-105 213h-65l135 -263l-145 -289h63l117 234z" />
    <glyph glyph-name="y" unicode="y" horiz-adv-x="389" 
d="M28 -188q7 0 20 -1q21 -2 30 -2q33 0 58 14q32 20 49.5 62.5t33.5 105.5l4 16l150 545h-59l-120 -447h-2l-114 447h-61l143 -554q-14 -60 -32 -101q-10 -20 -28 -27.5t-43 -7.5h-15q-10 1 -14 1v-51z" />
    <glyph glyph-name="z" unicode="z" horiz-adv-x="333" 
d="M315 0v51h-234l229 447v54h-280v-51h219l-231 -446v-55h297z" />
    <glyph glyph-name="braceleft" unicode="{" horiz-adv-x="351" 
d="M130 450q0 -34 -5 -53.5t-24 -34.5q-17 -14 -53 -24v-2q37 -3 61 -30q14 -18 17.5 -33.5t3.5 -43.5v-189q0 -37 7 -63t31 -44t47.5 -22t61.5 -4v2q-49 21 -64.5 46t-15.5 66v190q0 57 -18.5 86.5t-71.5 38.5v2q55 17 72.5 49t17.5 90v177q0 41 16.5 66.5t63.5 45.5v2
q-86 0 -116.5 -33.5t-30.5 -116.5v-168z" />
    <glyph glyph-name="bar" unicode="|" horiz-adv-x="222" 
d="M85 750v-1000h52v1000h-52z" />
    <glyph glyph-name="braceright" unicode="}" horiz-adv-x="351" 
d="M221 635q0 37 -7 63t-31 44t-47.5 22t-61.5 4v-2q49 -21 64.5 -46t15.5 -66v-190q0 -57 18.5 -86.5t71.5 -38.5v-2q-55 -17 -72.5 -49t-17.5 -90v-177q0 -41 -16.5 -66.5t-63.5 -45.5v-2q86 0 116.5 33.5t30.5 116.5v168q0 34 5 53.5t24 34.5q17 14 53 24v2q-37 3 -61 30
q-14 18 -17.5 33.5t-3.5 43.5v189z" />
    <glyph glyph-name="asciitilde" unicode="~" 
d="M54 179l2 4q19 30 36 46t43 16q20 0 58 -15q7 -3 10 -4q2 0 15 -6q32 -12 54.5 -19t38.5 -7q36 0 63.5 23t49.5 58l-33 34q-15 -25 -35.5 -43t-44.5 -18q-12 0 -28.5 5.5t-45.5 17.5l-8 3q-29 12 -51.5 19t-42.5 7q-38 0 -64 -23.5t-50 -62.5z" />
    <glyph glyph-name="exclamdown" unicode="&#xa1;" horiz-adv-x="222" 
d="M89 376q0 -2 -4 -81q-8 -187 -8 -281v-199h64v199q0 94 -8 281q-4 79 -4 81h-40zM146 464v88h-69v-88h69z" />
    <glyph glyph-name="cent" unicode="&#xa2;" 
d="M256 503l-93 -433q-24 26 -32 77.5t-8 118.5q0 43 2 76.5t9.5 68t23.5 59.5t43 32q17 4 32 4q13 0 23 -3zM201 43l93 434q27 -30 30 -93h56q-1 51 -19.5 92t-53.5 62l29 133h-44l-25 -116q-17 4 -37 4q-54 0 -88 -26t-51 -68t-23 -89t-6 -100q0 -37 2.5 -75t11.5 -78.5
t27 -72t46 -43.5l-32 -150h44l29 134q19 -4 43 -4q42 0 71.5 15.5t47 42.5t25 61.5t7.5 74.5h-56l-1 -7q-3 -31 -7 -52.5t-13.5 -41t-27 -31.5t-45.5 -12q-18 0 -33 6z" />
    <glyph glyph-name="sterling" unicode="&#xa3;" 
d="M123 329q16 -48 16 -99q0 -68 -27.5 -115.5t-86.5 -98.5l33 -37q26 19 50 29.5t51 10.5q14 0 29 -3q22 -5 67 -17q33 -9 37 -10q15 -4 32 -4q29 0 58.5 9.5t45.5 22.5l-22 47q-41 -25 -77 -25q-16 0 -28.5 3t-33.5 9q-36 14 -73 14q-23 0 -60 -7q-1 0 -9 -2l-2 2
q37 32 55.5 83t18.5 107q0 44 -11 81h138v41h-153l-11 29q-21 51 -32 86.5t-11 72.5q0 57 29 91.5t84 34.5q34 0 57 -13.5t36.5 -37.5t19.5 -52t7 -61h60q-1 49 -11.5 88t-32.5 68t-57.5 45t-86.5 16q-34 0 -64.5 -12.5t-53.5 -35t-35.5 -52.5t-12.5 -65q0 -41 10 -87
t41 -115h-88v-41h104z" />
    <glyph glyph-name="currency" unicode="&#xa4;" 
d="M1 104l47 -48l40 39q63 -45 130 -45q79 0 140 45l39 -39l47 48l-39 38q22 33 32.5 63t10.5 66q0 41 -10 74.5t-33 65.5l39 39l-47 47l-39 -38q-32 22 -64 33t-68 11q-79 0 -138 -44l-40 38l-47 -47l39 -39q-23 -32 -33 -64t-10 -72q0 -38 10.5 -69.5t32.5 -63.5zM384 278
q0 -34 -12.5 -63.5t-35 -52t-52 -35t-63.5 -12.5q-32 0 -61 13t-51.5 35t-35 51t-12.5 61q0 70 47 116.5t118 46.5q32 0 61 -13t51 -35.5t34 -51.5t12 -60z" />
    <glyph glyph-name="yen" unicode="&#xa5;" 
d="M454 738h-68l-165 -351l-158 351h-72l199 -424v-34h-138v-48h138v-52h-138v-48h138v-132h65v132h135v48h-135v52h137v48h-137v34z" />
    <glyph glyph-name="brokenbar" unicode="&#xa6;" horiz-adv-x="222" 
d="M85 -175h52v350h-52v-350zM85 675v-350h52v350h-52z" />
    <glyph glyph-name="section" unicode="&#xa7;" 
d="M293 378q38 -27 57 -53.5t19 -65.5q0 -34 -22.5 -63.5t-55.5 -44.5l-154 109q-32 23 -46.5 45t-14.5 58q0 38 22 68.5t58 45.5zM260 103q30 -22 46 -48t16 -60q0 -39 -26 -68t-74 -29t-75 33t-27 92h-54q0 -76 42.5 -123t115.5 -47q68 0 111 40.5t43 107.5q0 34 -14 65.5
t-39 53.5q42 26 68 62t26 79q0 45 -24.5 89.5t-91.5 89.5l-112 76q-33 23 -50 48t-17 59l1 6v7q3 43 29 65t69 22q50 0 74.5 -35.5t27.5 -88.5h55q-3 74 -44 121.5t-113 47.5q-36 0 -59 -7t-47 -28q-23 -20 -36 -47t-13 -57q0 -40 12 -66t42 -59q-47 -30 -71.5 -63
t-24.5 -81q0 -45 19.5 -77t60.5 -63z" />
    <glyph glyph-name="dieresis" unicode="&#xa8;" horiz-adv-x="333" 
d="M56 617h64v102h-64v-102zM214 617h64v102h-64v-102z" />
    <glyph glyph-name="copyright" unicode="&#xa9;" horiz-adv-x="800" 
d="M401 -18q78 0 147.5 30.5t122.5 85t82.5 126.5t29.5 152q0 79 -29.5 151t-82.5 126.5t-122.5 85t-147.5 30.5t-148 -30.5t-123.5 -85t-83 -126.5t-29.5 -151q0 -80 29.5 -152t82.5 -126.5t123.5 -85t148.5 -30.5zM401 29q-68 0 -129.5 26.5t-108 74.5t-72.5 111.5
t-26 134.5q0 70 26 133t72.5 111t107.5 74.5t130 26.5q68 0 129 -26.5t108 -74.5t72.5 -111t25.5 -133q0 -71 -26 -134t-72.5 -111.5t-107.5 -75t-129 -26.5zM540 304q-6 -48 -41 -76.5t-81 -28.5q-71 0 -113.5 53.5t-42.5 127.5q0 77 40.5 128t113.5 51q46 0 81 -28.5
t43 -73.5h55q-11 69 -60.5 108.5t-119.5 39.5q-96 0 -152.5 -63t-56.5 -163q0 -48 15 -89.5t43.5 -72.5t67.5 -48t86 -17q68 0 119 42t58 110h-55z" />
    <glyph glyph-name="ordfeminine" unicode="&#xaa;" horiz-adv-x="266" 
d="M178 522q-2 -31 -19 -52t-49 -21q-27 0 -39 16t-12 42q0 29 9.5 43t37.5 26q50 18 72 31v-85zM68 676q1 3 2 9q4 25 14.5 38.5t41.5 13.5q34 0 44 -16.5t10 -51.5q0 -17 -1 -21.5t-6 -8.5l-4 -4q-15 -6 -49 -18t-49 -19q-27 -13 -38.5 -34t-11.5 -51q0 -46 19 -70t63 -24
q50 0 79 35l1 -1l2 -6q2 -9 5 -14t13 -9q3 0 10 -1q6 -1 10 -1q13 0 22 4v25q-16 0 -21 4t-5 19v204q0 48 -22 69t-70 21q-45 0 -70 -23.5t-25 -68.5h36z" />
    <glyph glyph-name="guillemotleft" unicode="&#xab;" horiz-adv-x="500" 
d="M224 130v62l-101 79l101 81v60l-141 -106v-70zM411 130v62l-102 79l102 81v60l-141 -106v-70z" />
    <glyph glyph-name="logicalnot" unicode="&#xac;" 
d="M21 360v-51h352v-216h51v267h-403z" />
    <glyph glyph-name="minus" unicode="&#xad;" 
d="M424 271h-403v-51h403v51z" />
    <glyph glyph-name="minus" unicode="&#x2212;" 
d="M424 271h-403v-51h403v51z" />
    <glyph glyph-name="registered" unicode="&#xae;" horiz-adv-x="800" 
d="M401 -18q78 0 147.5 30.5t122.5 85t82.5 126.5t29.5 152q0 79 -29.5 151t-82.5 126.5t-122.5 85t-147.5 30.5t-148 -30.5t-123.5 -85t-83 -126.5t-29.5 -151q0 -80 29.5 -152t82.5 -126.5t123.5 -85t148.5 -30.5zM401 29q-68 0 -129.5 26.5t-108 74.5t-72.5 111.5
t-26 134.5q0 70 26 133t72.5 111t107.5 74.5t130 26.5q68 0 129 -26.5t108 -74.5t72.5 -111t25.5 -133q0 -71 -26 -134t-72.5 -111.5t-107.5 -75t-129 -26.5zM462 359q62 2 98.5 30.5t36.5 89.5q0 29 -12.5 55t-35.5 40q-22 14 -46.5 18t-57.5 4h-186v-440h52v203h96
l122 -203h62zM311 401v155h122q23 0 42 -2.5t34.5 -10.5t25 -23.5t9.5 -39.5q0 -50 -36.5 -64.5t-116.5 -14.5h-80z" />
    <glyph glyph-name="macron" unicode="&#xaf;" horiz-adv-x="333" 
d="M19 690v-45h296v45h-296z" />
    <glyph glyph-name="degree" unicode="&#xb0;" horiz-adv-x="400" 
d="M350 594q0 30 -11.5 57.5t-32.5 48.5t-48.5 32.5t-57.5 11.5t-57.5 -11.5t-48.5 -32.5t-32.5 -48t-11.5 -58q0 -30 11.5 -57.5t32.5 -48.5t48.5 -32.5t57.5 -11.5t57.5 11.5t48.5 32t32.5 48t11.5 58.5zM310 594q0 -46 -32.5 -78t-77.5 -32q-46 0 -78 32t-32 78t32 78
t77 32q46 0 78.5 -32.5t32.5 -77.5z" />
    <glyph glyph-name="plusminus" unicode="&#xb1;" 
d="M197 270v-170h51v170h176v51h-176v169h-51v-169h-176v-51h176zM424 51h-403v-51h403v51z" />
    <glyph glyph-name="twosuperior" unicode="&#xb2;" horiz-adv-x="266" 
d="M58 343q1 17 10 33t17 23q12 11 35 31q64 56 97.5 98.5t33.5 96.5t-31.5 86.5t-83.5 32.5q-57 0 -86.5 -36.5t-29.5 -95.5h48q2 43 15.5 69t47.5 26q3 0 5 -1h6q28 -3 43 -27.5t15 -54.5q0 -41 -14.5 -64t-54.5 -58q-24 -21 -35 -32l-10 -9q-39 -38 -53.5 -62t-16.5 -70
v-31h235v45h-193z" />
    <glyph glyph-name="threesuperior" unicode="&#xb3;" horiz-adv-x="266" 
d="M118 505q28 -1 45.5 -9.5t25.5 -21t10.5 -26.5t2.5 -30q0 -40 -16.5 -64t-55.5 -24q-42 0 -57 21.5t-16 63.5h-45q0 -41 14 -67.5t34 -38.5t38.5 -15.5t33.5 -3.5q14 0 32.5 3.5t39.5 15.5t35.5 38.5t14.5 68.5q0 41 -19 72t-65 40v2q23 9 37.5 22.5t22 28.5t9.5 27t2 21
q0 52 -29 84t-85 32q-51 0 -77.5 -34.5t-26.5 -85.5h43q3 37 16 59t46 22q36 0 50 -21t14 -57q0 -41 -24 -59.5t-62 -18.5h-18l1 -45h29z" />
    <glyph glyph-name="acute" unicode="&#xb4;" horiz-adv-x="333" 
d="M155 606l138 139h-78l-111 -139h51z" />
    <glyph glyph-name="mu" unicode="&#xb5;" 
d="M321 132q-14 -38 -43.5 -66t-62.5 -29h-7h-7q-44 0 -63.5 23.5t-19.5 73.5v418h-58v-741h58v199q28 -24 64 -24q91 0 139 65h2v-51h56v552h-58v-420z" />
    <glyph glyph-name="paragraph" unicode="&#xb6;" horiz-adv-x="564" 
d="M229 -116h58v799h98v-799h58v866h-183q-97 -2 -152 -48.5t-55 -145.5q0 -38 13 -72.5t37 -61t56 -41.5t70 -15v-482z" />
    <glyph glyph-name="periodcentered" unicode="&#xb7;" horiz-adv-x="222" 
d="M146 201v88h-69v-88h69z" />
    <glyph glyph-name="periodcentered" unicode="&#x2219;" horiz-adv-x="222" 
d="M146 201v88h-69v-88h69z" />
    <glyph glyph-name="cedilla" unicode="&#xb8;" horiz-adv-x="333" 
d="M51 -188q46 -19 90 -19q45 0 78.5 20t33.5 62q0 33 -22.5 52.5t-59.5 19.5q-4 0 -14.5 -2t-15.5 -4l-2 2l46 57h-38l-60 -82l15 -13q21 7 41 7q24 0 38.5 -10t14.5 -28q0 -24 -20.5 -35.5t-46.5 -11.5q-20 0 -59 13l-4 2z" />
    <glyph glyph-name="onesuperior" unicode="&#xb9;" horiz-adv-x="266" 
d="M57 634q16 0 34 1q15 1 20 1q4 1 19 2q19 1 30 3v-343h50v446h-42q-5 -47 -31 -63.5t-80 -18.5v-28z" />
    <glyph glyph-name="ordmasculine" unicode="&#xba;" horiz-adv-x="266" 
d="M134 768q-34 0 -57 -13.5t-35.5 -37t-17.5 -52t-5 -61.5q0 -38 3.5 -68t14.5 -55.5t34 -40.5t61 -15q36 0 59 14.5t34.5 39t16 54t4.5 64.5q0 34 -4 63t-16 53.5t-34.5 39.5t-57.5 15zM129 737q27 0 42.5 -13t22.5 -33.5t9 -42.5t2 -51q0 -33 -1.5 -55t-9 -42t-23 -32.5
t-42.5 -12.5q-2 0 -6 1h-8q-34 10 -44 38t-12 76v3q0 3 -1 15v21q0 24 3 45.5t10.5 40.5t22 30.5t35.5 11.5z" />
    <glyph glyph-name="guillemotright" unicode="&#xbb;" horiz-adv-x="500" 
d="M276 352l101 -81l-101 -79v-62l141 106v70l-141 106v-60zM89 412v-60l102 -81l-102 -79v-62l141 106v70z" />
    <glyph glyph-name="onequarter" unicode="&#xbc;" horiz-adv-x="666" 
d="M399 159v-44h164v-115h47v115h38v37h-38v294h-47zM437 152l124 224h2v-224h-126zM92 0h52l450 744h-50zM19 634q16 0 34 1q15 1 20 1q4 1 19 2q19 1 30 3v-343h50v446h-42q-5 -47 -31 -63.5t-80 -18.5v-28z" />
    <glyph glyph-name="onehalf" unicode="&#xbd;" horiz-adv-x="666" 
d="M75 0h52l450 744h-50zM2 634q16 0 34 1q15 1 20 1q4 1 19 2q19 1 30 3v-343h50v446h-42q-5 -47 -31 -63.5t-80 -18.5v-28zM471 45q1 17 10 33t17 23q12 11 35 31q64 56 97.5 98.5t33.5 96.5t-31.5 86.5t-83.5 32.5q-57 0 -86.5 -36.5t-29.5 -95.5h48q2 43 15.5 69
t47.5 26q3 0 5 -1h6q28 -3 43 -27.5t15 -54.5q0 -41 -14.5 -64t-54.5 -58q-24 -21 -35 -32l-10 -9q-39 -38 -53.5 -62t-16.5 -70v-31h235v45h-193z" />
    <glyph glyph-name="threequarters" unicode="&#xbe;" horiz-adv-x="666" 
d="M401 159v-44h164v-115h47v115h38v37h-38v294h-47zM124 0h52l450 744h-50zM439 152l124 224h2v-224h-126zM122 504q28 -1 45.5 -9.5t25.5 -21t10.5 -26.5t2.5 -30q0 -40 -16.5 -64t-55.5 -24q-42 0 -57 21.5t-16 63.5h-45q0 -41 14 -67.5t34 -38.5t38.5 -15.5t33.5 -3.5
q14 0 32.5 3.5t39.5 15.5t35.5 38.5t14.5 68.5q0 41 -19 72t-65 40v2q23 9 37.5 22.5t22 28.5t9.5 27t2 21q0 52 -29 84t-85 32q-51 0 -77.5 -34.5t-26.5 -85.5h43q3 37 16 59t46 22q36 0 50 -21t14 -57q0 -41 -24 -59.5t-62 -18.5h-18l1 -45h29z" />
    <glyph glyph-name="questiondown" unicode="&#xbf;" horiz-adv-x="389" 
d="M178 377q0 -37 -3.5 -62.5t-11.5 -46t-20.5 -39.5t-34.5 -47q-52 -66 -70 -111t-18 -95q0 -87 49 -132.5t120 -45.5q50 0 84 18.5t53 49.5t27 68t8 78h-62q0 -36 -4 -64t-16 -49.5t-35 -33.5t-60 -12q-49 0 -75.5 35t-26.5 92q0 48 18.5 85.5t56.5 87.5q42 56 60 98
t18 100q0 4 -1 12v14h-56zM170 552v-88h70v88h-70z" />
    <glyph glyph-name="Agrave" unicode="&#xc0;" horiz-adv-x="500" 
d="M150 289l99 379h2l99 -379h-200zM213 750l-201 -750h63l61 231h228l59 -231h66l-201 750h-75zM313 804l-111 139h-78l138 -139h51z" />
    <glyph glyph-name="Aacute" unicode="&#xc1;" horiz-adv-x="500" 
d="M150 289l99 379h2l99 -379h-200zM213 750l-201 -750h63l61 231h228l59 -231h66l-201 750h-75zM239 804l138 139h-78l-111 -139h51z" />
    <glyph glyph-name="Acircumflex" unicode="&#xc2;" horiz-adv-x="500" 
d="M150 289l99 379h2l99 -379h-200zM213 750l-201 -750h63l61 231h228l59 -231h66l-201 750h-75zM241 906l82 -102h65l-114 139h-67l-113 -139h64z" />
    <glyph glyph-name="Atilde" unicode="&#xc3;" horiz-adv-x="500" 
d="M150 289l99 379h2l99 -379h-200zM213 750l-201 -750h63l61 231h228l59 -231h66l-201 750h-75zM353 825q25 12 38.5 37t16.5 56h-38q-5 -25 -14 -37t-29 -12q-9 0 -22 3q-15 4 -46 18q-26 12 -42.5 17.5t-32.5 5.5q-36 0 -60 -28t-30 -69h37q1 3 2 4q6 18 12.5 28t20.5 16
q6 2 13 2q14 0 29 -5.5t34 -13.5l7 -3q24 -12 41 -17.5t35 -5.5q13 0 28 4z" />
    <glyph glyph-name="Adieresis" unicode="&#xc4;" horiz-adv-x="500" 
d="M150 289l99 379h2l99 -379h-200zM213 750l-201 -750h63l61 231h228l59 -231h66l-201 750h-75zM140 815h64v102h-64v-102zM298 815h64v102h-64v-102z" />
    <glyph glyph-name="Aring" unicode="&#xc5;" horiz-adv-x="500" 
d="M150 289l99 379h2l99 -379h-200zM213 750l-201 -750h63l61 231h228l59 -231h66l-201 750h-75zM250 786q40 0 70 30t30 70t-30 70t-70 30t-69.5 -30t-29.5 -70t29.5 -70t69.5 -30zM250 952q27 0 46.5 -20t19.5 -46t-20 -46t-46 -20t-46 19.5t-20 46.5t19.5 46.5t46.5 19.5
z" />
    <glyph glyph-name="AE" unicode="&#xc6;" horiz-adv-x="722" 
d="M6 0h67l78 229h193v-229h344v58h-279v303h251v58h-251v273h276v58h-414zM344 692v-405h-173l142 405h31z" />
    <glyph glyph-name="Ccedilla" unicode="&#xc7;" horiz-adv-x="556" 
d="M213 -82l15 -13q21 7 41 7q24 0 38.5 -10t14.5 -28q0 -24 -20.5 -35.5t-46.5 -11.5q-20 0 -59 13l-4 2l-15 -30q46 -19 90 -19q45 0 78.5 20t33.5 62q0 33 -22.5 52.5t-59.5 19.5q-4 0 -14.5 -2t-15.5 -4l-2 2l33 40q48 4 85 28t61.5 62t36 84.5t11.5 96.5h-65
q-1 -38 -8 -75t-22.5 -68.5t-42.5 -51t-67 -19.5q-55 0 -87.5 31t-48 81t-19.5 103.5t-4 125.5q0 65 4 117.5t18.5 101.5t46 79.5t83.5 30.5q36 0 62.5 -14t43 -39t25 -56.5t10.5 -66.5h65q-1 101 -54 167.5t-150 66.5q-71 0 -115.5 -34t-66.5 -89.5t-29.5 -116.5t-7.5 -132
q0 -82 4 -143t22.5 -121.5t60 -101.5t111.5 -46z" />
    <glyph glyph-name="Egrave" unicode="&#xc8;" 
d="M412 0v58h-280v306h250v58h-250v270h275v58h-340v-750h345zM285 804l-111 139h-78l138 -139h51z" />
    <glyph glyph-name="Eacute" unicode="&#xc9;" 
d="M412 0v58h-280v306h250v58h-250v270h275v58h-340v-750h345zM211 804l138 139h-78l-111 -139h51z" />
    <glyph glyph-name="Ecircumflex" unicode="&#xca;" 
d="M412 0v58h-280v306h250v58h-250v270h275v58h-340v-750h345zM223 906l82 -102h65l-114 139h-67l-113 -139h64z" />
    <glyph glyph-name="Edieresis" unicode="&#xcb;" 
d="M412 0v58h-280v306h250v58h-250v270h275v58h-340v-750h345zM112 815h64v102h-64v-102zM270 815h64v102h-64v-102z" />
    <glyph glyph-name="Igrave" unicode="&#xcc;" horiz-adv-x="222" 
d="M144 0v750h-65v-750h65zM174 804l-111 139h-78l138 -139h51z" />
    <glyph glyph-name="Iacute" unicode="&#xcd;" horiz-adv-x="222" 
d="M144 0v750h-65v-750h65zM100 804l138 139h-78l-111 -139h51z" />
    <glyph glyph-name="Icircumflex" unicode="&#xce;" horiz-adv-x="222" 
d="M144 0v750h-65v-750h65zM112 906l82 -102h65l-114 139h-67l-113 -139h64z" />
    <glyph glyph-name="Idieresis" unicode="&#xcf;" horiz-adv-x="222" 
d="M144 0v750h-65v-750h65zM1 815h64v102h-64v-102zM159 815h64v102h-64v-102z" />
    <glyph glyph-name="Eth" unicode="&#xd0;" horiz-adv-x="556" 
d="M137 692h56q51 0 87.5 -3t57.5 -14q58 -31 77.5 -103.5t19.5 -195.5q0 -46 -3 -87t-13 -84.5t-32 -78.5t-57 -52q-22 -11 -49 -13.5t-66 -2.5h-78v342h136v54h-136v238zM72 0h147q102 0 159.5 31t92.5 122q19 49 24 113t5 166q0 29 -4.5 64t-13.5 70t-23 65t-31 48
q-41 45 -92.5 58t-129.5 13h-134v-296h-72v-54h72v-400z" />
    <glyph glyph-name="Ntilde" unicode="&#xd1;" horiz-adv-x="556" 
d="M147 750h-81v-750h65v642h2l278 -642h79v750h-65v-644h-2zM381 825q25 12 38.5 37t16.5 56h-38q-5 -25 -14 -37t-29 -12q-9 0 -22 3q-15 4 -46 18q-26 12 -42.5 17.5t-32.5 5.5q-36 0 -60 -28t-30 -69h37q1 3 2 4q6 18 12.5 28t20.5 16q6 2 13 2q14 0 29 -5.5t34 -13.5
l7 -3q24 -12 41 -17.5t35 -5.5q13 0 28 4z" />
    <glyph glyph-name="Ograve" unicode="&#xd2;" horiz-adv-x="556" 
d="M276 -18q75 0 121 34t67.5 88.5t28 116t6.5 138.5q0 85 -5 148t-25.5 124t-66.5 99t-124 38q-71 0 -115.5 -34t-67 -89.5t-30 -117t-7.5 -131.5q0 -85 5 -148t25 -125t66 -101.5t122 -39.5zM282 40q-55 0 -87.5 31t-48 81t-19.5 103.5t-4 125.5q0 61 3.5 110.5
t17.5 100.5t46 84.5t85 33.5q56 0 89 -33.5t48 -85t18.5 -102.5t3.5 -115q0 -67 -4 -120.5t-18.5 -102.5t-46 -80t-83.5 -31zM341 804l-111 139h-78l138 -139h51z" />
    <glyph glyph-name="Oacute" unicode="&#xd3;" horiz-adv-x="556" 
d="M276 -18q75 0 121 34t67.5 88.5t28 116t6.5 138.5q0 85 -5 148t-25.5 124t-66.5 99t-124 38q-71 0 -115.5 -34t-67 -89.5t-30 -117t-7.5 -131.5q0 -85 5 -148t25 -125t66 -101.5t122 -39.5zM282 40q-55 0 -87.5 31t-48 81t-19.5 103.5t-4 125.5q0 61 3.5 110.5
t17.5 100.5t46 84.5t85 33.5q56 0 89 -33.5t48 -85t18.5 -102.5t3.5 -115q0 -67 -4 -120.5t-18.5 -102.5t-46 -80t-83.5 -31zM267 804l138 139h-78l-111 -139h51z" />
    <glyph glyph-name="Ocircumflex" unicode="&#xd4;" horiz-adv-x="556" 
d="M276 -18q75 0 121 34t67.5 88.5t28 116t6.5 138.5q0 85 -5 148t-25.5 124t-66.5 99t-124 38q-71 0 -115.5 -34t-67 -89.5t-30 -117t-7.5 -131.5q0 -85 5 -148t25 -125t66 -101.5t122 -39.5zM282 40q-55 0 -87.5 31t-48 81t-19.5 103.5t-4 125.5q0 61 3.5 110.5
t17.5 100.5t46 84.5t85 33.5q56 0 89 -33.5t48 -85t18.5 -102.5t3.5 -115q0 -67 -4 -120.5t-18.5 -102.5t-46 -80t-83.5 -31zM279 906l82 -102h65l-114 139h-67l-113 -139h64z" />
    <glyph glyph-name="Otilde" unicode="&#xd5;" horiz-adv-x="556" 
d="M276 -18q75 0 121 34t67.5 88.5t28 116t6.5 138.5q0 85 -5 148t-25.5 124t-66.5 99t-124 38q-71 0 -115.5 -34t-67 -89.5t-30 -117t-7.5 -131.5q0 -85 5 -148t25 -125t66 -101.5t122 -39.5zM282 40q-55 0 -87.5 31t-48 81t-19.5 103.5t-4 125.5q0 61 3.5 110.5
t17.5 100.5t46 84.5t85 33.5q56 0 89 -33.5t48 -85t18.5 -102.5t3.5 -115q0 -67 -4 -120.5t-18.5 -102.5t-46 -80t-83.5 -31zM381 825q25 12 38.5 37t16.5 56h-38q-5 -25 -14 -37t-29 -12q-9 0 -22 3q-15 4 -46 18q-26 12 -42.5 17.5t-32.5 5.5q-36 0 -60 -28t-30 -69h37
q1 3 2 4q6 18 12.5 28t20.5 16q6 2 13 2q14 0 29 -5.5t34 -13.5l7 -3q24 -12 41 -17.5t35 -5.5q13 0 28 4z" />
    <glyph glyph-name="Odieresis" unicode="&#xd6;" horiz-adv-x="556" 
d="M276 -18q75 0 121 34t67.5 88.5t28 116t6.5 138.5q0 85 -5 148t-25.5 124t-66.5 99t-124 38q-71 0 -115.5 -34t-67 -89.5t-30 -117t-7.5 -131.5q0 -85 5 -148t25 -125t66 -101.5t122 -39.5zM282 40q-55 0 -87.5 31t-48 81t-19.5 103.5t-4 125.5q0 61 3.5 110.5
t17.5 100.5t46 84.5t85 33.5q56 0 89 -33.5t48 -85t18.5 -102.5t3.5 -115q0 -67 -4 -120.5t-18.5 -102.5t-46 -80t-83.5 -31zM168 815h64v102h-64v-102zM326 815h64v102h-64v-102z" />
    <glyph glyph-name="multiply" unicode="&#xd7;" 
d="M222 204l165 -166l37 36l-166 166l166 166l-37 35l-165 -165l-164 165l-37 -36l165 -165l-165 -165l37 -35z" />
    <glyph glyph-name="Oslash" unicode="&#xd8;" horiz-adv-x="556" 
d="M419 564q10 -43 12.5 -88t2.5 -101q0 -67 -4 -121t-18.5 -103t-46 -80t-83.5 -31q-45 0 -75.5 22t-48.5 61zM137 186q-9 40 -11.5 85t-2.5 111q0 61 3.5 110.5t17.5 100t46 84t85 33.5q45 0 75 -21.5t48 -61.5zM120 59q25 -36 63.5 -56.5t92.5 -20.5q75 0 121 34
t67.5 88.5t28 116t6.5 138.5q0 94 -6 160.5t-29 121.5l65 109l-45 20l-47 -78q-25 36 -64.5 56t-94.5 20q-71 0 -115.5 -34t-67 -89.5t-30 -117t-7.5 -131.5q0 -93 5.5 -161t28.5 -125l-66 -112l42 -27z" />
    <glyph glyph-name="Ugrave" unicode="&#xd9;" horiz-adv-x="556" 
d="M73 198q0 -106 49.5 -161t154.5 -55q59 0 99.5 17.5t63.5 49.5t33 77t10 102v522h-65v-538q0 -41 -6.5 -71.5t-22 -53t-43.5 -35t-71 -12.5q-80 0 -108.5 40t-28.5 126v544h-65v-552zM341 804l-111 139h-78l138 -139h51z" />
    <glyph glyph-name="Uacute" unicode="&#xda;" horiz-adv-x="556" 
d="M73 198q0 -106 49.5 -161t154.5 -55q59 0 99.5 17.5t63.5 49.5t33 77t10 102v522h-65v-538q0 -41 -6.5 -71.5t-22 -53t-43.5 -35t-71 -12.5q-80 0 -108.5 40t-28.5 126v544h-65v-552zM267 804l138 139h-78l-111 -139h51z" />
    <glyph glyph-name="Ucircumflex" unicode="&#xdb;" horiz-adv-x="556" 
d="M73 198q0 -106 49.5 -161t154.5 -55q59 0 99.5 17.5t63.5 49.5t33 77t10 102v522h-65v-538q0 -41 -6.5 -71.5t-22 -53t-43.5 -35t-71 -12.5q-80 0 -108.5 40t-28.5 126v544h-65v-552zM279 906l82 -102h65l-114 139h-67l-113 -139h64z" />
    <glyph glyph-name="Udieresis" unicode="&#xdc;" horiz-adv-x="556" 
d="M73 198q0 -106 49.5 -161t154.5 -55q59 0 99.5 17.5t63.5 49.5t33 77t10 102v522h-65v-538q0 -41 -6.5 -71.5t-22 -53t-43.5 -35t-71 -12.5q-80 0 -108.5 40t-28.5 126v544h-65v-552zM168 815h64v102h-64v-102zM326 815h64v102h-64v-102z" />
    <glyph glyph-name="Yacute" unicode="&#xdd;" horiz-adv-x="500" 
d="M249 393l-158 357h-72l198 -431v-319h65v319l200 431h-68zM239 804l138 139h-78l-111 -139h51z" />
    <glyph glyph-name="Thorn" unicode="&#xde;" horiz-adv-x="500" 
d="M76 0h65v214h95q46 0 86.5 11.5t72 36.5t49.5 64.5t18 93.5q0 58 -20 98t-51.5 63.5t-66.5 33.5t-67 10h-116v125h-65v-750zM141 567h95q78 0 119.5 -37.5t41.5 -109.5t-41.5 -110t-119.5 -38h-95v295z" />
    <glyph glyph-name="germandbls" unicode="&#xdf;" 
d="M124 0v552q0 39 2 65t11 49t29.5 37t54.5 14q30 0 49.5 -10.5t30 -29.5t14 -42t3.5 -53q0 -67 -22.5 -96t-87.5 -29v-51q73 0 100.5 -43.5t27.5 -146.5q0 -43 -3 -74.5t-11.5 -55t-25 -36.5t-42.5 -13q-14 0 -29.5 8t-27.5 22v-62q18 -8 34.5 -13t30.5 -6q43 0 70 21.5
t40.5 55.5t17.5 71.5t4 78.5q0 44 -4 79t-14.5 64.5t-29 49t-47.5 26.5q44 24 59.5 63.5t15.5 89.5q0 79 -37 131t-112 52q-49 0 -81 -18.5t-49 -50t-23 -71.5t-6 -89v-539h58z" />
    <glyph glyph-name="agrave" unicode="&#xe0;" horiz-adv-x="389" 
d="M271 201q0 -37 -6 -68t-22 -55q-28 -41 -82 -41q-42 0 -59.5 25.5t-17.5 70.5q0 49 14 72t58 42q9 4 28 12q58 23 87 39v-97zM97 413q2 9 3 15q3 21 7 35t12.5 26t25 19t42.5 7q36 0 54.5 -14t24.5 -41q4 -24 4 -58q0 -21 -2 -34q-2 -16 -15 -22q-23 -11 -75 -31
q-53 -20 -76 -31q-42 -21 -59 -56t-17 -86q0 -35 5.5 -62.5t19.5 -49t39 -33t61 -11.5q37 0 69 15t53 44h1l2 -10q4 -18 9 -26t20 -14q16 -3 30 -3q19 0 34 6v42q-26 0 -33 7t-7 30v339q0 36 -5 61t-22 47q-18 23 -47 32.5t-67 9.5q-71 0 -109 -39t-38 -114h56zM257 606
l-111 139h-78l138 -139h51z" />
    <glyph glyph-name="aacute" unicode="&#xe1;" horiz-adv-x="389" 
d="M271 201q0 -37 -6 -68t-22 -55q-28 -41 -82 -41q-42 0 -59.5 25.5t-17.5 70.5q0 49 14 72t58 42q9 4 28 12q58 23 87 39v-97zM97 413q2 9 3 15q3 21 7 35t12.5 26t25 19t42.5 7q36 0 54.5 -14t24.5 -41q4 -24 4 -58q0 -21 -2 -34q-2 -16 -15 -22q-23 -11 -75 -31
q-53 -20 -76 -31q-42 -21 -59 -56t-17 -86q0 -35 5.5 -62.5t19.5 -49t39 -33t61 -11.5q37 0 69 15t53 44h1l2 -10q4 -18 9 -26t20 -14q16 -3 30 -3q19 0 34 6v42q-26 0 -33 7t-7 30v339q0 36 -5 61t-22 47q-18 23 -47 32.5t-67 9.5q-71 0 -109 -39t-38 -114h56zM183 606
l138 139h-78l-111 -139h51z" />
    <glyph glyph-name="acircumflex" unicode="&#xe2;" horiz-adv-x="389" 
d="M271 201q0 -37 -6 -68t-22 -55q-28 -41 -82 -41q-42 0 -59.5 25.5t-17.5 70.5q0 49 14 72t58 42q9 4 28 12q58 23 87 39v-97zM97 413q2 9 3 15q3 21 7 35t12.5 26t25 19t42.5 7q36 0 54.5 -14t24.5 -41q4 -24 4 -58q0 -21 -2 -34q-2 -16 -15 -22q-23 -11 -75 -31
q-53 -20 -76 -31q-42 -21 -59 -56t-17 -86q0 -35 5.5 -62.5t19.5 -49t39 -33t61 -11.5q37 0 69 15t53 44h1l2 -10q4 -18 9 -26t20 -14q16 -3 30 -3q19 0 34 6v42q-26 0 -33 7t-7 30v339q0 36 -5 61t-22 47q-18 23 -47 32.5t-67 9.5q-71 0 -109 -39t-38 -114h56zM195 708
l82 -102h65l-114 139h-67l-113 -139h64z" />
    <glyph glyph-name="atilde" unicode="&#xe3;" horiz-adv-x="389" 
d="M271 201q0 -37 -6 -68t-22 -55q-28 -41 -82 -41q-42 0 -59.5 25.5t-17.5 70.5q0 49 14 72t58 42q9 4 28 12q58 23 87 39v-97zM97 413q2 9 3 15q3 21 7 35t12.5 26t25 19t42.5 7q36 0 54.5 -14t24.5 -41q4 -24 4 -58q0 -21 -2 -34q-2 -16 -15 -22q-23 -11 -75 -31
q-53 -20 -76 -31q-42 -21 -59 -56t-17 -86q0 -35 5.5 -62.5t19.5 -49t39 -33t61 -11.5q37 0 69 15t53 44h1l2 -10q4 -18 9 -26t20 -14q16 -3 30 -3q19 0 34 6v42q-26 0 -33 7t-7 30v339q0 36 -5 61t-22 47q-18 23 -47 32.5t-67 9.5q-71 0 -109 -39t-38 -114h56zM297 627
q25 12 38.5 37t16.5 56h-38q-5 -25 -14 -37t-29 -12q-9 0 -22 3q-15 4 -46 18q-26 12 -42.5 17.5t-32.5 5.5q-36 0 -60 -28t-30 -69h37q1 3 2 4q6 18 12.5 28t20.5 16q6 2 13 2q14 0 29 -5.5t34 -13.5l7 -3q24 -12 41 -17.5t35 -5.5q13 0 28 4z" />
    <glyph glyph-name="adieresis" unicode="&#xe4;" horiz-adv-x="389" 
d="M271 201q0 -37 -6 -68t-22 -55q-28 -41 -82 -41q-42 0 -59.5 25.5t-17.5 70.5q0 49 14 72t58 42q9 4 28 12q58 23 87 39v-97zM97 413q2 9 3 15q3 21 7 35t12.5 26t25 19t42.5 7q36 0 54.5 -14t24.5 -41q4 -24 4 -58q0 -21 -2 -34q-2 -16 -15 -22q-23 -11 -75 -31
q-53 -20 -76 -31q-42 -21 -59 -56t-17 -86q0 -35 5.5 -62.5t19.5 -49t39 -33t61 -11.5q37 0 69 15t53 44h1l2 -10q4 -18 9 -26t20 -14q16 -3 30 -3q19 0 34 6v42q-26 0 -33 7t-7 30v339q0 36 -5 61t-22 47q-18 23 -47 32.5t-67 9.5q-71 0 -109 -39t-38 -114h56zM84 617h64
v102h-64v-102zM242 617h64v102h-64v-102z" />
    <glyph glyph-name="aring" unicode="&#xe5;" horiz-adv-x="389" 
d="M271 201q0 -37 -6 -68t-22 -55q-28 -41 -82 -41q-42 0 -59.5 25.5t-17.5 70.5q0 49 14 72t58 42q9 4 28 12q58 23 87 39v-97zM97 413q2 9 3 15q3 21 7 35t12.5 26t25 19t42.5 7q36 0 54.5 -14t24.5 -41q4 -24 4 -58q0 -21 -2 -34q-2 -16 -15 -22q-23 -11 -75 -31
q-53 -20 -76 -31q-42 -21 -59 -56t-17 -86q0 -35 5.5 -62.5t19.5 -49t39 -33t61 -11.5q37 0 69 15t53 44h1l2 -10q4 -18 9 -26t20 -14q16 -3 30 -3q19 0 34 6v42q-26 0 -33 7t-7 30v339q0 36 -5 61t-22 47q-18 23 -47 32.5t-67 9.5q-71 0 -109 -39t-38 -114h56zM194 596
q40 0 70 30t30 70t-30 70t-70 30t-69.5 -30t-29.5 -70t29.5 -70t69.5 -30zM194 762q27 0 46.5 -20t19.5 -46t-20 -46t-46 -20t-46 19.5t-20 46.5t19.5 46.5t46.5 19.5z" />
    <glyph glyph-name="ae" unicode="&#xe6;" horiz-adv-x="611" 
d="M325 332q0 34 3 63t11.5 56.5t28.5 45.5t52 18q35 0 56.5 -17t32 -44t13.5 -57t3 -65h-200zM583 281q0 64 -5.5 112t-21.5 87.5t-48 62.5t-84 23q-38 0 -63.5 -13t-50.5 -43q-20 30 -50.5 43t-70.5 13q-76 0 -110.5 -39t-39.5 -115h58q0 47 21 75t64 28q50 0 67.5 -25.5
t17.5 -79.5q0 -26 -1 -37.5t-6.5 -19t-16 -13t-34.5 -14.5q-10 -4 -15 -5q-63 -22 -94 -36q-38 -18 -57 -56t-19 -84q0 -37 5.5 -65.5t19 -49.5t38.5 -32.5t63 -11.5q93 0 145 82q30 -45 56 -63.5t75 -18.5q42 0 72 15t48 41.5t26.5 61t8.5 75.5h-56q-2 -30 -6 -54
t-14.5 -44t-29.5 -32t-48 -12q-36 0 -58 20.5t-31.5 53t-12 65.5t-3.5 79v26h261zM263 155q-3 -56 -28.5 -88t-77.5 -32q-39 0 -56 25.5t-19 66.5q0 41 12.5 71.5t45.5 42.5q16 8 48 19q26 9 43 16.5t32 19.5v-141z" />
    <glyph glyph-name="ccedilla" unicode="&#xe7;" horiz-adv-x="389" 
d="M133 -82l15 -13q21 7 41 7q24 0 38.5 -10t14.5 -28q0 -24 -20.5 -35.5t-46.5 -11.5q-20 0 -59 13l-4 2l-15 -30q46 -19 90 -19q45 0 78.5 20t33.5 62q0 33 -22.5 52.5t-59.5 19.5q-4 0 -14.5 -2t-15.5 -4l-2 2l37 45q71 6 103.5 60t32.5 135h-58v-2q-3 -33 -7 -55
t-13 -42.5t-27.5 -33.5t-46.5 -13q-38 0 -61.5 22t-34 57.5t-13 71t-2.5 81.5q0 54 3 93t12.5 74t31 56.5t57.5 22.5q46 0 70.5 -36.5t26.5 -89.5h57q0 74 -39.5 125.5t-110.5 51.5q-54 0 -88 -26.5t-50.5 -68.5t-22 -89.5t-5.5 -102.5q0 -58 4 -102.5t18 -86.5t44.5 -69.5
t80.5 -32.5z" />
    <glyph glyph-name="egrave" unicode="&#xe8;" horiz-adv-x="389" 
d="M352 335q0 43 -7 83.5t-25 74t-49 53.5t-77 20q-54 0 -86.5 -28t-48 -72t-20 -91t-4.5 -101q0 -57 4.5 -102.5t20 -88.5t49 -70t87.5 -27q41 0 70.5 15.5t48 42.5t27 62t8.5 74h-56q-2 -30 -6 -53.5t-14 -44t-29 -33t-48 -12.5q-35 0 -56 20t-31.5 54t-13.5 74t-3 94h259
v56zM93 330q0 31 3.5 61t14 58.5t30.5 47t52 18.5q33 0 54 -17.5t31 -46t13 -58t3 -63.5h-201zM257 606l-111 139h-78l138 -139h51z" />
    <glyph glyph-name="eacute" unicode="&#xe9;" horiz-adv-x="389" 
d="M352 335q0 43 -7 83.5t-25 74t-49 53.5t-77 20q-54 0 -86.5 -28t-48 -72t-20 -91t-4.5 -101q0 -57 4.5 -102.5t20 -88.5t49 -70t87.5 -27q41 0 70.5 15.5t48 42.5t27 62t8.5 74h-56q-2 -30 -6 -53.5t-14 -44t-29 -33t-48 -12.5q-35 0 -56 20t-31.5 54t-13.5 74t-3 94h259
v56zM93 330q0 31 3.5 61t14 58.5t30.5 47t52 18.5q33 0 54 -17.5t31 -46t13 -58t3 -63.5h-201zM183 606l138 139h-78l-111 -139h51z" />
    <glyph glyph-name="ecircumflex" unicode="&#xea;" horiz-adv-x="389" 
d="M352 335q0 43 -7 83.5t-25 74t-49 53.5t-77 20q-54 0 -86.5 -28t-48 -72t-20 -91t-4.5 -101q0 -57 4.5 -102.5t20 -88.5t49 -70t87.5 -27q41 0 70.5 15.5t48 42.5t27 62t8.5 74h-56q-2 -30 -6 -53.5t-14 -44t-29 -33t-48 -12.5q-35 0 -56 20t-31.5 54t-13.5 74t-3 94h259
v56zM93 330q0 31 3.5 61t14 58.5t30.5 47t52 18.5q33 0 54 -17.5t31 -46t13 -58t3 -63.5h-201zM195 708l82 -102h65l-114 139h-67l-113 -139h64z" />
    <glyph glyph-name="edieresis" unicode="&#xeb;" horiz-adv-x="389" 
d="M352 335q0 43 -7 83.5t-25 74t-49 53.5t-77 20q-54 0 -86.5 -28t-48 -72t-20 -91t-4.5 -101q0 -57 4.5 -102.5t20 -88.5t49 -70t87.5 -27q41 0 70.5 15.5t48 42.5t27 62t8.5 74h-56q-2 -30 -6 -53.5t-14 -44t-29 -33t-48 -12.5q-35 0 -56 20t-31.5 54t-13.5 74t-3 94h259
v56zM93 330q0 31 3.5 61t14 58.5t30.5 47t52 18.5q33 0 54 -17.5t31 -46t13 -58t3 -63.5h-201zM84 617h64v102h-64v-102zM242 617h64v102h-64v-102z" />
    <glyph glyph-name="igrave" unicode="&#xec;" horiz-adv-x="200" 
d="M129 0v552h-58v-552h58zM163 606l-111 139h-78l138 -139h51z" />
    <glyph glyph-name="iacute" unicode="&#xed;" horiz-adv-x="200" 
d="M129 0v552h-58v-552h58zM89 606l138 139h-78l-111 -139h51z" />
    <glyph glyph-name="icircumflex" unicode="&#xee;" horiz-adv-x="200" 
d="M129 0v552h-58v-552h58zM90 708l82 -102h65l-114 139h-67l-113 -139h64z" />
    <glyph glyph-name="idieresis" unicode="&#xef;" horiz-adv-x="200" 
d="M129 0v552h-58v-552h58zM-10 617h64v102h-64v-102zM148 617h64v102h-64v-102z" />
    <glyph glyph-name="eth" unicode="&#xf0;" 
d="M88 662l25 -28l75 52q28 -31 53.5 -67t40.5 -65l-2 -2q-24 14 -58 14q-54 0 -89 -24.5t-53.5 -64.5t-25 -87.5t-6.5 -100.5q0 -64 4 -112t20.5 -92t53 -71.5t96.5 -27.5q55 0 90 26t53 67.5t24.5 89t6.5 100.5v11q0 133 -39.5 235.5t-128.5 198.5l74 51l-24 28l-73 -51
q-18 17 -39 35.5t-36 30.5l-36 -31q21 -18 41 -35.5t28 -27.5zM106 288q0 38 3 74.5t14 71.5t34 58t60 23q42 0 67 -23.5t36.5 -59.5t14.5 -73t3 -82t-2.5 -82t-13.5 -73.5t-36 -60.5t-66 -24q-40 0 -64 22.5t-34.5 58.5t-13 75t-2.5 95z" />
    <glyph glyph-name="ntilde" unicode="&#xf1;" 
d="M123 407q0 45 36 76.5t81 31.5q28 0 44.5 -8.5t24 -23.5t10 -35t2.5 -47v-401h58v438q0 58 -37 93t-92 35q-39 0 -71 -18t-54 -50h-2v54h-58v-552h58v407zM325 627q25 12 38.5 37t16.5 56h-38q-5 -25 -14 -37t-29 -12q-9 0 -22 3q-15 4 -46 18q-26 12 -42.5 17.5
t-32.5 5.5q-36 0 -60 -28t-30 -69h37q1 3 2 4q6 18 12.5 28t20.5 16q6 2 13 2q14 0 29 -5.5t34 -13.5l7 -3q24 -12 41 -17.5t35 -5.5q13 0 28 4z" />
    <glyph glyph-name="ograve" unicode="&#xf2;" 
d="M221 -14q57 0 92.5 26.5t53 69t23.5 91t6 105.5q0 54 -6 102t-23.5 91t-52.5 69t-90 26q-54 0 -89.5 -24.5t-54 -64.5t-25 -87.5t-6.5 -100.5q0 -65 4 -112t20.5 -91.5t52.5 -72t95 -27.5zM220 37q-38 0 -61.5 22t-34.5 58.5t-14 76.5t-3 94q0 38 3.5 74.5t14 71.5t33 58
t59.5 23q42 0 67 -23.5t36.5 -59.5t14.5 -73t3 -82t-2.5 -82t-13.5 -73.5t-36 -60.5t-66 -24zM285 606l-111 139h-78l138 -139h51z" />
    <glyph glyph-name="oacute" unicode="&#xf3;" 
d="M221 -14q57 0 92.5 26.5t53 69t23.5 91t6 105.5q0 54 -6 102t-23.5 91t-52.5 69t-90 26q-54 0 -89.5 -24.5t-54 -64.5t-25 -87.5t-6.5 -100.5q0 -65 4 -112t20.5 -91.5t52.5 -72t95 -27.5zM220 37q-38 0 -61.5 22t-34.5 58.5t-14 76.5t-3 94q0 38 3.5 74.5t14 71.5t33 58
t59.5 23q42 0 67 -23.5t36.5 -59.5t14.5 -73t3 -82t-2.5 -82t-13.5 -73.5t-36 -60.5t-66 -24zM211 606l138 139h-78l-111 -139h51z" />
    <glyph glyph-name="ocircumflex" unicode="&#xf4;" 
d="M221 -14q57 0 92.5 26.5t53 69t23.5 91t6 105.5q0 54 -6 102t-23.5 91t-52.5 69t-90 26q-54 0 -89.5 -24.5t-54 -64.5t-25 -87.5t-6.5 -100.5q0 -65 4 -112t20.5 -91.5t52.5 -72t95 -27.5zM220 37q-38 0 -61.5 22t-34.5 58.5t-14 76.5t-3 94q0 38 3.5 74.5t14 71.5t33 58
t59.5 23q42 0 67 -23.5t36.5 -59.5t14.5 -73t3 -82t-2.5 -82t-13.5 -73.5t-36 -60.5t-66 -24zM223 708l82 -102h65l-114 139h-67l-113 -139h64z" />
    <glyph glyph-name="otilde" unicode="&#xf5;" 
d="M221 -14q57 0 92.5 26.5t53 69t23.5 91t6 105.5q0 54 -6 102t-23.5 91t-52.5 69t-90 26q-54 0 -89.5 -24.5t-54 -64.5t-25 -87.5t-6.5 -100.5q0 -65 4 -112t20.5 -91.5t52.5 -72t95 -27.5zM220 37q-38 0 -61.5 22t-34.5 58.5t-14 76.5t-3 94q0 38 3.5 74.5t14 71.5t33 58
t59.5 23q42 0 67 -23.5t36.5 -59.5t14.5 -73t3 -82t-2.5 -82t-13.5 -73.5t-36 -60.5t-66 -24zM325 627q25 12 38.5 37t16.5 56h-38q-5 -25 -14 -37t-29 -12q-9 0 -22 3q-15 4 -46 18q-26 12 -42.5 17.5t-32.5 5.5q-36 0 -60 -28t-30 -69h37q1 3 2 4q6 18 12.5 28t20.5 16
q6 2 13 2q14 0 29 -5.5t34 -13.5l7 -3q24 -12 41 -17.5t35 -5.5q13 0 28 4z" />
    <glyph glyph-name="odieresis" unicode="&#xf6;" 
d="M221 -14q57 0 92.5 26.5t53 69t23.5 91t6 105.5q0 54 -6 102t-23.5 91t-52.5 69t-90 26q-54 0 -89.5 -24.5t-54 -64.5t-25 -87.5t-6.5 -100.5q0 -65 4 -112t20.5 -91.5t52.5 -72t95 -27.5zM220 37q-38 0 -61.5 22t-34.5 58.5t-14 76.5t-3 94q0 38 3.5 74.5t14 71.5t33 58
t59.5 23q42 0 67 -23.5t36.5 -59.5t14.5 -73t3 -82t-2.5 -82t-13.5 -73.5t-36 -60.5t-66 -24zM112 617h64v102h-64v-102zM270 617h64v102h-64v-102z" />
    <glyph glyph-name="divide" unicode="&#xf7;" 
d="M21 271v-51h403v51h-403zM191 389h64v102h-64v-102zM191 0h64v102h-64v-102z" />
    <glyph glyph-name="oslash" unicode="&#xf8;" 
d="M328 405q7 -30 8.5 -59.5t1.5 -68.5q0 -45 -2.5 -82t-13.5 -73.5t-36 -60.5t-66 -24q-34 0 -56.5 17.5t-35.5 49.5zM310 457l-196 -298q-4 27 -5.5 55.5t-1.5 73.5q0 38 3.5 74.5t14 71.5t33 58t59.5 23q34 0 56.5 -15.5t36.5 -42.5zM92 50q19 -30 51 -47t78 -17
q57 0 92.5 26.5t53 69t23.5 91t6 105.5q0 55 -6 102t-22 86l61 91l-39 21l-45 -69q-21 27 -50.5 42t-70.5 15q-54 0 -89.5 -24.5t-54 -64.5t-25 -87.5t-6.5 -100.5q0 -63 4 -109.5t18 -85.5l-74 -112l34 -24z" />
    <glyph glyph-name="ugrave" unicode="&#xf9;" 
d="M321 132q-14 -38 -43.5 -66t-62.5 -29h-7h-7q-44 0 -63.5 23.5t-19.5 73.5v418h-58v-408q0 -35 5 -63t18.5 -49.5t38 -33.5t60.5 -12q91 0 139 65h2v-51h56v552h-58v-420zM285 606l-111 139h-78l138 -139h51z" />
    <glyph glyph-name="uacute" unicode="&#xfa;" 
d="M321 132q-14 -38 -43.5 -66t-62.5 -29h-7h-7q-44 0 -63.5 23.5t-19.5 73.5v418h-58v-408q0 -35 5 -63t18.5 -49.5t38 -33.5t60.5 -12q91 0 139 65h2v-51h56v552h-58v-420zM211 606l138 139h-78l-111 -139h51z" />
    <glyph glyph-name="ucircumflex" unicode="&#xfb;" 
d="M321 132q-14 -38 -43.5 -66t-62.5 -29h-7h-7q-44 0 -63.5 23.5t-19.5 73.5v418h-58v-408q0 -35 5 -63t18.5 -49.5t38 -33.5t60.5 -12q91 0 139 65h2v-51h56v552h-58v-420zM223 698l82 -102h65l-114 139h-67l-113 -139h64z" />
    <glyph glyph-name="udieresis" unicode="&#xfc;" 
d="M321 132q-14 -38 -43.5 -66t-62.5 -29h-7h-7q-44 0 -63.5 23.5t-19.5 73.5v418h-58v-408q0 -35 5 -63t18.5 -49.5t38 -33.5t60.5 -12q91 0 139 65h2v-51h56v552h-58v-420zM112 617h64v102h-64v-102zM270 617h64v102h-64v-102z" />
    <glyph glyph-name="yacute" unicode="&#xfd;" horiz-adv-x="389" 
d="M28 -188q7 0 20 -1q21 -2 30 -2q33 0 58 14q32 20 49.5 62.5t33.5 105.5l4 16l150 545h-59l-120 -447h-2l-114 447h-61l143 -554q-14 -60 -32 -101q-10 -20 -28 -27.5t-43 -7.5h-15q-10 1 -14 1v-51zM183 606l138 139h-78l-111 -139h51z" />
    <glyph glyph-name="thorn" unicode="&#xfe;" 
d="M226 515q39 0 62 -25t33 -62.5t12.5 -73t2.5 -78.5t-2.5 -78.5t-12.5 -73t-33 -62.5t-62 -25t-62 25t-33 62.5t-12.5 73t-2.5 78.5t2.5 78.5t12.5 73t33 62.5t62 25zM58 -190h58v235h2q42 -59 115 -59q54 0 87.5 28.5t49 74t20 93.5t4.5 108q0 54 -5.5 99.5t-22.5 86
t-50.5 65.5t-87.5 25q-34 0 -62 -17t-48 -47h-2v248h-58v-940z" />
    <glyph glyph-name="ydieresis" unicode="&#xff;" horiz-adv-x="389" 
d="M28 -188q7 0 20 -1q21 -2 30 -2q33 0 58 14q32 20 49.5 62.5t33.5 105.5l4 16l150 545h-59l-120 -447h-2l-114 447h-61l143 -554q-14 -60 -32 -101q-10 -20 -28 -27.5t-43 -7.5h-15q-10 1 -14 1v-51zM84 617h64v102h-64v-102zM242 617h64v102h-64v-102z" />
    <glyph glyph-name="OE" unicode="&#x152;" horiz-adv-x="778" 
d="M267 40q-49 0 -78.5 29.5t-44 79.5t-19 109.5t-4.5 141.5q0 56 3 102.5t15.5 95t40.5 80.5t75 32q49 0 78.5 -30.5t43.5 -80t18 -104.5t4 -124q0 -67 -3.5 -120.5t-16.5 -102t-40.5 -78.5t-71.5 -30zM399 0h339v58h-274v300h247v58h-247v276h270v58h-335v-85h-2
q-20 51 -54 77t-86 26q-70 0 -112 -37.5t-61 -96t-23.5 -118.5t-4.5 -138q0 -66 5 -127.5t23 -123.5t57.5 -103.5t102.5 -41.5t95 21t58 78h2v-81z" />
    <glyph glyph-name="oe" unicode="&#x153;" horiz-adv-x="667" 
d="M625 335q0 46 -6 85.5t-22.5 72.5t-47 53t-76.5 20q-52 0 -82.5 -19.5t-51.5 -67.5q-37 87 -131 87q-55 0 -90 -26t-52.5 -67.5t-23 -89t-5.5 -102.5q0 -62 4 -108t19 -89.5t49 -70.5t90 -27q99 0 139 87q39 -87 133 -87q42 0 71 15t47 41.5t26 60.5t9 75h-56
q-1 -27 -5.5 -51.5t-15 -44.5t-29 -32.5t-46.5 -12.5q-35 0 -56.5 20t-31.5 54t-13 74t-3 95h257v55zM200 37q-35 0 -56.5 22t-32 56t-13.5 68.5t-3 70.5q0 58 3.5 101t14 79.5t33 58.5t59.5 22q36 0 58 -21.5t32 -55.5t12.5 -71t2.5 -85q0 -52 -3 -91.5t-13.5 -75
t-33.5 -57t-60 -21.5zM370 331v1q1 34 4.5 63t13 56.5t29 45.5t51.5 18q34 -1 54 -17t30 -42.5t12.5 -56t2.5 -68.5h-197z" />
    <glyph glyph-name="Scaron" unicode="&#x160;" horiz-adv-x="500" 
d="M211 433q-51 22 -71 50t-20 82q0 64 33.5 104.5t95.5 40.5q60 0 94.5 -37.5t34.5 -103.5h63q0 91 -52.5 145t-138.5 54q-90 0 -142.5 -57t-52.5 -150q0 -43 12.5 -75.5t35 -56t53 -40t72.5 -33.5q6 -2 26 -10q36 -14 59 -24.5t42 -27t30 -41.5t11 -62q0 -69 -41 -110
t-110 -41q-72 0 -106.5 47.5t-34.5 124.5h-64q0 -105 53.5 -167.5t152.5 -62.5q98 0 156.5 57t58.5 154q0 49 -14 83t-38.5 56.5t-55 38t-83.5 38.5h-1zM251 832l-83 101h-64l113 -139h67l114 139h-65z" />
    <glyph glyph-name="scaron" unicode="&#x161;" horiz-adv-x="389" 
d="M44 407q1 -27 12 -47t28.5 -35.5t37.5 -26.5t49 -25q31 -15 50 -26t35 -25.5t26 -34.5t10 -46q0 -45 -25 -74.5t-70 -29.5q-51 0 -76.5 29.5t-29.5 83.5h-59q0 -80 40.5 -122t120.5 -42q73 0 115 39.5t42 112.5q0 42 -13.5 73.5t-38 54.5t-54 39.5t-75.5 37.5
q-31 12 -49 32.5t-18 51.5q0 41 21 64.5t61 23.5q44 0 68.5 -29t26.5 -75h57q0 72 -39.5 113.5t-110.5 41.5q-69 0 -106 -35.5t-37 -101.5q0 -1 1 -10v-12zM185 634l-83 101h-64l113 -139h67l114 139h-65z" />
    <glyph glyph-name="Ydieresis" unicode="&#x178;" horiz-adv-x="500" 
d="M249 393l-158 357h-72l198 -431v-319h65v319l200 431h-68zM140 815h64v102h-64v-102zM298 815h64v102h-64v-102z" />
    <glyph glyph-name="florin" unicode="&#x192;" 
d="M12 -180q23 -9 46 -9h9q7 1 9 1q35 4 58.5 25t37 52t20.5 61.5t14 75.5q1 3 2 10l62 381h124v46h-116l15 78q1 4 4 17q5 24 10.5 45t14 41t22 32.5t32.5 12.5q8 0 18 -3q5 -1 18 -6q9 -4 10 -4l13 55q-8 4 -26 8l-9 2q-13 3 -26 3q-36 0 -61.5 -21t-41.5 -53t-25 -65
t-18 -78v0l-12 -64h-119v-46h110l-61 -376q-2 -11 -5.5 -30.5t-8 -39t-9.5 -37t-9 -25.5q-10 -22 -23 -31t-30 -9q-15 0 -38 7z" />
    <glyph glyph-name="circumflex" unicode="&#x2c6;" horiz-adv-x="333" 
d="M167 708l82 -102h65l-114 139h-67l-113 -139h64z" />
    <glyph glyph-name="tilde" unicode="&#x2dc;" horiz-adv-x="333" 
d="M269 627q25 12 38.5 37t16.5 56h-38q-5 -25 -14 -37t-29 -12q-9 0 -22 3q-15 4 -46 18q-26 12 -42.5 17.5t-32.5 5.5q-36 0 -60 -28t-30 -69h37q1 3 2 4q6 18 12.5 28t20.5 16q6 2 13 2q14 0 29 -5.5t34 -13.5l7 -3q24 -12 41 -17.5t35 -5.5q13 0 28 4z" />
    <glyph glyph-name="endash" unicode="&#x2013;" horiz-adv-x="500" 
d="M500 273v51h-500v-51h500z" />
    <glyph glyph-name="emdash" unicode="&#x2014;" horiz-adv-x="1000" 
d="M1000 273v51h-1000v-51h1000z" />
    <glyph glyph-name="quoteleft" unicode="&#x2018;" horiz-adv-x="160" 
d="M111 750q-33 -9 -48 -30.5t-19 -66.5q-2 -24 -2 -71v-56h69v88h-30v13q0 38 5.5 58t24.5 28v37z" />
    <glyph glyph-name="quoteright" unicode="&#x2019;" horiz-adv-x="160" 
d="M49 526q34 9 48.5 31t18.5 66q2 24 2 71v56h-69v-88h30v-13q0 -38 -5.5 -58t-24.5 -28v-37z" />
    <glyph glyph-name="quotesinglbase" unicode="&#x201a;" horiz-adv-x="222" 
d="M77 -136q34 9 48.5 30.5t18.5 66.5q2 24 2 71v56h-69v-88h30v-13q0 -38 -5.5 -58t-24.5 -28v-37z" />
    <glyph glyph-name="quotedblleft" unicode="&#x201c;" horiz-adv-x="333" 
d="M154 750q-33 -9 -48 -30.5t-19 -66.5q-2 -24 -2 -71v-56h69v88h-30v13q0 38 5.5 58t24.5 28v37zM284 750q-33 -9 -48 -30.5t-19 -66.5q-2 -24 -2 -71v-56h69v88h-30v13q0 38 5.5 58t24.5 28v37z" />
    <glyph glyph-name="quotedblright" unicode="&#x201d;" horiz-adv-x="333" 
d="M179 526q34 9 48.5 31t18.5 66q2 24 2 71v56h-69v-88h30v-13q0 -38 -5.5 -58t-24.5 -28v-37zM49 526q34 9 48.5 31t18.5 66q2 24 2 71v56h-69v-88h30v-13q0 -38 -5.5 -58t-24.5 -28v-37z" />
    <glyph glyph-name="quotedblbase" unicode="&#x201e;" horiz-adv-x="330" 
d="M196 -136q34 9 48.5 30.5t18.5 66.5q2 24 2 71v56h-69v-88h30v-13q0 -38 -5.5 -58t-24.5 -28v-37zM66 -136q34 9 48.5 30.5t18.5 66.5q2 24 2 71v56h-69v-88h30v-13q0 -38 -5.5 -58t-24.5 -28v-37z" />
    <glyph glyph-name="dagger" unicode="&#x2020;" 
d="M252 539v229h-58v-229h-162v-51h162v-605h58v605h160v51h-160z" />
    <glyph glyph-name="daggerdbl" unicode="&#x2021;" 
d="M251 157v338h162v51h-162v222h-58v-222h-160v-51h160v-338h-162v-51h162v-223h58v223h162v51h-162z" />
    <glyph glyph-name="bullet" unicode="&#x2022;" horiz-adv-x="606" 
d="M490 375q0 38 -14.5 72.5t-40.5 60.5t-60.5 40.5t-72.5 14.5q-37 0 -71 -14.5t-60 -41t-40.5 -60.5t-14.5 -72q0 -37 14.5 -71t40.5 -60t60 -40.5t71 -14.5q38 0 72 14.5t60.5 40.5t41 60t14.5 71z" />
    <glyph glyph-name="ellipsis" unicode="&#x2026;" horiz-adv-x="1000" 
d="M202 0v88h-69v-88h69zM535 0v88h-69v-88h69zM868 0v88h-69v-88h69z" />
    <glyph glyph-name="perthousand" unicode="&#x2030;" horiz-adv-x="1000" 
d="M513 358q-40 0 -66 -14.5t-41 -40t-21 -57t-6 -69.5t5 -69t19 -56t41 -39.5t68 -14.5q63 0 97.5 43t34.5 136q0 36 -6 67.5t-20.5 57.5t-40.5 41t-64 15zM513 314q25 0 40.5 -13t23 -33t9.5 -41.5t2 -48.5q0 -62 -17 -99t-56 -37q-40 0 -60 31.5t-20 104.5q0 21 2.5 43
t10 43t23.5 35.5t42 14.5zM835 358q-40 0 -66 -14.5t-41 -40t-21 -57t-6 -69.5t5 -69t19 -56t41 -39.5t68 -14.5q63 0 97.5 43t34.5 136q0 36 -6 67.5t-20.5 57.5t-40.5 41t-64 15zM835 314q25 0 40.5 -13t23 -33t9.5 -41.5t2 -48.5q0 -62 -17 -99t-56 -37q-40 0 -60 31.5
t-20 104.5q0 21 2.5 43t10 43t23.5 35.5t42 14.5zM168 728q-40 0 -66 -14.5t-41 -40t-21 -57t-6 -69.5t5 -69t19 -56t41 -39.5t68 -14.5q63 0 97.5 43t34.5 136q0 36 -6 67.5t-20.5 57.5t-40.5 41t-64 15zM168 684q25 0 40.5 -13t23 -33t9.5 -41.5t2 -48.5q0 -62 -17 -99
t-56 -37q-40 0 -60 31.5t-20 104.5q0 21 2.5 43t10 43t23.5 35.5t42 14.5zM165 -15h43l305 756h-44z" />
    <glyph glyph-name="guilsinglleft" unicode="&#x2039;" horiz-adv-x="333" 
d="M231 130v62l-101 79l101 81v60l-141 -106v-70z" />
    <glyph glyph-name="guilsinglright" unicode="&#x203a;" horiz-adv-x="333" 
d="M102 352l102 -81l-102 -79v-62l141 106v70l-141 106v-60z" />
    <glyph glyph-name="trademark" unicode="&#x2122;" horiz-adv-x="722" 
d="M666 750h-86l-78 -297h-2l-75 297h-88v-421h51v368h2l93 -368h36l94 368h2v-368h51v421zM292 750h-235v-51h92v-370h51v370h92v51z" />
    </font>
</defs>
</svg>
